Betamatic-Heavy.ufo
<glyph name="exclam" format="1">
  <advance width="458"/>
  <unicode hex="0021"/>
  <outline>
    <contour>
      <point x="103.716" y="209" type="line"/>
      <point x="54.2246" y="1655" type="line"/>
      <point x="446.126" y="1655" type="line"/>
      <point x="360.055" y="209" type="line"/>
    </contour>
    <contour>
      <point x="398" y="-145" type="line"/>
      <point x="70" y="-145" type="line"/>
      <point x="70" y="166" type="line"/>
      <point x="398" y="166" type="line"/>
    </contour>
  </outline>
</glyph>
<glyph name="quotedbl" format="1">
  <advance width="647"/>
  <unicode hex="0022"/>
  <outline>
    <contour>
      <point x="36.2955" y="1671.12" type="line"/>
      <point x="201.47" y="1680.21" type="line"/>
      <point x="272.041" y="1669.45" type="line"/>
      <point x="271.613" y="1672.94" type="line"/>
      <point x="420.078" y="1678.36" type="line"/>
      <point x="420.389" y="1683.18" type="line"/>
      <point x="469.642" y="1680" type="line"/>
      <point x="519" y="1680" type="line"/>
      <point x="519" y="1676.82" type="line"/>
      <point x="613.463" y="1670.72" type="line"/>
      <point x="596.695" y="1114.96" type="line"/>
      <point x="344.771" y="1076.7" type="line"/>
      <point x="333.408" y="1169.31" type="line"/>
      <point x="325.69" y="1071.21" type="line"/>
      <point x="67.4192" y="1101.32" type="line"/>
    </contour>
    <contour>
      <point x="466.564" y="1577.99" type="line"/>
      <point x="386.387" y="1575.06" type="line"/>
      <point x="433.229" y="1193.3" type="line"/>
      <point x="497.305" y="1203.04" type="line"/>
      <point x="508.537" y="1575.28" type="line"/>
    </contour>
  </outline>
</glyph>
<glyph name="numbersign" format="1">
  <advance width="1196"/>
  <unicode hex="0023"/>
  <outline>
    <contour>
      <point x="523.722" y="788" type="line"/>
      <point x="696.227" y="788" type="line"/>
      <point x="707.19" y="850" type="line"/>
      <point x="533.552" y="850" type="line"/>
    </contour>
    <contour>
      <point x="30" y="1149" type="line"/>
      <point x="260.617" y="1149" type="line"/>
      <point x="314.458" y="1535.17" type="line"/>
      <point x="448.202" y="1699.25" type="line"/>
      <point x="663.064" y="1572.08" type="line"/>
      <point x="594.226" y="1160" type="line"/>
      <point x="765.372" y="1160" type="line"/>
      <point x="954.096" y="1719.88" type="line"/>
      <point x="1186.05" y="1577.87" type="line"/>
      <point x="1101.32" y="1158" type="line"/>
      <point x="1225" y="1158" type="line"/>
      <point x="1225" y="857" type="line"/>
      <point x="1053.75" y="857" type="line"/>
      <point x="1048.85" y="812" type="line"/>
      <point x="1179" y="812" type="line"/>
      <point x="1179" y="482" type="line"/>
      <point x="986.598" y="482" type="line"/>
      <point x="783.336" y="-238.188" type="line"/>
      <point x="512.66" y="-102.85" type="line"/>
      <point x="640.571" y="479" type="line"/>
      <point x="487.044" y="479" type="line"/>
      <point x="423.044" y="-146" type="line"/>
      <point x="56.7794" y="-146" type="line"/>
      <point x="149.779" y="474" type="line"/>
      <point x="-15" y="474" type="line"/>
      <point x="-15" y="785" type="line"/>
      <point x="196.49" y="785" type="line"/>
      <point x="208.207" y="858.455" type="line"/>
      <point x="30" y="937.897" type="line"/>
    </contour>
  </outline>
</glyph>
<glyph name="dollar" format="1">
  <advance width="1162"/>
  <unicode hex="0024"/>
  <outline>
    <contour>
      <point x="609.501" y="1529.78" type="curve"/>
      <point x="736.983" y="1513.95"/>
      <point x="987" y="1473.35"/>
      <point x="987" y="1330.97" type="curve" smooth="yes"/>
      <point x="987" y="1238.39"/>
      <point x="904.804" y="1195.33"/>
      <point x="834.726" y="1195.33" type="curve" smooth="yes"/>
      <point x="769.693" y="1195.33"/>
      <point x="700.733" y="1205.96"/>
      <point x="641.938" y="1218.2" type="curve"/>
      <point x="645.128" y="1162.34"/>
      <point x="662.843" y="1099.96"/>
      <point x="682.103" y="1036.32" type="curve"/>
      <point x="826.429" y="945.47"/>
      <point x="1097" y="621.934"/>
      <point x="1097" y="463.409" type="curve" smooth="yes"/>
      <point x="1097" y="308.857"/>
      <point x="971.191" y="220.799"/>
      <point x="860.911" y="181.132" type="curve"/>
      <point x="861.668" y="168.324"/>
      <point x="862" y="159.149"/>
      <point x="862" y="146.904" type="curve" smooth="yes"/>
      <point x="862" y="105.828"/>
      <point x="835.9" y="-17"/>
      <point x="625.182" y="-17" type="curve" smooth="yes"/>
      <point x="437.676" y="-17"/>
      <point x="370.736" y="74.7637"/>
      <point x="370.736" y="130.891" type="curve" smooth="yes"/>
      <point x="370.736" y="145.979" type="line"/>
      <point x="253.635" y="155.466"/>
      <point x="119.324" y="191.218"/>
      <point x="111.535" y="339.171" type="curve"/>
      <point x="144.188" y="420.374" type="line"/>
      <point x="177.146" y="451.417"/>
      <point x="219.166" y="470.945"/>
      <point x="268" y="470.945" type="curve" smooth="yes"/>
      <point x="345.969" y="470.945" type="line"/>
      <point x="332.782" y="588.979"/>
      <point x="319.982" y="725.156"/>
      <point x="315.278" y="777.597" type="curve"/>
      <point x="224.982" y="902.438"/>
      <point x="91" y="1022.85"/>
      <point x="91" y="1231.12" type="curve" smooth="yes"/>
      <point x="91" y="1296.48"/>
      <point x="113.688" y="1422.98"/>
      <point x="230.008" y="1493.02" type="curve" smooth="yes"/>
      <point x="230.002" y="1493.96"/>
      <point x="230" y="1493.94"/>
      <point x="230" y="1494.88" type="curve" smooth="yes"/>
      <point x="230" y="1523.35"/>
      <point x="245.307" y="1639"/>
      <point x="379.467" y="1639" type="curve" smooth="yes"/>
      <point x="518.942" y="1639"/>
      <point x="589.927" y="1584.3"/>
    </contour>
  </outline>
</glyph>
<glyph name="percent" format="1">
  <advance width="2044"/>
  <unicode hex="0025"/>
  <outline>
    <contour>
      <point x="1458.3" y="631" type="curve" smooth="yes"/>
      <point x="1447.15" y="631" type="line"/>
      <point x="1413.02" y="622.453"/>
      <point x="1374" y="498.751"/>
      <point x="1374" y="389" type="curve" smooth="yes"/>
      <point x="1374" y="371.103" type="line"/>
      <point x="1380.48" y="345.784"/>
      <point x="1430.05" y="249.891"/>
      <point x="1456.27" y="218.483" type="curve"/>
      <point x="1606.39" y="225.567"/>
      <point x="1612.92" y="292.814"/>
      <point x="1612.92" y="365.185" type="curve" smooth="yes"/>
      <point x="1612.92" y="372.093"/>
      <point x="1612.87" y="379.047"/>
      <point x="1612.87" y="386" type="curve" smooth="yes"/>
      <point x="1612.87" y="434" type="line" smooth="yes"/>
      <point x="1612.87" y="551.312"/>
      <point x="1606.23" y="631"/>
    </contour>
    <contour>
      <point x="487.801" y="914.602" type="curve"/>
      <point x="511.728" y="945.418"/>
      <point x="526.605" y="1029.68"/>
      <point x="526.605" y="1093" type="curve" smooth="yes"/>
      <point x="526.605" y="1160.23"/>
      <point x="514.388" y="1267.93"/>
      <point x="484.866" y="1319.12" type="curve"/>
      <point x="464.072" y="1261.38"/>
      <point x="445.069" y="1179.46"/>
      <point x="443.381" y="1164.95" type="curve"/>
      <point x="443.678" y="1104.91"/>
      <point x="465.296" y="972.393"/>
    </contour>
    <contour>
      <point x="897.468" y="1060.74" type="curve"/>
      <point x="1140.95" y="1564.15" type="line"/>
      <point x="1505.8" y="1458.84" type="line"/>
      <point x="1195.71" y="874.968" type="line"/>
      <point x="1263.5" y="915.405"/>
      <point x="1353.63" y="941"/>
      <point x="1473.43" y="941" type="curve" smooth="yes"/>
      <point x="1925.77" y="941"/>
      <point x="1954" y="620.453"/>
      <point x="1954" y="455.059" type="curve" smooth="yes"/>
      <point x="1954" y="406.56" type="line" smooth="yes"/>
      <point x="1954" y="242.337"/>
      <point x="1876.52" y="-48"/>
      <point x="1424.8" y="-48" type="curve" smooth="yes"/>
      <point x="1040.55" y="-48"/>
      <point x="990.292" y="322.751"/>
      <point x="990.292" y="422" type="curve" smooth="yes"/>
      <point x="990.292" y="461" type="line" smooth="yes"/>
      <point x="990.292" y="475.826"/>
      <point x="990.459" y="493.473"/>
      <point x="991.314" y="513.173" type="curve"/>
      <point x="724.961" y="-24.752" type="line"/>
      <point x="388.701" y="100.574" type="line"/>
      <point x="663.311" y="627.6" type="line"/>
      <point x="611.099" y="609.542"/>
      <point x="547.884" y="599"/>
      <point x="471.481" y="599" type="curve" smooth="yes"/>
      <point x="101.264" y="599"/>
      <point x="98.9814" y="979.473"/>
      <point x="98.9814" y="1092.66" type="curve" smooth="yes"/>
      <point x="98.9814" y="1098.95"/>
      <point x="99" y="1104.68"/>
      <point x="99" y="1109.73" type="curve" smooth="yes"/>
      <point x="99" y="1175.28"/>
      <point x="121.769" y="1554"/>
      <point x="429.328" y="1554" type="curve" smooth="yes"/>
      <point x="851.638" y="1554"/>
      <point x="897.338" y="1214.37"/>
      <point x="897.338" y="1070" type="curve" smooth="yes"/>
      <point x="897.338" y="1067.09"/>
      <point x="897.385" y="1064"/>
    </contour>
  </outline>
</glyph>
<glyph name="ampersand" format="1">
  <advance width="1626"/>
  <unicode hex="0026"/>
  <outline>
    <contour>
      <point x="1466.42" y="1005.04" type="curve"/>
      <point x="1501.62" y="999.481"/>
      <point x="1648" y="987.513"/>
      <point x="1648" y="847" type="curve" smooth="yes"/>
      <point x="1648" y="696.857"/>
      <point x="1480.66" y="689.128"/>
      <point x="1431.76" y="688.537" type="curve"/>
      <point x="1431.27" y="680.079"/>
      <point x="1430.82" y="673.25"/>
      <point x="1430.37" y="667.129" type="curve"/>
      <point x="1432.4" y="653.171"/>
      <point x="1432" y="648.377"/>
      <point x="1432" y="644" type="curve" smooth="yes"/>
      <point x="1432" y="577.312"/>
      <point x="1395.43" y="481.303"/>
      <point x="1358.8" y="398.162" type="curve"/>
      <point x="1370.14" y="395.39"/>
      <point x="1381.04" y="394"/>
      <point x="1392" y="394" type="curve" smooth="yes"/>
      <point x="1415.29" y="394"/>
      <point x="1452.23" y="400"/>
      <point x="1499" y="400" type="curve" smooth="yes"/>
      <point x="1528.68" y="400" type="line"/>
      <point x="1651" y="323.197" type="line"/>
      <point x="1651" y="267" type="line" smooth="yes"/>
      <point x="1651" y="102.683"/>
      <point x="1476.2" y="96.9681"/>
      <point x="1423.62" y="96.9681" type="curve" smooth="yes"/>
      <point x="1419.69" y="96.9681"/>
      <point x="1416.44" y="97"/>
      <point x="1414" y="97" type="curve" smooth="yes"/>
      <point x="1304.52" y="97"/>
      <point x="1210.36" y="132.139"/>
      <point x="1116.18" y="168.096" type="curve"/>
      <point x="965.596" y="122.647"/>
      <point x="817.397" y="96"/>
      <point x="634" y="96" type="curve" smooth="yes"/>
      <point x="254.603" y="96"/>
      <point x="9" y="300.487"/>
      <point x="9" y="534" type="curve" smooth="yes"/>
      <point x="9" y="800.617"/>
      <point x="118.777" y="965.089"/>
      <point x="315.161" y="1164.18" type="curve"/>
      <point x="307.728" y="1232.6"/>
      <point x="287" y="1311.87"/>
      <point x="287" y="1406" type="curve" smooth="yes"/>
      <point x="287" y="1576" type="line" smooth="yes"/>
      <point x="287" y="1679"/>
      <point x="368.44" y="1830"/>
      <point x="579" y="1830" type="curve" smooth="yes"/>
      <point x="699.398" y="1830"/>
      <point x="997.529" y="1821.65"/>
      <point x="1051.22" y="1639.4" type="curve" smooth="yes"/>
      <point x="1054.04" y="1628.11"/>
      <point x="1057" y="1617.11"/>
      <point x="1057" y="1600" type="curve" smooth="yes"/>
      <point x="1057" y="1555.86"/>
      <point x="1047.56" y="1519.85"/>
      <point x="1044.86" y="1503.26" type="curve"/>
      <point x="1097.12" y="1451" type="line"/>
      <point x="1025.37" y="1379.25" type="line"/>
      <point x="947.672" y="1298.91"/>
      <point x="766.917" y="1131.53"/>
      <point x="728.78" y="1075.95" type="curve"/>
      <point x="750.752" y="990.069"/>
      <point x="926.523" y="690.213"/>
      <point x="1057.23" y="560.556" type="curve"/>
      <point x="1084.45" y="607.431"/>
      <point x="1099.2" y="655.051"/>
      <point x="1106.11" y="703.913" type="curve"/>
      <point x="1078.17" y="713.85"/>
      <point x="1051.31" y="728.655"/>
      <point x="1027.98" y="752.924" type="curve" smooth="yes"/>
      <point x="1000" y="782.898" type="line"/>
      <point x="1000" y="977" type="line"/>
      <point x="1102" y="977" type="line" smooth="yes"/>
      <point x="1211.4" y="977"/>
      <point x="1386.86" y="984.245"/>
    </contour>
    <contour>
      <point x="428.541" y="794.059" type="curve"/>
      <point x="363.318" y="717.057"/>
      <point x="338" y="641.962"/>
      <point x="338" y="569" type="curve" smooth="yes"/>
      <point x="338" y="513.346"/>
      <point x="386.778" y="384"/>
      <point x="674" y="384" type="curve" smooth="yes"/>
      <point x="691.795" y="384"/>
      <point x="721.018" y="385.988"/>
      <point x="750.404" y="389.145" type="curve"/>
      <point x="605.182" y="513.475"/>
      <point x="501.482" y="647.077"/>
    </contour>
  </outline>
</glyph>
<glyph name="quotesingle" format="1">
  <advance width="425"/>
  <unicode hex="0027"/>
  <outline>
    <contour>
      <point x="219" y="1680" type="curve" smooth="yes"/>
      <point x="323.426" y="1680"/>
      <point x="367.721" y="1605.61"/>
      <point x="392" y="1554.5" type="curve"/>
      <point x="392" y="1525" type="line" smooth="yes"/>
      <point x="392" y="1509.53"/>
      <point x="388.016" y="1494.06"/>
      <point x="385.688" y="1487.51" type="curve"/>
      <point x="383.183" y="1414.64"/>
      <point x="378.475" y="1091"/>
      <point x="187" y="1091" type="curve" smooth="yes"/>
      <point x="177.024" y="1091"/>
      <point x="167.025" y="1092.5"/>
      <point x="157.619" y="1095.4" type="curve" smooth="yes"/>
      <point x="48.0138" y="1129.26"/>
      <point x="37.1491" y="1310.4"/>
      <point x="37.1491" y="1423.04" type="curve" smooth="yes"/>
      <point x="37.1491" y="1450.89"/>
      <point x="37.8134" y="1474.55"/>
      <point x="37.8134" y="1490.76" type="curve" smooth="yes"/>
      <point x="37.8134" y="1508.94"/>
      <point x="38" y="1523.3"/>
      <point x="38" y="1531" type="curve" smooth="yes"/>
      <point x="38" y="1664.32"/>
      <point x="181.264" y="1680"/>
    </contour>
  </outline>
</glyph>
<glyph name="parenleft" format="1">
  <advance width="612"/>
  <unicode hex="0028"/>
  <outline>
    <contour>
      <point x="559.992" y="1649.11" type="line"/>
      <point x="555.603" y="1367.16"/>
      <point x="347.896" y="1105.7"/>
      <point x="347" y="879.898" type="curve" smooth="yes"/>
      <point x="347" y="486.002"/>
      <point x="544.029" y="53.9435"/>
      <point x="655.307" y="-285.638" type="curve"/>
      <point x="669.053" y="-324.912" type="line"/>
      <point x="650.753" y="-363.546" type="line"/>
      <point x="620.067" y="-423.457"/>
      <point x="557.031" y="-463"/>
      <point x="484" y="-463" type="curve" smooth="yes"/>
      <point x="74.37" y="-463"/>
      <point x="10" y="754.966"/>
      <point x="10" y="881" type="curve" smooth="yes"/>
      <point x="10" y="961.762"/>
      <point x="65.0652" y="1753"/>
      <point x="399" y="1753" type="curve" smooth="yes"/>
      <point x="561.99" y="1753" type="line"/>
    </contour>
  </outline>
</glyph>
<glyph name="parenright" format="1">
  <advance width="634"/>
  <unicode hex="0029"/>
  <outline>
    <contour>
      <point x="132" y="-405" type="curve" smooth="yes"/>
      <point x="77.0975" y="-405"/>
      <point x="-40" y="-373.126"/>
      <point x="-40" y="-255" type="curve" smooth="yes"/>
      <point x="-40" y="-145.374"/>
      <point x="77.8934" y="-33.1729"/>
      <point x="85.9397" y="-19.3154" type="curve" smooth="yes"/>
      <point x="205.865" y="185.597"/>
      <point x="298" y="584.825"/>
      <point x="298" y="815" type="curve" smooth="yes"/>
      <point x="298" y="1040.47"/>
      <point x="84" y="1351.8"/>
      <point x="84" y="1610" type="curve" smooth="yes"/>
      <point x="84" y="1723" type="line"/>
      <point x="234" y="1723" type="line" smooth="yes"/>
      <point x="580.145" y="1723"/>
      <point x="611.479" y="927.366"/>
      <point x="628.401" y="852.67" type="curve"/>
      <point x="635" y="837.823" type="line"/>
      <point x="635" y="815" type="line" smooth="yes"/>
      <point x="635" y="688.077"/>
      <point x="506.974" y="-405"/>
    </contour>
  </outline>
</glyph>
<glyph name="asterisk" format="1">
  <advance width="1417"/>
  <unicode hex="002A"/>
  <outline>
    <contour>
      <point x="45" y="1300" type="line"/>
      <point x="302.716" y="1300" type="line"/>
      <point x="140.335" y="1530.61" type="line"/>
      <point x="373.26" y="1676.76" type="line"/>
      <point x="650.688" y="1400.31" type="line"/>
      <point x="958.005" y="1694.95" type="line"/>
      <point x="1209.59" y="1541.93" type="line"/>
      <point x="1032.55" y="1296" type="line"/>
      <point x="1245.73" y="1296" type="line"/>
      <point x="1343" y="1172.69" type="line"/>
      <point x="1343" y="983" type="line"/>
      <point x="1032.24" y="983" type="line"/>
      <point x="1241.31" y="726.015" type="line"/>
      <point x="972.754" y="561.086" type="line"/>
      <point x="683.364" y="861.122" type="line"/>
      <point x="444.772" y="595" type="line"/>
      <point x="303.17" y="595" type="line"/>
      <point x="132.536" y="712.218" type="line"/>
      <point x="331.544" y="994" type="line"/>
      <point x="98.1316" y="994" type="line"/>
      <point x="45" y="1130.42" type="line"/>
    </contour>
  </outline>
</glyph>
<glyph name="plus" format="1">
  <advance width="971"/>
  <unicode hex="002B"/>
  <outline>
    <contour>
      <point x="294" y="497" type="line"/>
      <point x="20.9053" y="497" type="line"/>
      <point x="98.0428" y="810" type="line"/>
      <point x="294" y="810" type="line"/>
      <point x="294" y="965.305" type="line"/>
      <point x="431.826" y="1070" type="line"/>
      <point x="646" y="1070" type="line"/>
      <point x="646" y="803" type="line"/>
      <point x="884" y="803" type="line"/>
      <point x="884" y="489" type="line"/>
      <point x="659.731" y="489" type="line"/>
      <point x="678.582" y="337.336" type="line"/>
      <point x="483.799" y="213.006" type="line"/>
      <point x="294" y="327.16" type="line"/>
    </contour>
  </outline>
</glyph>
<glyph name="hyphen" format="1">
  <advance width="856"/>
  <unicode hex="002D"/>
  <outline>
    <contour>
      <point x="734" y="614.878" type="line"/>
      <point x="51" y="560.803" type="line"/>
      <point x="51" y="854.122" type="line"/>
      <point x="734" y="908.197" type="line"/>
    </contour>
  </outline>
</glyph>
<glyph name="period" format="1">
  <advance width="492"/>
  <unicode hex="002E"/>
  <outline>
    <contour>
      <point x="46" y="37" type="curve" smooth="yes"/>
      <point x="46" y="155.384"/>
      <point x="158.048" y="218"/>
      <point x="248" y="218" type="curve" smooth="yes"/>
      <point x="339.913" y="218"/>
      <point x="445" y="151.786"/>
      <point x="445" y="39" type="curve" smooth="yes"/>
      <point x="445" y="-93.907"/>
      <point x="317.227" y="-138"/>
      <point x="238" y="-138" type="curve" smooth="yes"/>
      <point x="146.972" y="-138"/>
      <point x="46" y="-73.2695"/>
    </contour>
  </outline>
</glyph>
<glyph name="slash" format="1">
  <advance width="744"/>
  <unicode hex="002F"/>
  <outline>
    <contour>
      <point x="-87.8437" y="-51.8061" type="line"/>
      <point x="474.373" y="1654.92" type="line"/>
      <point x="794.867" y="1575.16" type="line"/>
      <point x="213.691" y="-163.052" type="line"/>
    </contour>
  </outline>
</glyph>
<glyph name="zero" format="1">
  <advance width="1367"/>
  <unicode hex="0030"/>
  <outline>
    <contour>
      <point x="137.003" y="751.898" type="curve" smooth="yes"/>
      <point x="137.003" y="1156.04" type="line" smooth="yes"/>
      <point x="137.003" y="1326.33"/>
      <point x="172.485" y="1563"/>
      <point x="530.535" y="1563" type="curve" smooth="yes"/>
      <point x="1265.49" y="1563"/>
      <point x="1269.03" y="782.265"/>
      <point x="1269.03" y="519.906" type="curve" smooth="yes"/>
      <point x="1269.03" y="507.384"/>
      <point x="1269" y="495.802"/>
      <point x="1269" y="485.3" type="curve" smooth="yes"/>
      <point x="1269" y="363.479"/>
      <point x="1265.1" y="-95"/>
      <point x="732.735" y="-95" type="curve" smooth="yes"/>
      <point x="143.195" y="-95"/>
      <point x="137" y="610.805"/>
      <point x="137" y="744.117" type="curve" smooth="yes"/>
      <point x="137" y="746.979"/>
      <point x="137.003" y="749.577"/>
    </contour>
    <contour>
      <point x="543.619" y="688" type="curve" smooth="yes"/>
      <point x="543.619" y="533.263"/>
      <point x="631.537" y="100.807"/>
      <point x="786.075" y="100" type="curve"/>
      <point x="832.589" y="110.136"/>
      <point x="927.799" y="371.745"/>
      <point x="927.799" y="466" type="curve" smooth="yes"/>
      <point x="927.799" y="701.525"/>
      <point x="788.461" y="1254"/>
      <point x="530.535" y="1254" type="curve" smooth="yes"/>
      <point x="472.057" y="1254"/>
      <point x="467.32" y="1241.36"/>
      <point x="467.32" y="1237.26" type="curve" smooth="yes"/>
      <point x="467.32" y="1131.36"/>
      <point x="488.906" y="1014.55"/>
      <point x="488.906" y="888" type="curve" smooth="yes"/>
      <point x="488.906" y="869.043"/>
      <point x="543.619" y="790.426"/>
    </contour>
  </outline>
</glyph>
<glyph name="one" format="1">
  <advance width="1095"/>
  <unicode hex="0031"/>
  <outline>
    <contour>
      <point x="918" y="-18" type="line"/>
      <point x="230" y="-18" type="line"/>
      <point x="230" y="295" type="line"/>
      <point x="395.227" y="295" type="line"/>
      <point x="297.493" y="1288" type="line"/>
      <point x="82" y="1288" type="line"/>
      <point x="82" y="1571" type="line"/>
      <point x="443.676" y="1571" type="line"/>
      <point x="696.452" y="1519.77" type="line"/>
      <point x="758.798" y="1052.1" type="line"/>
      <point x="811.857" y="268.603" type="line"/>
      <point x="918" y="268.603" type="line"/>
    </contour>
  </outline>
</glyph>
<glyph name="two" format="1">
  <advance width="1169"/>
  <unicode hex="0032"/>
  <outline>
    <contour>
      <point x="116.276" y="85.7891" type="line" smooth="yes"/>
      <point x="121.605" y="94.1579"/>
      <point x="733.542" y="863.643"/>
      <point x="733.542" y="1159.04" type="curve" smooth="yes"/>
      <point x="733.542" y="1213.36"/>
      <point x="712.63" y="1282.38"/>
      <point x="685.499" y="1303.03" type="curve"/>
      <point x="683.456" y="1296.38"/>
      <point x="681.981" y="1288.53"/>
      <point x="681.138" y="1274.29" type="curve" smooth="yes"/>
      <point x="673.716" y="1182.6" type="line"/>
      <point x="378.323" y="1182.6" type="line"/>
      <point x="220.728" y="1240.03" type="line"/>
      <point x="220.728" y="1304.16" type="line" smooth="yes"/>
      <point x="220.728" y="1388.81"/>
      <point x="268.275" y="1519.01"/>
      <point x="445.794" y="1568.02" type="curve"/>
      <point x="445.794" y="1587" type="line"/>
      <point x="605.239" y="1587" type="line" smooth="yes"/>
      <point x="1075.55" y="1587"/>
      <point x="1086.73" y="1265.22"/>
      <point x="1086.73" y="1126.85" type="curve" smooth="yes"/>
      <point x="1086.73" y="757.776"/>
      <point x="884.574" y="443.66"/>
      <point x="656.388" y="180.947" type="curve"/>
      <point x="1044.73" y="196.632" type="line"/>
      <point x="1044.73" y="-98" type="line"/>
      <point x="215.279" y="-98" type="line"/>
      <point x="78" y="17.4492" type="line"/>
    </contour>
  </outline>
</glyph>
<glyph name="three" format="1">
  <advance width="1093"/>
  <unicode hex="0033"/>
  <outline>
    <contour>
      <point x="309" y="895.711" type="line"/>
      <point x="317.379" y="907.305" type="line"/>
      <point x="365.889" y="962.422"/>
      <point x="438.217" y="1087.2"/>
      <point x="438.217" y="1183.71" type="curve" smooth="yes"/>
      <point x="438.217" y="1271.14"/>
      <point x="412.309" y="1281"/>
      <point x="345.647" y="1281" type="curve" smooth="yes"/>
      <point x="319.537" y="1281"/>
      <point x="282.702" y="1274.9"/>
      <point x="231.458" y="1253.86" type="curve" smooth="yes"/>
      <point x="91" y="1195.67" type="line"/>
      <point x="91" y="1461.88" type="line"/>
      <point x="140.791" y="1491.75" type="line" smooth="yes"/>
      <point x="208.857" y="1532.37"/>
      <point x="278.515" y="1555"/>
      <point x="351.343" y="1555" type="curve" smooth="yes"/>
      <point x="724.322" y="1555"/>
      <point x="833" y="1276.09"/>
      <point x="833" y="1089.03" type="curve" smooth="yes"/>
      <point x="833" y="1024.63"/>
      <point x="820.796" y="960.367"/>
      <point x="793.693" y="903.003" type="curve"/>
      <point x="851.178" y="765.277"/>
      <point x="925" y="549.001"/>
      <point x="925" y="355.302" type="curve" smooth="yes"/>
      <point x="925" y="177.001"/>
      <point x="840.683" y="-28"/>
      <point x="523.666" y="-28" type="curve" smooth="yes"/>
      <point x="439.079" y="-28"/>
      <point x="346.896" y="-16.9033"/>
      <point x="273.44" y="4.12207" type="curve" smooth="yes"/>
      <point x="179.202" y="32.1934" type="line"/>
      <point x="252.344" y="312.312" type="line"/>
      <point x="363.703" y="278.53" type="line"/>
      <point x="425.572" y="264.666"/>
      <point x="474.018" y="259"/>
      <point x="503.728" y="259" type="curve" smooth="yes"/>
      <point x="582.609" y="259"/>
      <point x="604.842" y="267.791"/>
      <point x="604.842" y="364.474" type="curve" smooth="yes"/>
      <point x="604.842" y="472.462"/>
      <point x="527.147" y="635.092"/>
      <point x="470.822" y="746.359" type="curve"/>
      <point x="309" y="746.359" type="line"/>
    </contour>
  </outline>
</glyph>
<glyph name="four" format="1">
  <advance width="1204"/>
  <unicode hex="0034"/>
  <outline>
    <contour>
      <point x="624.238" y="1464.41" type="line"/>
      <point x="584.549" y="1203.34" type="line"/>
      <point x="728.064" y="1261.34" type="line"/>
      <point x="938.119" y="1172.36" type="line"/>
      <point x="984.705" y="699.93" type="line"/>
      <point x="991.514" y="699.93" type="line"/>
      <point x="1268.91" y="573.104" type="line"/>
      <point x="1010" y="434.927" type="line"/>
      <point x="1044.3" y="81.7617" type="line"/>
      <point x="831.01" y="-86.2695" type="line"/>
      <point x="565.829" y="90.8057" type="line"/>
      <point x="565.829" y="389" type="line"/>
      <point x="331.902" y="389" type="line"/>
      <point x="107" y="427.393" type="line"/>
      <point x="173.41" y="1068.85" type="line"/>
      <point x="173.41" y="1458.85" type="line"/>
      <point x="310.876" y="1557.29" type="line"/>
      <point x="319.487" y="1554.19"/>
      <point x="328.098" y="1551.08"/>
      <point x="336.709" y="1547.98" type="curve" smooth="yes"/>
    </contour>
    <contour>
      <point x="514.096" y="678" type="line"/>
      <point x="511.322" y="721.07" type="line"/>
      <point x="505.158" y="678" type="line"/>
    </contour>
  </outline>
</glyph>
<glyph name="five" format="1">
  <advance width="1168"/>
  <unicode hex="0035"/>
  <outline>
    <contour>
      <point x="667.325" y="1023.88" type="curve" smooth="yes"/>
      <point x="1061.4" y="940.242"/>
      <point x="1083.55" y="652.868"/>
      <point x="1083.55" y="462.181" type="curve" smooth="yes"/>
      <point x="1083.55" y="261.422"/>
      <point x="1028.79" y="85.7598"/>
      <point x="799.252" y="10.4844" type="curve"/>
      <point x="795.859" y="9.56641" type="line"/>
      <point x="617.102" y="-22.5003"/>
      <point x="398.371" y="-36"/>
      <point x="231.555" y="-36" type="curve" smooth="yes"/>
      <point x="129.555" y="-36" type="line"/>
      <point x="129.555" y="290.757" type="line"/>
      <point x="241.091" y="280.798" type="line" smooth="yes"/>
      <point x="296.793" y="275.824"/>
      <point x="348.21" y="272"/>
      <point x="398.251" y="272" type="curve" smooth="yes"/>
      <point x="476.664" y="272"/>
      <point x="543.636" y="274.877"/>
      <point x="591.345" y="281.436" type="curve" smooth="yes"/>
      <point x="700.326" y="295.788"/>
      <point x="729.565" y="305.627"/>
      <point x="729.565" y="405.538" type="curve" smooth="yes"/>
      <point x="729.565" y="479.962"/>
      <point x="650.916" y="747.98"/>
      <point x="585.831" y="813.572" type="curve"/>
      <point x="299.482" y="813.572" type="line"/>
      <point x="164.957" y="955.492" type="line"/>
      <point x="90" y="1496.48" type="line"/>
      <point x="211.729" y="1574" type="line"/>
      <point x="867.712" y="1574" type="line"/>
      <point x="932.752" y="1273" type="line"/>
      <point x="498.534" y="1273" type="line"/>
      <point x="555.675" y="1036.32" type="line"/>
      <point x="596.218" y="1032.9"/>
      <point x="631.149" y="1030.59"/>
    </contour>
  </outline>
</glyph>
<glyph name="six" format="1">
  <advance width="1264"/>
  <unicode hex="0036"/>
  <outline>
    <contour>
      <point x="830.847" y="313" type="curve" smooth="yes"/>
      <point x="830.847" y="434.505"/>
      <point x="725.089" y="842.415"/>
      <point x="501.578" y="878.762" type="curve"/>
      <point x="492.496" y="876.354"/>
      <point x="485.726" y="874.366"/>
      <point x="480.932" y="872.868" type="curve" smooth="yes"/>
      <point x="480.939" y="871.868"/>
      <point x="480.941" y="872"/>
      <point x="480.941" y="871" type="curve" smooth="yes"/>
      <point x="480.941" y="693.664"/>
      <point x="552.915" y="276"/>
      <point x="796.59" y="276" type="curve" smooth="yes"/>
      <point x="822.774" y="276"/>
      <point x="826.174" y="280.118"/>
      <point x="826.174" y="280.118" type="curve" smooth="yes"/>
      <point x="826.281" y="280.229"/>
      <point x="830.847" y="290.574"/>
    </contour>
    <contour>
      <point x="503.386" y="1003.42" type="curve"/>
      <point x="1174.39" y="974.787"/>
      <point x="1176" y="411.056"/>
      <point x="1176" y="294.322" type="curve" smooth="yes"/>
      <point x="1176" y="188.404"/>
      <point x="1141.08" y="25.9707"/>
      <point x="887.126" y="-6.98438" type="curve"/>
      <point x="887.126" y="-15" type="line"/>
      <point x="736.641" y="-15" type="line" smooth="yes"/>
      <point x="137.971" y="-15"/>
      <point x="126" y="483.826"/>
      <point x="126" y="718.282" type="curve" smooth="yes"/>
      <point x="126" y="779.863"/>
      <point x="127" y="831.796"/>
      <point x="127" y="872.46" type="curve" smooth="yes"/>
      <point x="127" y="877.265"/>
      <point x="126.982" y="882.896"/>
      <point x="126.982" y="889.219" type="curve" smooth="yes"/>
      <point x="126.982" y="1028.46"/>
      <point x="133.948" y="1586"/>
      <point x="758.664" y="1586" type="curve" smooth="yes"/>
      <point x="909.148" y="1586" type="line"/>
      <point x="909.148" y="1291" type="line"/>
      <point x="758.664" y="1291" type="line" smooth="yes"/>
      <point x="649.155" y="1291"/>
      <point x="547.984" y="1154.5"/>
    </contour>
  </outline>
</glyph>
<glyph name="seven" format="1">
  <advance width="918"/>
  <unicode hex="0037"/>
  <outline>
    <contour>
      <point x="129.144" y="1295" type="line"/>
      <point x="129.144" y="1590" type="line"/>
      <point x="780.91" y="1590" type="line"/>
      <point x="900.754" y="1464.39" type="line"/>
      <point x="486.339" y="-10" type="line"/>
      <point x="253.905" y="-10" type="line"/>
      <point x="99" y="63.168" type="line"/>
      <point x="463.041" y="1295" type="line"/>
    </contour>
  </outline>
</glyph>
<glyph name="eight" format="1">
  <advance width="1243"/>
  <unicode hex="0038"/>
  <outline>
    <contour>
      <point x="525.134" y="1308.95" type="curve"/>
      <point x="520.38" y="1326.28"/>
      <point x="489.445" y="1388.58"/>
      <point x="468.47" y="1414.64" type="curve"/>
      <point x="459.605" y="1409.28"/>
      <point x="454.848" y="1405.41"/>
      <point x="451.547" y="1402.45" type="curve"/>
      <point x="455.163" y="1363.61"/>
      <point x="477.008" y="1290.41"/>
      <point x="510.152" y="1219.26" type="curve"/>
      <point x="519.921" y="1250.47"/>
      <point x="524.798" y="1280.72"/>
    </contour>
    <contour>
      <point x="821.714" y="191" type="curve" smooth="yes"/>
      <point x="821.714" y="322.626"/>
      <point x="735.299" y="467.337"/>
      <point x="599.901" y="617.701" type="curve"/>
      <point x="552.755" y="493.687"/>
      <point x="534.273" y="345.931"/>
      <point x="533.672" y="245.993" type="curve"/>
      <point x="546.29" y="223.819"/>
      <point x="612.84" y="166.837"/>
      <point x="632.046" y="159.01" type="curve"/>
      <point x="783.49" y="159.676"/>
      <point x="819.434" y="183.153"/>
      <point x="821.262" y="184.894" type="curve" smooth="yes"/>
      <point x="821.413" y="185.459"/>
      <point x="821.714" y="187.3"/>
    </contour>
    <contour>
      <point x="560.844" y="1607" type="line"/>
      <point x="977.424" y="1534.05"/>
      <point x="1048" y="1425.47"/>
      <point x="1048" y="1252.36" type="curve" smooth="yes"/>
      <point x="1048" y="1108.29"/>
      <point x="981.563" y="976.853"/>
      <point x="914.229" y="861.356" type="curve"/>
      <point x="1082.65" y="657.761"/>
      <point x="1165" y="400.901"/>
      <point x="1165" y="190.531" type="curve" smooth="yes"/>
      <point x="1165" y="173.656"/>
      <point x="1162.92" y="153.692"/>
      <point x="1157" y="133.373" type="curve"/>
      <point x="1157" y="112.032" type="line"/>
      <point x="1077.57" y="-11.6285"/>
      <point x="968.433" y="-82"/>
      <point x="618.738" y="-82" type="curve" smooth="yes"/>
      <point x="306.397" y="-82"/>
      <point x="199.685" y="54.1826"/>
      <point x="169.711" y="166.965" type="curve"/>
      <point x="157" y="166.965" type="line"/>
      <point x="157" y="260.326" type="line" smooth="yes"/>
      <point x="157" y="470.047"/>
      <point x="217.975" y="671.561"/>
      <point x="274.107" y="843.247" type="curve"/>
      <point x="224.95" y="933.644"/>
      <point x="98" y="1170.73"/>
      <point x="98" y="1347.66" type="curve" smooth="yes"/>
      <point x="98" y="1464.6"/>
      <point x="186.622" y="1607"/>
      <point x="395.1" y="1607" type="curve" smooth="yes"/>
    </contour>
  </outline>
</glyph>
<glyph name="nine" format="1">
  <advance width="1006"/>
  <unicode hex="0039"/>
  <outline>
    <contour>
      <point x="494.122" y="1147.04" type="line"/>
      <point x="496.785" y="1203.71"/>
      <point x="498.192" y="1259.99"/>
      <point x="498.752" y="1314.15" type="curve"/>
      <point x="480.296" y="1272.17"/>
      <point x="468.687" y="1223.91"/>
      <point x="468.517" y="1196.12" type="curve" smooth="yes"/>
      <point x="468.604" y="1193.91"/>
      <point x="470.731" y="1179.9"/>
      <point x="472.902" y="1171.25" type="curve"/>
      <point x="491.34" y="1159.18" type="line"/>
    </contour>
    <contour>
      <point x="506.699" y="1614" type="curve" smooth="yes"/>
      <point x="774.87" y="1614"/>
      <point x="875" y="1504.92"/>
      <point x="875" y="1348.44" type="curve" smooth="yes"/>
      <point x="875" y="993.501"/>
      <point x="843" y="643.139"/>
      <point x="843" y="299.367" type="curve" smooth="yes"/>
      <point x="843" y="236.722"/>
      <point x="826" y="187.787"/>
      <point x="826" y="169.41" type="curve" smooth="yes"/>
      <point x="826" y="164.076"/>
      <point x="827" y="149.532"/>
      <point x="827" y="132.684" type="curve" smooth="yes"/>
      <point x="827" y="80.5381"/>
      <point x="794.204" y="-34"/>
      <point x="651" y="-34" type="curve" smooth="yes"/>
      <point x="615.409" y="-34" type="line"/>
      <point x="380.03" y="58.1094" type="line"/>
      <point x="434.345" y="131.004" type="line"/>
      <point x="460.425" y="170.118"/>
      <point x="485.318" y="541.987"/>
      <point x="485.318" y="697.712" type="curve" smooth="yes"/>
      <point x="485.318" y="746.138"/>
      <point x="482.395" y="794.37"/>
      <point x="479.704" y="841.079" type="curve"/>
      <point x="247.491" y="891.028"/>
      <point x="88" y="1013.21"/>
      <point x="88" y="1192.11" type="curve" smooth="yes"/>
      <point x="88" y="1299.43"/>
      <point x="121.575" y="1614"/>
    </contour>
  </outline>
</glyph>
<glyph name="colon" format="1">
  <advance width="472"/>
  <unicode hex="003A"/>
  <outline>
    <contour>
      <point x="58" y="1024" type="curve" smooth="yes"/>
      <point x="58" y="1139.59"/>
      <point x="166.947" y="1205"/>
      <point x="259" y="1205" type="curve" smooth="yes"/>
      <point x="350.913" y="1205"/>
      <point x="456" y="1138.79"/>
      <point x="456" y="1026" type="curve" smooth="yes"/>
      <point x="456" y="893.093"/>
      <point x="328.227" y="849"/>
      <point x="249" y="849" type="curve" smooth="yes"/>
      <point x="156.178" y="849"/>
      <point x="58" y="915.568"/>
    </contour>
    <contour>
      <point x="31" y="250" type="curve" smooth="yes"/>
      <point x="31" y="368.384"/>
      <point x="143.048" y="431"/>
      <point x="233" y="431" type="curve" smooth="yes"/>
      <point x="326.681" y="431"/>
      <point x="429" y="362.994"/>
      <point x="429" y="252" type="curve" smooth="yes"/>
      <point x="429" y="121.795"/>
      <point x="304.358" y="75"/>
      <point x="223" y="75" type="curve" smooth="yes"/>
      <point x="131.972" y="75"/>
      <point x="31" y="139.73"/>
    </contour>
  </outline>
</glyph>
<glyph name="semicolon" format="1">
  <advance width="543"/>
  <unicode hex="003B"/>
  <outline>
    <contour>
      <point x="172" y="-113" type="curve" smooth="yes"/>
      <point x="127.779" y="-113"/>
      <point x="15" y="-84.7431"/>
      <point x="15" y="27" type="curve" smooth="yes"/>
      <point x="15" y="103.246" type="line"/>
      <point x="56.8753" y="133.156" type="line" smooth="yes"/>
      <point x="75.6597" y="147.152"/>
      <point x="93.6307" y="158.229"/>
      <point x="110.418" y="168.815" type="curve"/>
      <point x="90.9786" y="198.857"/>
      <point x="79" y="232.098"/>
      <point x="79" y="272" type="curve" smooth="yes"/>
      <point x="79" y="420.856"/>
      <point x="236.974" y="461"/>
      <point x="312" y="461" type="curve" smooth="yes"/>
      <point x="428.491" y="461"/>
      <point x="532" y="374.853"/>
      <point x="532" y="258" type="curve" smooth="yes"/>
      <point x="532" y="117.286"/>
      <point x="382.721" y="-113"/>
    </contour>
    <contour>
      <point x="125" y="1025" type="curve" smooth="yes"/>
      <point x="125" y="1140.59"/>
      <point x="233.947" y="1206"/>
      <point x="326" y="1206" type="curve" smooth="yes"/>
      <point x="417.913" y="1206"/>
      <point x="523" y="1139.79"/>
      <point x="523" y="1027" type="curve" smooth="yes"/>
      <point x="523" y="894.093"/>
      <point x="395.227" y="850"/>
      <point x="316" y="850" type="curve" smooth="yes"/>
      <point x="225.7" y="850"/>
      <point x="125" y="914.885"/>
    </contour>
  </outline>
</glyph>
<glyph name="less" format="1">
  <advance width="726"/>
  <unicode hex="003C"/>
  <outline>
    <contour>
      <point x="-29.3991" y="691.546" type="line"/>
      <point x="469.539" y="1581.81" type="line"/>
      <point x="713.254" y="1456.83" type="line"/>
      <point x="359.168" y="709.653" type="line"/>
      <point x="788.652" y="36.6265" type="line"/>
      <point x="606.873" y="-190.209" type="line"/>
    </contour>
  </outline>
</glyph>
<glyph name="equal" format="1">
  <advance width="1030"/>
  <unicode hex="003D"/>
  <outline>
    <contour>
      <point x="1009.8" y="974" type="line"/>
      <point x="998.669" y="765.738" type="line"/>
      <point x="976" y="748.453" type="line"/>
      <point x="976" y="477" type="line"/>
      <point x="53" y="477" type="line"/>
      <point x="53" y="782" type="line"/>
      <point x="55.3592" y="782" type="line"/>
      <point x="52.7256" y="834.146" type="line"/>
      <point x="82.8017" y="974" type="line"/>
    </contour>
  </outline>
</glyph>
<glyph name="greater" format="1">
  <advance width="758"/>
  <unicode hex="003E"/>
  <outline>
    <contour>
      <point x="286.213" y="1572.64" type="line"/>
      <point x="791.746" y="694.437" type="line"/>
      <point x="263.735" y="-121" type="line"/>
      <point x="111.269" y="-121" type="line"/>
      <point x="-48.9839" y="35.0723" type="line"/>
      <point x="398.592" y="704.411" type="line"/>
      <point x="-45.7861" y="1441.25" type="line"/>
    </contour>
  </outline>
</glyph>
<glyph name="question" format="1">
  <advance width="639"/>
  <unicode hex="003F"/>
  <outline>
    <contour>
      <point x="336" y="1236" type="curve" smooth="yes"/>
      <point x="336" y="1243.44"/>
      <point x="335.353" y="1252.84"/>
      <point x="334.97" y="1261" type="curve"/>
      <point x="152.836" y="1261" type="line"/>
      <point x="6" y="1321.95" type="line"/>
      <point x="6" y="1390" type="line" smooth="yes"/>
      <point x="6" y="1477.62"/>
      <point x="49.7257" y="1612.78"/>
      <point x="178" y="1667.52" type="curve"/>
      <point x="178" y="1689" type="line"/>
      <point x="280" y="1689" type="line" smooth="yes"/>
      <point x="661.225" y="1689"/>
      <point x="668" y="1343.63"/>
      <point x="668" y="1201" type="curve" smooth="yes"/>
      <point x="668" y="751.532"/>
      <point x="557.22" y="685.344"/>
      <point x="428.519" y="384.397" type="curve"/>
      <point x="278.518" y="182.803" type="line"/>
      <point x="324.879" y="152.413"/>
      <point x="359" y="103.267"/>
      <point x="359" y="39" type="curve" smooth="yes"/>
      <point x="359" y="-93.907"/>
      <point x="231.227" y="-138"/>
      <point x="152" y="-138" type="curve" smooth="yes"/>
      <point x="60.9724" y="-138"/>
      <point x="-40" y="-73.2695"/>
      <point x="-40" y="37" type="curve" smooth="yes"/>
      <point x="-40" y="142.305"/>
      <point x="48.6576" y="203.484"/>
      <point x="131.558" y="215.716" type="curve"/>
      <point x="44.9236" y="292.887" type="line"/>
      <point x="79.2963" y="361.632" type="line" smooth="yes"/>
      <point x="85.8424" y="375.113"/>
      <point x="336" y="909.28"/>
    </contour>
  </outline>
</glyph>
<glyph name="at" format="1">
  <advance width="1799"/>
  <unicode hex="0040"/>
  <outline>
    <contour>
      <point x="1425" y="304.008" type="line" smooth="yes"/>
      <point x="1424" y="304.003"/>
      <point x="1422.98" y="304"/>
      <point x="1422" y="304" type="curve" smooth="yes"/>
      <point x="1370.8" y="304"/>
      <point x="1325.76" y="312.263"/>
      <point x="1288.26" y="325.228" type="curve"/>
      <point x="1184.2" y="245.276"/>
      <point x="1027.08" y="204"/>
      <point x="849" y="204" type="curve" smooth="yes"/>
      <point x="386.873" y="204"/>
      <point x="384" y="671.105"/>
      <point x="384" y="844.586" type="curve" smooth="yes"/>
      <point x="384" y="851" type="line" smooth="yes"/>
      <point x="384" y="1033.6"/>
      <point x="392.67" y="1453"/>
      <point x="858" y="1453" type="curve" smooth="yes"/>
      <point x="1386.62" y="1453"/>
      <point x="1409.52" y="905.786"/>
      <point x="1432.16" y="657.845" type="curve"/>
      <point x="1440.81" y="688.152"/>
      <point x="1446.28" y="722.574"/>
      <point x="1448" y="747.677" type="curve"/>
      <point x="1448" y="776" type="line" smooth="yes"/>
      <point x="1448" y="1075.37"/>
      <point x="1345.63" y="1510"/>
      <point x="810" y="1510" type="curve" smooth="yes"/>
      <point x="385.764" y="1510"/>
      <point x="370" y="1267.06"/>
      <point x="370" y="999" type="curve" smooth="yes"/>
      <point x="370" y="847" type="line" smooth="yes"/>
      <point x="370" y="580.745"/>
      <point x="413.568" y="71"/>
      <point x="737" y="71" type="curve" smooth="yes"/>
      <point x="797.401" y="71"/>
      <point x="848.815" y="71.9968"/>
      <point x="893.69" y="73.9478" type="curve" smooth="yes"/>
      <point x="1210.24" y="88.8871"/>
      <point x="1186.74" y="141.384"/>
      <point x="1425" y="238.664" type="curve"/>
    </contour>
    <contour>
      <point x="1498.68" y="309.703" type="curve"/>
      <point x="1498.68" y="309.703"/>
      <point x="1499.07" y="309.496"/>
      <point x="1499.95" y="309.026" type="curve" smooth="yes"/>
      <point x="1728.18" y="187.627" type="line"/>
      <point x="1694.46" y="102.341" type="line" smooth="yes"/>
      <point x="1592.42" y="-156.444"/>
      <point x="1086.03" y="-222"/>
      <point x="753" y="-222" type="curve" smooth="yes"/>
      <point x="24.3121" y="-222"/>
      <point x="23.9941" y="670.854"/>
      <point x="23.9941" y="935.214" type="curve" smooth="yes"/>
      <point x="23.9941" y="942.554"/>
      <point x="24" y="949.494"/>
      <point x="24" y="956" type="curve" smooth="yes"/>
      <point x="24" y="1262.69"/>
      <point x="52.2709" y="1821"/>
      <point x="829" y="1821" type="curve" smooth="yes"/>
      <point x="1678.13" y="1821"/>
      <point x="1801" y="1158.16"/>
      <point x="1801" y="767" type="curve" smooth="yes"/>
      <point x="1801" y="663.645"/>
      <point x="1795.88" y="356.678"/>
    </contour>
    <contour>
      <point x="857.171" y="1144" type="line" smooth="yes"/>
      <point x="768.763" y="1143.4"/>
      <point x="747" y="1038.86"/>
      <point x="747" y="888" type="curve" smooth="yes"/>
      <point x="747" y="855" type="line" smooth="yes"/>
      <point x="747" y="645.695"/>
      <point x="769.502" y="512"/>
      <point x="881" y="512" type="curve" smooth="yes"/>
      <point x="936.12" y="512"/>
      <point x="1036.93" y="585.229"/>
      <point x="1064" y="620.436" type="curve"/>
      <point x="1064" y="759" type="line" smooth="yes"/>
      <point x="1064" y="886.471"/>
      <point x="989.833" y="1143.31"/>
      <point x="857.875" y="1144" type="curve" smooth="yes"/>
    </contour>
  </outline>
</glyph>
<glyph name="A" format="1">
  <advance width="1336"/>
  <unicode hex="0041"/>
  <outline>
    <contour>
      <point x="860" y="1152" type="line"/>
      <point x="652.372" y="555.946" type="line"/>
      <point x="845.39" y="539.355" type="line"/>
    </contour>
    <contour>
      <point x="592.313" y="361.135" type="line"/>
      <point x="432.113" y="0.65332" type="line"/>
      <point x="81" y="86.3701" type="line"/>
      <point x="656.759" y="1551.11" type="line"/>
      <point x="1107.83" y="1518.36" type="line"/>
      <point x="1279.42" y="41.1377" type="line"/>
      <point x="1188.45" y="22.9443" type="line" smooth="yes"/>
      <point x="1123.57" y="10.5859"/>
      <point x="1060.14" y="1.08789"/>
      <point x="957.681" y="-0.991211" type="curve" smooth="yes"/>
      <point x="819.823" y="-2.77832" type="line"/>
      <point x="819.823" y="335.317" type="line"/>
    </contour>
  </outline>
</glyph>
<glyph name="B" format="1">
  <advance width="1382"/>
  <unicode hex="0042"/>
  <outline>
    <contour>
      <point x="159" y="124.699" type="line" smooth="yes"/>
      <point x="159" y="277.445"/>
      <point x="172" y="423.92"/>
      <point x="172" y="566.688" type="curve" smooth="yes"/>
      <point x="172" y="805.633"/>
      <point x="154" y="1050.59"/>
      <point x="154" y="1297.71" type="curve" smooth="yes"/>
      <point x="154" y="1493.26" type="line"/>
      <point x="332.449" y="1537" type="line"/>
      <point x="931.882" y="1537"/>
      <point x="1228" y="1398.36"/>
      <point x="1228" y="1148.5" type="curve" smooth="yes"/>
      <point x="1228" y="1045.97"/>
      <point x="1078" y="880"/>
      <point x="913.115" y="862.499" type="curve"/>
      <point x="1138" y="812"/>
      <point x="1307" y="611.995"/>
      <point x="1307" y="459.71" type="curve" smooth="yes"/>
      <point x="1307" y="192.535"/>
      <point x="1034.16" y="-17"/>
      <point x="386" y="-17" type="curve"/>
      <point x="159" y="62.5566" type="line"/>
    </contour>
    <contour>
      <point x="855.731" y="412.465" type="curve" smooth="yes"/>
      <point x="855.731" y="541.074"/>
      <point x="666.098" y="684"/>
      <point x="542.54" y="684" type="curve"/>
      <point x="556.455" y="532.191"/>
      <point x="561.062" y="371.105"/>
      <point x="562.693" y="225.296" type="curve"/>
      <point x="779.693" y="255.328"/>
      <point x="855.731" y="331.026"/>
    </contour>
    <contour>
      <point x="512.795" y="1266.69" type="curve"/>
      <point x="520.347" y="1172.05"/>
      <point x="513.751" y="1051.47"/>
      <point x="539.454" y="966.173" type="curve"/>
      <point x="720.493" y="966.173"/>
      <point x="834.861" y="1068.19"/>
      <point x="834.861" y="1155.17" type="curve" smooth="yes"/>
      <point x="834.861" y="1219.78"/>
      <point x="771.74" y="1276.08"/>
      <point x="625.942" y="1276.08" type="curve" smooth="yes"/>
      <point x="592.622" y="1276.08"/>
      <point x="554.984" y="1273.14"/>
    </contour>
  </outline>
</glyph>
<glyph name="C" format="1">
  <advance width="1306"/>
  <unicode hex="0043"/>
  <outline>
    <contour>
      <point x="1045.89" y="1216" type="line" smooth="yes"/>
      <point x="500.74" y="1216"/>
      <point x="473.016" y="1164.43"/>
      <point x="473.016" y="962.545" type="curve" smooth="yes"/>
      <point x="473.016" y="939.686"/>
      <point x="473.371" y="914.899"/>
      <point x="473.371" y="888.042" type="curve" smooth="yes"/>
      <point x="473.371" y="801.055" type="line" smooth="yes"/>
      <point x="473.371" y="495.008"/>
      <point x="673.822" y="274.193"/>
      <point x="911.293" y="274.193" type="curve" smooth="yes"/>
      <point x="1014.32" y="274.193"/>
      <point x="1124.32" y="315.756"/>
      <point x="1227.93" y="409.955" type="curve"/>
      <point x="1313.24" y="142.687" type="line"/>
      <point x="1253.05" y="96.5391" type="line" smooth="yes"/>
      <point x="1139.74" y="9.37988"/>
      <point x="1003.35" y="-33"/>
      <point x="736.264" y="-33" type="curve" smooth="yes"/>
      <point x="601.898" y="-33" type="line"/>
      <point x="128.288" y="37.3945"/>
      <point x="114" y="510.994"/>
      <point x="114" y="790.771" type="curve" smooth="yes"/>
      <point x="114" y="872.658"/>
      <point x="117" y="947.236"/>
      <point x="117" y="1006.9" type="curve" smooth="yes"/>
      <point x="117" y="1330.89"/>
      <point x="207" y="1566"/>
      <point x="775.664" y="1566" type="curve" smooth="yes"/>
      <point x="1142.43" y="1566" type="line"/>
      <point x="1142.43" y="1216" type="line"/>
    </contour>
  </outline>
</glyph>
<glyph name="D" format="1">
  <advance width="1572"/>
  <unicode hex="0044"/>
  <outline>
    <contour>
      <point x="472.924" y="1553" type="line" smooth="yes"/>
      <point x="1440.82" y="1553"/>
      <point x="1466.51" y="1080.38"/>
      <point x="1484" y="861.225" type="curve"/>
      <point x="1484" y="857.559" type="line" smooth="yes"/>
      <point x="1484" y="548.067"/>
      <point x="1247.55" y="-4"/>
      <point x="366.855" y="-4" type="curve" smooth="yes"/>
      <point x="314.375" y="-4"/>
      <point x="142.122" y="7.30859"/>
      <point x="139.017" y="148.646" type="curve"/>
      <point x="96" y="1395.47" type="line" smooth="yes"/>
      <point x="96" y="1417.75"/>
      <point x="101.059" y="1436.75"/>
      <point x="110.384" y="1454.26" type="curve" smooth="yes"/>
      <point x="160.595" y="1548.5"/>
      <point x="282.817" y="1552.12"/>
      <point x="347.419" y="1552.66" type="curve" smooth="yes"/>
      <point x="367.197" y="1552.66"/>
      <point x="385.866" y="1553"/>
      <point x="405.22" y="1553" type="curve" smooth="yes"/>
    </contour>
    <contour>
      <point x="544.878" y="428.466" type="curve" smooth="yes"/>
      <point x="544.878" y="370.574"/>
      <point x="543.041" y="311.592"/>
      <point x="539.038" y="256.195" type="curve"/>
      <point x="956.229" y="401.002"/>
      <point x="1099.18" y="698.26"/>
      <point x="1099.18" y="854" type="curve" smooth="yes"/>
      <point x="1099.18" y="1093.61"/>
      <point x="1049.73" y="1294.57"/>
      <point x="489.091" y="1323.67" type="curve"/>
      <point x="499.224" y="1042.76"/>
      <point x="544.878" y="727.924"/>
    </contour>
  </outline>
</glyph>
<glyph name="E" format="1">
  <advance width="971"/>
  <unicode hex="0045"/>
  <outline>
    <contour>
      <point x="155" y="1533" type="line"/>
      <point x="808.72" y="1533" type="line"/>
      <point x="808.72" y="1219" type="line"/>
      <point x="537.758" y="1219" type="line"/>
      <point x="537.758" y="967.062" type="line"/>
      <point x="769.982" y="967.062" type="line"/>
      <point x="811.074" y="648" type="line"/>
      <point x="570.687" y="648" type="line"/>
      <point x="570.687" y="296.344" type="line"/>
      <point x="941.859" y="296.344" type="line"/>
      <point x="941.859" y="119.264" type="line"/>
      <point x="896.09" y="-12" type="line"/>
      <point x="362.108" y="-12" type="line"/>
      <point x="155" y="142.763" type="line"/>
    </contour>
  </outline>
</glyph>
<glyph name="F" format="1">
  <advance width="799"/>
  <unicode hex="0046"/>
  <outline>
    <contour>
      <point x="192.149" y="-22.8056" type="line"/>
      <point x="106.34" y="1459.78" type="line"/>
      <point x="380.494" y="1554" type="line"/>
      <point x="661.753" y="1554" type="line"/>
      <point x="661.753" y="1391.73" type="line"/>
      <point x="689.918" y="1236" type="line"/>
      <point x="461.154" y="1236" type="line"/>
      <point x="494.093" y="967.04" type="line"/>
      <point x="596" y="967.04" type="line"/>
      <point x="683.208" y="971.659" type="line"/>
      <point x="754.874" y="709.701" type="line"/>
      <point x="502.688" y="675.695" type="line"/>
      <point x="559.473" y="16.2461" type="line"/>
      <point x="368.556" y="15.8525" type="line"/>
    </contour>
  </outline>
</glyph>
<glyph name="G" format="1">
  <advance width="1764"/>
  <unicode hex="0047"/>
  <outline>
    <contour>
      <point x="843.723" y="20.7317" type="curve" smooth="yes"/>
      <point x="355.125" y="20.7317"/>
      <point x="113" y="387.08"/>
      <point x="113" y="717.182" type="curve" smooth="yes"/>
      <point x="113" y="753.129"/>
      <point x="112" y="800.423"/>
      <point x="112" y="851.833" type="curve" smooth="yes"/>
      <point x="112" y="1121.78"/>
      <point x="168.85" y="1591"/>
      <point x="985.658" y="1591" type="curve"/>
      <point x="1415.5" y="1556.64" type="line"/>
      <point x="1415.5" y="1220" type="line"/>
      <point x="825.082" y="1220"/>
      <point x="472.944" y="1206.73"/>
      <point x="472.944" y="748.142" type="curve" smooth="yes"/>
      <point x="472.944" y="675.928" type="line" smooth="yes"/>
      <point x="472.944" y="668.983"/>
      <point x="472.934" y="662.087"/>
      <point x="472.934" y="655.243" type="curve" smooth="yes"/>
      <point x="472.934" y="452.093"/>
      <point x="481.421" y="295"/>
      <point x="1002.23" y="295" type="curve" smooth="yes"/>
      <point x="1111.01" y="295"/>
      <point x="1194.03" y="307.759"/>
      <point x="1260.31" y="327.438" type="curve"/>
      <point x="1260.31" y="589.627" type="line"/>
      <point x="1159" y="587.17"/>
      <point x="1041.63" y="584.541"/>
      <point x="926.044" y="584.541" type="curve" smooth="yes"/>
      <point x="805.601" y="584.541" type="line"/>
      <point x="805.601" y="837.758" type="line"/>
      <point x="918.841" y="837.758" type="line"/>
      <point x="1085.88" y="833.779"/>
      <point x="1386.25" y="824"/>
      <point x="1491" y="824" type="curve" smooth="yes"/>
      <point x="1580.79" y="824" type="line"/>
      <point x="1580.79" y="-35" type="line"/>
      <point x="1312.73" y="-35" type="line"/>
      <point x="1252.73" y="94.4521" type="line"/>
      <point x="1101.2" y="43.2589"/>
      <point x="964.882" y="20.7317"/>
    </contour>
  </outline>
</glyph>
<glyph name="H" format="1">
  <advance width="1398"/>
  <unicode hex="0048"/>
  <outline>
    <contour>
      <point x="460.211" y="1566.68" type="line"/>
      <point x="460.211" y="1258" type="line"/>
      <point x="503.474" y="811.463" type="line"/>
      <point x="827.946" y="811.463" type="line"/>
      <point x="742.153" y="1554.54" type="line"/>
      <point x="1227.26" y="1554.54" type="line"/>
      <point x="1307.73" y="47.2508" type="line"/>
      <point x="945.279" y="47.2508" type="line"/>
      <point x="871.843" y="602.302" type="line"/>
      <point x="509.883" y="602.302" type="line"/>
      <point x="566.312" y="34.1387" type="line"/>
      <point x="222.904" y="-34.8936" type="line"/>
      <point x="193.55" y="75.4287" type="line"/>
      <point x="90.3408" y="1566.68" type="line"/>
    </contour>
  </outline>
</glyph>
<glyph name="I" format="1">
  <advance width="948"/>
  <unicode hex="0049"/>
  <outline>
    <contour>
      <point x="878.539" y="289.434" type="line"/>
      <point x="878.539" y="19" type="line"/>
      <point x="4.2207" y="19" type="line"/>
      <point x="4.2207" y="287.438" type="line"/>
      <point x="267.254" y="287.438" type="line"/>
      <point x="209.051" y="1247.89" type="line"/>
      <point x="39.8447" y="1248.56" type="line"/>
      <point x="3" y="1549.06" type="line"/>
      <point x="807.698" y="1569.27" type="line"/>
      <point x="809.062" y="1278.78" type="line"/>
      <point x="653.27" y="1278.78" type="line"/>
      <point x="715.432" y="289.434" type="line"/>
    </contour>
  </outline>
</glyph>
<glyph name="J" format="1">
  <advance width="930"/>
  <unicode hex="004A"/>
  <outline>
    <contour>
      <point x="286" y="-314" type="line"/>
      <point x="108" y="-79" type="line"/>
      <point x="278" y="28"/>
      <point x="340.651" y="110.682"/>
      <point x="340.651" y="266.492" type="curve"/>
      <point x="270.272" y="1226.8" type="line"/>
      <point x="68" y="1226.8" type="line"/>
      <point x="68" y="1569.9" type="line"/>
      <point x="857" y="1569.9" type="line"/>
      <point x="857" y="1270" type="line"/>
      <point x="722.376" y="1270" type="line"/>
      <point x="769" y="335.32" type="line"/>
      <point x="769" y="95.9299"/>
      <point x="662.412" y="-209.808"/>
      <point x="338.78" y="-314" type="curve"/>
    </contour>
  </outline>
</glyph>
<glyph name="K" format="1">
  <advance width="1428"/>
  <unicode hex="004B"/>
  <outline>
    <contour>
      <point x="160" y="1560" type="line"/>
      <point x="508" y="1560" type="line"/>
      <point x="508" y="1160.71" type="line"/>
      <point x="1066.66" y="1630.98" type="line"/>
      <point x="1273" y="1499.91" type="line"/>
      <point x="1273" y="1451.08" type="line"/>
      <point x="817.541" y="979.418" type="line"/>
      <point x="1404.48" y="98.5893" type="line"/>
      <point x="1136.77" y="-100.045" type="line"/>
      <point x="488.929" y="809.3" type="line"/>
      <point x="488.929" y="0" type="line"/>
      <point x="160" y="0" type="line"/>
    </contour>
  </outline>
</glyph>
<glyph name="L" format="1">
  <advance width="842"/>
  <unicode hex="004C"/>
  <outline>
    <contour>
      <point x="778" y="306" type="line"/>
      <point x="778" y="-4" type="line"/>
      <point x="189.453" y="-3.58406" type="line"/>
      <point x="119.226" y="1592.44" type="line"/>
      <point x="238.269" y="1592.65" type="line"/>
      <point x="470.958" y="1542.96" type="line"/>
      <point x="520.464" y="305.757" type="line"/>
    </contour>
  </outline>
</glyph>
<glyph name="M" format="1">
  <advance width="1882"/>
  <unicode hex="004D"/>
  <outline>
    <contour>
      <point x="565.722" y="-59.8203" type="line"/>
      <point x="154.936" y="51.7578" type="line"/>
      <point x="100" y="1511.94" type="line"/>
      <point x="548.031" y="1563.69" type="line"/>
      <point x="929.345" y="648.814" type="line"/>
      <point x="1236.6" y="1527.85" type="line"/>
      <point x="1597.44" y="1527.85" type="line"/>
      <point x="1737.14" y="-11" type="line"/>
      <point x="1344.94" y="-11" type="line"/>
      <point x="1274.49" y="705.134" type="line"/>
      <point x="1112.23" y="257.568" type="line"/>
      <point x="720.767" y="211.108" type="line"/>
      <point x="523.518" y="715.762" type="line"/>
    </contour>
  </outline>
</glyph>
<glyph name="N" format="1">
  <advance width="1718"/>
  <unicode hex="004E"/>
  <outline>
    <contour>
      <point x="143" y="1" type="line"/>
      <point x="143" y="1386.88" type="line"/>
      <point x="186.911" y="1496.55" type="line"/>
      <point x="351" y="1554" type="line"/>
      <point x="531.039" y="1551.15" type="line"/>
      <point x="1192.29" y="499.629" type="line"/>
      <point x="1195.26" y="1512.86" type="line"/>
      <point x="1571.39" y="1600.76" type="line"/>
      <point x="1564.02" y="80.8865" type="line"/>
      <point x="1203.95" y="-49.7006" type="line"/>
      <point x="481.289" y="987.812" type="line"/>
      <point x="481.289" y="1" type="line"/>
    </contour>
  </outline>
</glyph>
<glyph name="O" format="1">
  <advance width="1619"/>
  <unicode hex="004F"/>
  <outline>
    <contour>
      <point x="666.404" y="1585" type="curve" smooth="yes"/>
      <point x="1306.08" y="1585"/>
      <point x="1509" y="1094.27"/>
      <point x="1509" y="696.242" type="curve" smooth="yes"/>
      <point x="1509" y="352.374"/>
      <point x="1360.31" y="-56"/>
      <point x="900.285" y="-56" type="curve" smooth="yes"/>
      <point x="155.22" y="-56"/>
      <point x="133" y="644.642"/>
      <point x="133" y="796.04" type="curve" smooth="yes"/>
      <point x="133" y="862.506"/>
      <point x="130" y="934.144"/>
      <point x="130" y="1007.87" type="curve" smooth="yes"/>
      <point x="130" y="1256.27"/>
      <point x="179.038" y="1585"/>
    </contour>
    <contour>
      <point x="1101.4" y="671.717" type="curve" smooth="yes"/>
      <point x="1101.4" y="820.213"/>
      <point x="1054.46" y="1264"/>
      <point x="689.002" y="1264" type="curve" smooth="yes"/>
      <point x="568.921" y="1264"/>
      <point x="512.744" y="988.057"/>
      <point x="512.744" y="846.771" type="curve" smooth="yes"/>
      <point x="512.744" y="561.882"/>
      <point x="738.461" y="268.113"/>
      <point x="910.354" y="268.113" type="curve" smooth="yes"/>
      <point x="1016.05" y="268.113"/>
      <point x="1101.4" y="379.192"/>
    </contour>
  </outline>
</glyph>
<glyph name="P" format="1">
  <advance width="1032"/>
  <unicode hex="0050"/>
  <outline>
    <contour>
      <point x="752.419" y="1150.02" type="curve" smooth="yes"/>
      <point x="752.419" y="1291.41"/>
      <point x="673.785" y="1423.18"/>
      <point x="479.53" y="1423.18" type="curve" smooth="yes"/>
      <point x="475.405" y="1423.18"/>
      <point x="471.229" y="1423.12"/>
      <point x="467" y="1423" type="curve"/>
      <point x="470.099" y="1387.35"/>
      <point x="512.063" y="846.277"/>
      <point x="515.261" y="811" type="curve"/>
      <point x="656.846" y="826.574"/>
      <point x="752.419" y="994.14"/>
    </contour>
    <contour>
      <point x="689" y="1566" type="line" smooth="yes"/>
      <point x="1119.04" y="1566"/>
      <point x="1179" y="1371.26"/>
      <point x="1179" y="1175" type="curve" smooth="yes"/>
      <point x="1179" y="961.615"/>
      <point x="1067" y="647.565"/>
      <point x="540.825" y="647.565" type="curve"/>
      <point x="547.155" y="436.665"/>
      <point x="572.086" y="223.593"/>
      <point x="572.086" y="4" type="curve"/>
      <point x="132" y="4" type="line"/>
      <point x="132" y="1566" type="line"/>
    </contour>
  </outline>
</glyph>
<glyph name="Q" format="1">
  <advance width="1630"/>
  <unicode hex="0051"/>
  <outline>
    <contour>
      <point x="127" y="749.247" type="curve" smooth="yes"/>
      <point x="127" y="852.332"/>
      <point x="130" y="802.131"/>
      <point x="130" y="893.754" type="curve" smooth="yes"/>
      <point x="130" y="1141.34"/>
      <point x="204.637" y="1575"/>
      <point x="708.371" y="1575" type="curve" smooth="yes"/>
      <point x="1438.56" y="1575"/>
      <point x="1488" y="1125.97"/>
      <point x="1488" y="841.644" type="curve" smooth="yes"/>
      <point x="1488" y="774.107"/>
      <point x="1487" y="711.608"/>
      <point x="1487" y="660.195" type="curve" smooth="yes"/>
      <point x="1487" y="516.548" type="line" smooth="yes"/>
      <point x="1487" y="376.577"/>
      <point x="1474.53" y="188.058"/>
      <point x="1277.75" y="61.457" type="curve"/>
      <point x="1323.58" y="-13.7236"/>
      <point x="1371.11" y="-89.3018"/>
      <point x="1411.96" y="-179.116" type="curve"/>
      <point x="1452.33" y="-275.989" type="line"/>
      <point x="1172.39" y="-379.164" type="line"/>
      <point x="846.938" y="-3.73828" type="line"/>
      <point x="637.977" y="21.0381" type="line"/>
      <point x="154.013" y="155.488"/>
      <point x="127" y="555.512"/>
    </contour>
    <contour>
      <point x="842.054" y="205" type="curve" smooth="yes"/>
      <point x="973.177" y="205"/>
      <point x="1118.48" y="276.42"/>
      <point x="1118.48" y="515" type="curve" smooth="yes"/>
      <point x="1118.48" y="869.694" type="line" smooth="yes"/>
      <point x="1118.48" y="1104.22"/>
      <point x="1113.39" y="1320"/>
      <point x="697.042" y="1320" type="curve" smooth="yes"/>
      <point x="580.614" y="1320"/>
      <point x="484.057" y="872.809"/>
      <point x="484.057" y="701" type="curve" smooth="yes"/>
      <point x="484.057" y="291.556"/>
      <point x="698.123" y="205"/>
    </contour>
  </outline>
</glyph>
<glyph name="R" format="1">
  <advance width="1312"/>
  <unicode hex="0052"/>
  <outline>
    <contour>
      <point x="851.277" y="1131.95" type="curve" smooth="yes"/>
      <point x="851.277" y="1221.12"/>
      <point x="743.276" y="1306.11"/>
      <point x="520.152" y="1346.58" type="curve"/>
      <point x="520.152" y="888.396" type="line"/>
      <point x="738.363" y="945.211"/>
      <point x="851.277" y="1040.77"/>
    </contour>
    <contour>
      <point x="543.361" y="-8" type="line"/>
      <point x="143" y="-8" type="line"/>
      <point x="143" y="1552.94" type="line"/>
      <point x="533" y="1552.94" type="line" smooth="yes"/>
      <point x="1074.43" y="1552.94"/>
      <point x="1179" y="1379.15"/>
      <point x="1179" y="1164.71" type="curve" smooth="yes"/>
      <point x="1179" y="1045.67"/>
      <point x="1115.82" y="896.185"/>
      <point x="841.782" y="811.725" type="curve"/>
      <point x="1005.73" y="610.892"/>
      <point x="1227.13" y="318.896"/>
      <point x="1320.47" y="145.035" type="curve" smooth="yes"/>
      <point x="1372.74" y="48.668" type="line"/>
      <point x="983.004" y="-62.208" type="line"/>
      <point x="881.682" y="93.1738" type="line"/>
      <point x="825.315" y="165.214"/>
      <point x="687.706" y="365.75"/>
      <point x="543.361" y="569.801" type="curve"/>
    </contour>
  </outline>
</glyph>
<glyph name="S" format="1">
  <advance width="1173"/>
  <unicode hex="0053"/>
  <outline>
    <contour>
      <point x="932.401" y="1175.72" type="line" smooth="yes"/>
      <point x="880.033" y="1189.77"/>
      <point x="754.679" y="1242"/>
      <point x="638.872" y="1242" type="curve" smooth="yes"/>
      <point x="618.855" y="1242"/>
      <point x="604.648" y="1242.96"/>
      <point x="594.565" y="1242.96" type="curve" smooth="yes"/>
      <point x="570.03" y="1242.96"/>
      <point x="569.917" y="1237.3"/>
      <point x="569.917" y="1198.45" type="curve" smooth="yes"/>
      <point x="569.917" y="846.733"/>
      <point x="1085.53" y="839.067"/>
      <point x="1085.53" y="380.294" type="curve" smooth="yes"/>
      <point x="1085.53" y="199.263"/>
      <point x="932.268" y="-45"/>
      <point x="449.56" y="-45" type="curve" smooth="yes"/>
      <point x="358.948" y="-45"/>
      <point x="235.405" y="-34.8779"/>
      <point x="140.442" y="51.0605" type="curve"/>
      <point x="90" y="95.4502" type="line"/>
      <point x="188.213" y="374.743" type="line"/>
      <point x="299.702" y="293.117" type="line"/>
      <point x="345.479" y="260.88"/>
      <point x="394.516" y="252"/>
      <point x="449.56" y="252" type="curve" smooth="yes"/>
      <point x="578.215" y="252"/>
      <point x="685.26" y="375.216"/>
      <point x="685.26" y="426.254" type="curve" smooth="yes"/>
      <point x="685.26" y="635.437"/>
      <point x="139.529" y="859.899"/>
      <point x="139.529" y="1220.59" type="curve" smooth="yes"/>
      <point x="139.529" y="1382.31"/>
      <point x="265.68" y="1545"/>
      <point x="616.305" y="1545" type="curve" smooth="yes"/>
      <point x="775.918" y="1545"/>
      <point x="891.775" y="1520.65"/>
      <point x="1001.56" y="1470.46" type="curve" smooth="yes"/>
      <point x="1060.53" y="1444.03" type="line"/>
      <point x="1060.53" y="1141.68" type="line"/>
    </contour>
  </outline>
</glyph>
<glyph name="T" format="1">
  <advance width="1119"/>
  <unicode hex="0054"/>
  <outline>
    <contour>
      <point x="873" y="1111.04" type="line" smooth="yes"/>
      <point x="873" y="1026.43"/>
      <point x="859" y="950.951"/>
      <point x="859" y="885.463" type="curve" smooth="yes"/>
      <point x="859" y="749.293"/>
      <point x="862" y="620.779"/>
      <point x="862" y="481.457" type="curve" smooth="yes"/>
      <point x="862" y="347.84"/>
      <point x="864" y="214.709"/>
      <point x="864" y="79.2988" type="curve" smooth="yes"/>
      <point x="864" y="-15" type="line"/>
      <point x="345.208" y="-15" type="line"/>
      <point x="345.208" y="1215.63" type="line"/>
      <point x="277.703" y="1212.54"/>
      <point x="223.478" y="1209"/>
      <point x="167" y="1209" type="curve" smooth="yes"/>
      <point x="65" y="1209" type="line"/>
      <point x="65" y="1524.84" type="line"/>
      <point x="158.794" y="1532.83" type="line"/>
      <point x="343.249" y="1547.21"/>
      <point x="864.715" y="1550"/>
      <point x="942" y="1550" type="curve" smooth="yes"/>
      <point x="1044" y="1550" type="line"/>
      <point x="1044" y="1234" type="line"/>
      <point x="942" y="1234" type="line" smooth="yes"/>
      <point x="918.299" y="1234"/>
      <point x="894.04" y="1234.65"/>
      <point x="873" y="1235.33" type="curve"/>
    </contour>
  </outline>
</glyph>
<glyph name="U" format="1">
  <advance width="1704"/>
  <unicode hex="0055"/>
  <outline>
    <contour>
      <point x="1534.6" y="1539" type="line"/>
      <point x="1570" y="344.046" type="line"/>
      <point x="1570" y="181.803"/>
      <point x="1496.25" y="-37"/>
      <point x="1056.04" y="-37" type="curve" smooth="yes"/>
      <point x="154.44" y="-37"/>
      <point x="111" y="636.022"/>
      <point x="111" y="1069.73" type="curve" smooth="yes"/>
      <point x="111" y="1168.02"/>
      <point x="100" y="1265.18"/>
      <point x="100" y="1355.34" type="curve" smooth="yes"/>
      <point x="100" y="1547" type="line"/>
      <point x="490.04" y="1547" type="line"/>
      <point x="490.04" y="1456.4" type="line" smooth="yes"/>
      <point x="490.04" y="1364.87"/>
      <point x="486.691" y="1264.22"/>
      <point x="486.691" y="1161.51" type="curve" smooth="yes"/>
      <point x="486.691" y="694.596"/>
      <point x="559.515" y="299"/>
      <point x="1053.81" y="299" type="curve" smooth="yes"/>
      <point x="1069.85" y="299"/>
      <point x="1080.58" y="299.008"/>
      <point x="1092.05" y="299.799" type="curve" smooth="yes"/>
      <point x="1194.33" y="305.225"/>
      <point x="1205" y="321.91"/>
      <point x="1205" y="333.362" type="curve" smooth="yes"/>
      <point x="1205" y="336.379"/>
      <point x="1204.26" y="339.033"/>
      <point x="1204.26" y="341.021" type="curve" smooth="yes"/>
      <point x="1204.26" y="346.019"/>
      <point x="1203.41" y="352.945"/>
      <point x="1202.48" y="359.612" type="curve" smooth="yes"/>
      <point x="1120.76" y="1540.34" type="line"/>
      <point x="1357.16" y="1539" type="line"/>
    </contour>
  </outline>
</glyph>
<glyph name="V" format="1">
  <advance width="1280"/>
  <unicode hex="0056"/>
  <outline>
    <contour>
      <point x="72" y="1502.28" type="line"/>
      <point x="491.884" y="1581.98" type="line"/>
      <point x="523.751" y="1485.62" type="line"/>
      <point x="585.675" y="1294.31"/>
      <point x="651.434" y="1065.57"/>
      <point x="708.427" y="854.172" type="curve"/>
      <point x="755.723" y="1092.03"/>
      <point x="798.635" y="1314.39"/>
      <point x="832.772" y="1481.9" type="curve"/>
      <point x="851.263" y="1568" type="line"/>
      <point x="1228.66" y="1568" type="line"/>
      <point x="1216.71" y="1461.18" type="line"/>
      <point x="1198.27" y="1308.91"/>
      <point x="1018.59" y="196.944"/>
      <point x="991.348" y="45.8564" type="curve" smooth="yes"/>
      <point x="974.395" y="-47.9766" type="line"/>
      <point x="555.131" y="-1.84375" type="line"/>
      <point x="526.223" y="51.2197" type="line"/>
      <point x="337.61" y="393.859"/>
      <point x="206.525" y="1098.65"/>
      <point x="103.309" y="1406.19" type="curve"/>
    </contour>
  </outline>
</glyph>
<glyph name="W" format="1">
  <advance width="1860"/>
  <unicode hex="0057"/>
  <outline>
    <contour>
      <point x="782" y="1386" type="line"/>
      <point x="1054.83" y="1386" type="line"/>
      <point x="1252.63" y="749.202" type="line"/>
      <point x="1446.31" y="1563.65" type="line"/>
      <point x="1872.95" y="1541.24" type="line"/>
      <point x="1833.52" y="1471.5" type="line"/>
      <point x="1489.17" y="-17" type="line"/>
      <point x="1088.51" y="-17" type="line"/>
      <point x="890.72" y="593.406" type="line"/>
      <point x="736.971" y="-22" type="line"/>
      <point x="394.746" y="-22" type="line"/>
      <point x="73" y="1445.5" type="line"/>
      <point x="490.919" y="1532.23" type="line"/>
      <point x="608" y="625" type="line"/>
    </contour>
  </outline>
</glyph>
<glyph name="X" format="1">
  <advance width="1188"/>
  <unicode hex="0058"/>
  <outline>
    <contour>
      <point x="7.27344" y="1376.05" type="line"/>
      <point x="143.139" y="1452.84" type="line"/>
      <point x="365.16" y="1555.82" type="line"/>
      <point x="615.764" y="1174.51" type="line"/>
      <point x="865.114" y="1588.47" type="line"/>
      <point x="1106.29" y="1470.97" type="line"/>
      <point x="870.502" y="803.592" type="line"/>
      <point x="1181.72" y="80.4141" type="line"/>
      <point x="841.925" y="-49.7773" type="line"/>
      <point x="577.926" y="363.596" type="line"/>
      <point x="293.301" y="-50.0818" type="line"/>
      <point x="88" y="65.6494" type="line"/>
      <point x="88" y="132.317" type="line"/>
      <point x="327.076" y="752.342" type="line"/>
    </contour>
  </outline>
</glyph>
<glyph name="Y" format="1">
  <advance width="1094"/>
  <unicode hex="0059"/>
  <outline>
    <contour>
      <point x="402.699" y="657.719" type="line"/>
      <point x="24" y="1492.06" type="line"/>
      <point x="378.391" y="1564.16" type="line"/>
      <point x="597.565" y="1148" type="line"/>
      <point x="768.963" y="1554.02" type="line"/>
      <point x="1099.11" y="1499.92" type="line"/>
      <point x="900.508" y="749.927" type="line"/>
      <point x="900.508" y="-18" type="line"/>
      <point x="398.842" y="-18" type="line"/>
    </contour>
  </outline>
</glyph>
<glyph name="Z" format="1">
  <advance width="958"/>
  <unicode hex="005A"/>
  <outline>
    <contour>
      <point x="125.012" y="1549" type="line"/>
      <point x="718.327" y="1549" type="line"/>
      <point x="879.044" y="1465.69" type="line"/>
      <point x="576.472" y="289" type="line"/>
      <point x="875.946" y="289" type="line"/>
      <point x="849.156" y="79.4072" type="line"/>
      <point x="746.23" y="-11" type="line"/>
      <point x="251.615" y="-11" type="line"/>
      <point x="85" y="68.6279" type="line"/>
      <point x="426.402" y="1247" type="line"/>
      <point x="363.723" y="1247" type="line"/>
      <point x="125.012" y="1333.88" type="line"/>
    </contour>
  </outline>
</glyph>
<glyph name="bracketleft" format="1">
  <advance width="685"/>
  <unicode hex="005B"/>
  <outline>
    <contour>
      <point x="452.054" y="1363" type="line"/>
      <point x="350.37" y="101.751" type="line"/>
      <point x="599.882" y="43.9241" type="line"/>
      <point x="485.862" y="-222.123" type="line"/>
      <point x="10.8081" y="-165.947" type="line"/>
      <point x="124.461" y="1496.48" type="line"/>
      <point x="178.96" y="1698" type="line"/>
      <point x="393.538" y="1698" type="line"/>
      <point x="625.754" y="1627.82" type="line" smooth="yes"/>
      <point x="637.837" y="1624.17"/>
      <point x="649.918" y="1620.52"/>
      <point x="662" y="1616.86" type="curve"/>
      <point x="662" y="1363" type="line"/>
    </contour>
  </outline>
</glyph>
<glyph name="backslash" format="1">
  <advance width="737"/>
  <unicode hex="005C"/>
  <outline>
    <contour>
      <point x="265.338" y="1658.94" type="line"/>
      <point x="779.833" y="-17.3861" type="line"/>
      <point x="488.559" y="-180.499" type="line"/>
      <point x="-43.0822" y="1576.69" type="line"/>
    </contour>
  </outline>
</glyph>
<glyph name="bracketright" format="1">
  <advance width="665"/>
  <unicode hex="005D"/>
  <outline>
    <contour>
      <point x="67" y="61.8478" type="line"/>
      <point x="320.452" y="94.5193" type="line"/>
      <point x="250" y="1364.5" type="line"/>
      <point x="1" y="1342.24" type="line"/>
      <point x="1" y="1662" type="line"/>
      <point x="460.136" y="1662" type="line"/>
      <point x="569.911" y="1566.12" type="line"/>
      <point x="652.185" y="-164.761" type="line"/>
      <point x="67" y="-237.757" type="line"/>
    </contour>
  </outline>
</glyph>
<glyph name="asciicircum" format="1">
  <advance width="474"/>
  <unicode hex="005E"/>
  <outline>
    <contour>
      <point x="50" y="1575" type="curve" smooth="yes"/>
      <point x="50" y="1654.84"/>
      <point x="111.232" y="1758"/>
      <point x="234" y="1758" type="curve" smooth="yes"/>
      <point x="317.538" y="1758"/>
      <point x="432" y="1703"/>
      <point x="432" y="1583" type="curve" smooth="yes"/>
      <point x="432" y="1475.65"/>
      <point x="336.197" y="1413"/>
      <point x="247" y="1413" type="curve" smooth="yes"/>
      <point x="194.412" y="1413"/>
      <point x="50" y="1434.77"/>
    </contour>
  </outline>
</glyph>
<glyph name="underscore" format="1">
  <advance width="1556"/>
  <unicode hex="005F"/>
  <outline>
    <contour>
      <point x="1175" y="-217" type="curve" smooth="yes"/>
      <point x="867.975" y="-217"/>
      <point x="441.411" y="-239"/>
      <point x="192" y="-239" type="curve" smooth="yes"/>
      <point x="120.881" y="-239"/>
      <point x="24" y="-190.429"/>
      <point x="24" y="-85" type="curve" smooth="yes"/>
      <point x="24" y="77.6858"/>
      <point x="229.264" y="79.6333"/>
      <point x="326.727" y="79.6333" type="curve" smooth="yes"/>
      <point x="333.702" y="79.6321" type="line" smooth="yes"/>
      <point x="362.468" y="79.6321"/>
      <point x="388.695" y="79"/>
      <point x="409" y="79" type="curve" smooth="yes"/>
      <point x="552.487" y="79"/>
      <point x="711.872" y="82"/>
      <point x="773" y="82" type="curve" smooth="yes"/>
      <point x="965.969" y="82"/>
      <point x="1187.96" y="102"/>
      <point x="1336" y="102" type="curve" smooth="yes"/>
      <point x="1392.52" y="102"/>
      <point x="1525" y="70.9854"/>
      <point x="1525" y="-58" type="curve" smooth="yes"/>
      <point x="1525" y="-217.447"/>
      <point x="1363.35" y="-218"/>
      <point x="1296.39" y="-218" type="curve" smooth="yes"/>
      <point x="1295" y="-218" type="line" smooth="yes"/>
      <point x="1260" y="-218"/>
      <point x="1221.28" y="-217"/>
    </contour>
  </outline>
</glyph>
<glyph name="grave" format="1">
  <advance width="771"/>
  <unicode hex="0060"/>
  <outline>
    <contour>
      <point x="856.508" y="1591.26" type="line"/>
      <point x="577.364" y="1414.96" type="line"/>
      <point x="-22.7466" y="1575.69" type="line"/>
      <point x="110.887" y="1852.17" type="line"/>
    </contour>
  </outline>
</glyph>
<glyph name="a" format="1">
  <advance width="1293"/>
  <unicode hex="0061"/>
  <outline>
    <contour>
      <point x="771" y="1059" type="line"/>
      <point x="592.661" y="495.414" type="line"/>
      <point x="796.207" y="495.414" type="line"/>
    </contour>
    <contour>
      <point x="549.589" y="1360" type="line"/>
      <point x="1016.2" y="1360" type="line"/>
      <point x="1254.47" y="-15.0771" type="line"/>
      <point x="879.421" y="-15.0771" type="line"/>
      <point x="780.481" y="295" type="line"/>
      <point x="594.519" y="295" type="line"/>
      <point x="431.376" y="-28.8145" type="line"/>
      <point x="80" y="47.7207" type="line"/>
    </contour>
  </outline>
</glyph>
<glyph name="b" format="1">
  <advance width="1244"/>
  <unicode hex="0062"/>
  <outline>
    <contour>
      <point x="860.41" y="357.708" type="curve" smooth="yes"/>
      <point x="860.41" y="413.35"/>
      <point x="752.05" y="470.976"/>
      <point x="556" y="520.543" type="curve"/>
      <point x="523.004" y="208.253" type="line"/>
      <point x="754.59" y="249.672"/>
      <point x="860.41" y="302.721"/>
    </contour>
    <contour>
      <point x="563.729" y="1149.16" type="curve"/>
      <point x="563.729" y="751.462" type="line"/>
      <point x="732.643" y="792.937"/>
      <point x="813.819" y="891.163"/>
      <point x="813.819" y="979.612" type="curve" smooth="yes"/>
      <point x="813.819" y="1069.43"/>
      <point x="724.256" y="1149.16"/>
    </contour>
    <contour>
      <point x="335.297" y="1397.24" type="line"/>
      <point x="822.711" y="1397.24"/>
      <point x="1110.24" y="1290.07"/>
      <point x="1110.24" y="984.075" type="curve" smooth="yes"/>
      <point x="1110.24" y="861.736"/>
      <point x="930" y="747"/>
      <point x="831.144" y="722.436" type="curve"/>
      <point x="1062" y="669"/>
      <point x="1126.24" y="516.17"/>
      <point x="1126.24" y="403.299" type="curve" smooth="yes"/>
      <point x="1126.24" y="179.402"/>
      <point x="951.095" y="-19"/>
      <point x="315.238" y="-19" type="curve"/>
      <point x="126" y="19.2275" type="line"/>
      <point x="156.238" y="548.776" type="line"/>
      <point x="156.238" y="1289.84" type="line"/>
    </contour>
  </outline>
</glyph>
<glyph name="c" format="1">
  <advance width="1142"/>
  <unicode hex="0063"/>
  <outline>
    <contour>
      <point x="654.754" y="-17" type="curve" smooth="yes"/>
      <point x="167.372" y="-17"/>
      <point x="109" y="362.126"/>
      <point x="109" y="518.452" type="curve" smooth="yes"/>
      <point x="109" y="544.45"/>
      <point x="108" y="582.026"/>
      <point x="108" y="622.748" type="curve" smooth="yes"/>
      <point x="108" y="663.723" type="line" smooth="yes"/>
      <point x="108" y="959.56"/>
      <point x="139.901" y="1364"/>
      <point x="922.058" y="1364" type="curve" smooth="yes"/>
      <point x="1039.58" y="1364" type="line"/>
      <point x="1039.58" y="1122.3" type="line"/>
      <point x="952.082" y="1103.58" type="line" smooth="yes"/>
      <point x="951.598" y="1103.49"/>
      <point x="951.113" y="1103.43"/>
      <point x="950.628" y="1103.33" type="curve" smooth="yes"/>
      <point x="559.642" y="1036.31"/>
      <point x="526.862" y="1041.45"/>
      <point x="526.862" y="825.057" type="curve" smooth="yes"/>
      <point x="526.862" y="815.938" type="line" smooth="yes"/>
      <point x="526.862" y="695.532"/>
      <point x="496.906" y="584.754"/>
      <point x="496.906" y="484.912" type="curve" smooth="yes"/>
      <point x="496.906" y="382.296"/>
      <point x="533.105" y="308"/>
      <point x="704.297" y="308" type="curve" smooth="yes"/>
      <point x="764.246" y="308"/>
      <point x="818.15" y="318.29"/>
      <point x="897.903" y="351.028" type="curve" smooth="yes"/>
      <point x="1022.28" y="403.003" type="line"/>
      <point x="1124.95" y="100.032" type="line"/>
      <point x="1035.12" y="62.0508" type="line"/>
      <point x="908.556" y="9.74023"/>
      <point x="794.95" y="-17"/>
    </contour>
  </outline>
</glyph>
<glyph name="d" format="1">
  <advance width="1439"/>
  <unicode hex="0064"/>
  <outline>
    <contour>
      <point x="309.137" y="1353.04" type="curve" smooth="yes"/>
      <point x="311.794" y="1353.02"/>
      <point x="314.453" y="1353.01"/>
      <point x="317.114" y="1353" type="curve" smooth="yes"/>
      <point x="422.824" y="1353" type="line"/>
      <point x="422.824" y="1348.83" type="line"/>
      <point x="1132.39" y="1316.36"/>
      <point x="1312" y="1007.48"/>
      <point x="1312" y="699.67" type="curve" smooth="yes"/>
      <point x="1312" y="601.993" type="line" smooth="yes"/>
      <point x="1312" y="358.312"/>
      <point x="1248.26" y="110.545"/>
      <point x="626.857" y="-13" type="curve"/>
      <point x="314" y="-13" type="line" smooth="yes"/>
      <point x="279.637" y="-13"/>
      <point x="252.237" y="0.931641"/>
      <point x="232.056" y="19.8164" type="curve"/>
      <point x="162.715" y="77.8594"/>
      <point x="162.361" y="177.571"/>
      <point x="162.361" y="241.728" type="curve" smooth="yes"/>
      <point x="162.361" y="273.777"/>
      <point x="164" y="301.27"/>
      <point x="164" y="313.528" type="curve" smooth="yes"/>
      <point x="164" y="495.539"/>
      <point x="152" y="680.435"/>
      <point x="152" y="869.958" type="curve" smooth="yes"/>
      <point x="152" y="1237.81" type="line" smooth="yes"/>
      <point x="152" y="1349.27"/>
      <point x="282.863" y="1353.04"/>
    </contour>
    <contour>
      <point x="511.329" y="1192.68" type="curve"/>
      <point x="511.329" y="1095" type="line" smooth="yes"/>
      <point x="511.329" y="823.529"/>
      <point x="548.621" y="543.729"/>
      <point x="554.281" y="262.073" type="curve"/>
      <point x="947.081" y="414.445"/>
      <point x="953.851" y="466.86"/>
      <point x="953.851" y="662" type="curve" smooth="yes"/>
      <point x="953.851" y="824.688"/>
      <point x="937.862" y="1122.89"/>
    </contour>
  </outline>
</glyph>
<glyph name="e" format="1">
  <advance width="1052"/>
  <unicode hex="0065"/>
  <outline>
    <contour>
      <point x="170" y="1309.62" type="line"/>
      <point x="239.036" y="1309.62" type="line"/>
      <point x="244.537" y="1358.8" type="line"/>
      <point x="295.074" y="1353.75" type="line" smooth="yes"/>
      <point x="301.472" y="1353.11"/>
      <point x="323.018" y="1352"/>
      <point x="364" y="1352" type="curve" smooth="yes"/>
      <point x="451.687" y="1352"/>
      <point x="681.698" y="1340.15"/>
      <point x="808.513" y="1308.44" type="curve"/>
      <point x="886" y="1290.9" type="line"/>
      <point x="886" y="1037.19" type="line"/>
      <point x="572.951" y="1068.09" type="line"/>
      <point x="572.951" y="924" type="line"/>
      <point x="822" y="924" type="line"/>
      <point x="822" y="611" type="line"/>
      <point x="566.53" y="611" type="line"/>
      <point x="566.53" y="281" type="line"/>
      <point x="909" y="281" type="line"/>
      <point x="909" y="-27" type="line"/>
      <point x="147" y="-27" type="line"/>
      <point x="147" y="68.0068" type="line" smooth="yes"/>
      <point x="147" y="364.934"/>
      <point x="164" y="680.643"/>
      <point x="164" y="983.615" type="curve" smooth="yes"/>
      <point x="164" y="1080.49"/>
      <point x="170" y="1172.78"/>
      <point x="170" y="1262.12" type="curve" smooth="yes"/>
    </contour>
  </outline>
</glyph>
<glyph name="f" format="1">
  <advance width="1016"/>
  <unicode hex="0066"/>
  <outline>
    <contour>
      <point x="551.036" y="13" type="line"/>
      <point x="441.679" y="13" type="line"/>
      <point x="441.679" y="-37.3545" type="line"/>
      <point x="361.836" y="-31.7471" type="line" smooth="yes"/>
      <point x="355.1" y="-31.0732"/>
      <point x="334.745" y="-30"/>
      <point x="301.911" y="-30" type="curve" smooth="yes"/>
      <point x="274.138" y="-30" type="line"/>
      <point x="118" y="54.7607" type="line"/>
      <point x="126.321" y="114.853" type="line"/>
      <point x="174.896" y="473.247"/>
      <point x="187.911" y="844.152"/>
      <point x="187.911" y="1212.05" type="curve" smooth="yes"/>
      <point x="187.911" y="1363" type="line"/>
      <point x="943.911" y="1363" type="line"/>
      <point x="943.911" y="1048.79" type="line"/>
      <point x="821.414" y="1070.33" type="line" smooth="yes"/>
      <point x="784.626" y="1076.52"/>
      <point x="705.346" y="1081.84"/>
      <point x="611.285" y="1083.91" type="curve"/>
      <point x="603.787" y="1001.49"/>
      <point x="587.903" y="926.426"/>
      <point x="582.857" y="855.395" type="curve"/>
      <point x="619.365" y="855.693"/>
      <point x="652.54" y="856"/>
      <point x="692.05" y="856" type="curve" smooth="yes"/>
      <point x="795.911" y="856" type="line"/>
      <point x="795.911" y="551" type="line"/>
      <point x="692.05" y="551" type="line" smooth="yes"/>
      <point x="652.448" y="551"/>
      <point x="599.308" y="551.955"/>
      <point x="551.036" y="553.617" type="curve"/>
    </contour>
  </outline>
</glyph>
<glyph name="g" format="1">
  <advance width="1496"/>
  <unicode hex="0067"/>
  <outline>
    <contour>
      <point x="1357" y="448.14" type="line" smooth="yes"/>
      <point x="1357" y="156.045"/>
      <point x="1223.33" y="-16"/>
      <point x="804.008" y="-16" type="curve" smooth="yes"/>
      <point x="181.312" y="-16"/>
      <point x="101" y="440.574"/>
      <point x="101" y="628.049" type="curve" smooth="yes"/>
      <point x="101" y="668.069" type="line" smooth="yes"/>
      <point x="101" y="892.131"/>
      <point x="119.182" y="1354"/>
      <point x="829.395" y="1354" type="curve" smooth="yes"/>
      <point x="931.9" y="1354"/>
      <point x="1074.23" y="1349.77"/>
      <point x="1190.29" y="1304.21" type="curve"/>
      <point x="1254" y="1278.33" type="line"/>
      <point x="1254" y="991.197" type="line"/>
      <point x="1130.34" y="1017.13" type="line"/>
      <point x="1046.22" y="1033.56"/>
      <point x="930.806" y="1048"/>
      <point x="867.476" y="1048" type="curve" smooth="yes"/>
      <point x="487.389" y="1048"/>
      <point x="485.513" y="913.819"/>
      <point x="485.513" y="637.593" type="curve" smooth="yes"/>
      <point x="485.513" y="475.365"/>
      <point x="497.055" y="295"/>
      <point x="870.938" y="295" type="curve" smooth="yes"/>
      <point x="987.801" y="295"/>
      <point x="1008.35" y="349.243"/>
      <point x="1009.39" y="417" type="curve"/>
      <point x="973.493" y="416.97"/>
      <point x="742.794" y="416"/>
      <point x="702.459" y="416" type="curve" smooth="yes"/>
      <point x="570.907" y="416" type="line"/>
      <point x="570.907" y="725" type="line"/>
      <point x="702.459" y="725" type="line" smooth="yes"/>
      <point x="801.245" y="725"/>
      <point x="943.536" y="726.959"/>
      <point x="1066.9" y="726.959" type="curve" smooth="yes"/>
      <point x="1153.47" y="726.959"/>
      <point x="1223.14" y="726.144"/>
      <point x="1266.38" y="722.053" type="curve" smooth="yes"/>
      <point x="1357" y="712.631" type="line"/>
    </contour>
  </outline>
</glyph>
<glyph name="h" format="1">
  <advance width="1395"/>
  <unicode hex="0068"/>
  <outline>
    <contour>
      <point x="868.972" y="368" type="curve" smooth="yes"/>
      <point x="868.972" y="446.213"/>
      <point x="859.857" y="526.605"/>
      <point x="857.563" y="581.043" type="curve"/>
      <point x="737.942" y="581.736"/>
      <point x="628.477" y="590.166"/>
      <point x="519.777" y="595.563" type="curve"/>
      <point x="514.679" y="556.076"/>
      <point x="510.939" y="522.193"/>
      <point x="510.939" y="489" type="curve" smooth="yes"/>
      <point x="510.939" y="481" type="line" smooth="yes"/>
      <point x="510.939" y="367.636"/>
      <point x="521.644" y="249.548"/>
      <point x="521.644" y="127" type="curve" smooth="yes"/>
      <point x="521.644" y="42.9199" type="line"/>
      <point x="223.968" y="2.71191" type="line"/>
      <point x="132" y="92.7402" type="line"/>
      <point x="133.899" y="113.96" type="line" smooth="yes"/>
      <point x="136.509" y="143.1"/>
      <point x="137.724" y="232.707"/>
      <point x="137.724" y="336.194" type="curve" smooth="yes"/>
      <point x="137.724" y="433.362"/>
      <point x="145.724" y="537.359"/>
      <point x="145.724" y="606.117" type="curve" smooth="yes"/>
      <point x="145.724" y="652.377"/>
      <point x="146.724" y="681.726"/>
      <point x="146.724" y="707.57" type="curve" smooth="yes"/>
      <point x="146.724" y="749.548"/>
      <point x="151.724" y="784.906"/>
      <point x="151.724" y="810.886" type="curve" smooth="yes"/>
      <point x="151.724" y="961.006"/>
      <point x="133.724" y="1116.57"/>
      <point x="133.724" y="1279.06" type="curve" smooth="yes"/>
      <point x="133.724" y="1374" type="line"/>
      <point x="336.229" y="1374" type="line"/>
      <point x="538.297" y="1289.6" type="line"/>
      <point x="538.297" y="1236.52" type="line" smooth="yes"/>
      <point x="538.297" y="1092.52"/>
      <point x="518.941" y="951.008"/>
      <point x="512.56" y="816.499" type="curve"/>
      <point x="602.665" y="814.006"/>
      <point x="692.195" y="814"/>
      <point x="786.898" y="814" type="curve" smooth="yes"/>
      <point x="868.588" y="814" type="line"/>
      <point x="859.908" y="961.629"/>
      <point x="819.014" y="1112.21"/>
      <point x="819.014" y="1276.57" type="curve" smooth="yes"/>
      <point x="819.014" y="1370" type="line"/>
      <point x="1205.7" y="1370" type="line"/>
      <point x="1261.68" y="87.291" type="line" smooth="yes"/>
      <point x="1262.4" y="70.8604"/>
      <point x="1263.12" y="54.4307"/>
      <point x="1263.83" y="38" type="curve"/>
      <point x="1110.92" y="38" type="line"/>
      <point x="1037.63" y="4.1709" type="line"/>
      <point x="1026.78" y="2.00046"/>
      <point x="1015.47" y="0.211914"/>
      <point x="1002.24" y="0.211914" type="curve" smooth="yes"/>
      <point x="981.787" y="0.211914"/>
      <point x="961.247" y="4.03418"/>
      <point x="943.179" y="11.8535" type="curve" smooth="yes"/>
      <point x="858.302" y="48.585"/>
      <point x="856.755" y="137.085"/>
      <point x="856.755" y="196.807" type="curve" smooth="yes"/>
      <point x="856.755" y="267.288"/>
      <point x="868.972" y="341.993"/>
    </contour>
  </outline>
</glyph>
<glyph name="i" format="1">
  <advance width="1029"/>
  <unicode hex="0069"/>
  <outline>
    <contour>
      <point x="799.029" y="24" type="line" smooth="yes"/>
      <point x="758.858" y="24"/>
      <point x="716.819" y="23"/>
      <point x="663.466" y="23" type="curve" smooth="yes"/>
      <point x="638.208" y="23"/>
      <point x="594.503" y="22"/>
      <point x="526.678" y="22" type="curve" smooth="yes"/>
      <point x="404.346" y="22"/>
      <point x="306.82" y="18"/>
      <point x="225.029" y="18" type="curve" smooth="yes"/>
      <point x="117.084" y="18" type="line"/>
      <point x="125.029" y="159.432" type="line"/>
      <point x="125.029" y="322" type="line"/>
      <point x="284.394" y="322" type="line"/>
      <point x="279.737" y="412.712"/>
      <point x="268.029" y="504.46"/>
      <point x="268.029" y="603.541" type="curve" smooth="yes"/>
      <point x="268.029" y="730.098"/>
      <point x="282.029" y="851.145"/>
      <point x="282.029" y="966.278" type="curve" smooth="yes"/>
      <point x="282.029" y="1001.37"/>
      <point x="279.856" y="1040.07"/>
      <point x="276.527" y="1074.05" type="curve"/>
      <point x="261.41" y="1088.43"/>
      <point x="254.321" y="1088.63"/>
      <point x="251.618" y="1088.63" type="curve" smooth="yes"/>
      <point x="248.164" y="1088.63"/>
      <point x="235.934" y="1086.19"/>
      <point x="215.447" y="1065.3" type="curve" smooth="yes"/>
      <point x="200.45" y="1050" type="line"/>
      <point x="82.8604" y="1050" type="line"/>
      <point x="74" y="1205.06" type="line"/>
      <point x="77.0488" y="1356" type="line"/>
      <point x="390.553" y="1356" type="line"/>
      <point x="410.971" y="1357.44"/>
      <point x="506.139" y="1363.81"/>
      <point x="613.386" y="1363.81" type="curve" smooth="yes"/>
      <point x="627.4" y="1363.81"/>
      <point x="641.99" y="1363.92"/>
      <point x="656.864" y="1363.92" type="curve" smooth="yes"/>
      <point x="758.084" y="1363.92"/>
      <point x="872.438" y="1359.18"/>
      <point x="907.61" y="1285.29" type="curve" smooth="yes"/>
      <point x="912.438" y="1275.15"/>
      <point x="915.029" y="1263.74"/>
      <point x="915.029" y="1252.48" type="curve" smooth="yes"/>
      <point x="915.029" y="1244.89" type="line"/>
      <point x="885.339" y="1076.85" type="line"/>
      <point x="732.719" y="1076.85" type="line"/>
      <point x="733.733" y="1055.54"/>
      <point x="734.029" y="1036.05"/>
      <point x="734.029" y="1016.45" type="curve" smooth="yes"/>
      <point x="734.029" y="897.41"/>
      <point x="719.029" y="784.743"/>
      <point x="719.029" y="680.055" type="curve" smooth="yes"/>
      <point x="719.029" y="564.12"/>
      <point x="739.029" y="440.214"/>
      <point x="739.029" y="306.494" type="curve" smooth="yes"/>
      <point x="739.029" y="298.131" type="line"/>
      <point x="885.215" y="298.131" type="line"/>
      <point x="882.244" y="178.01" type="line"/>
      <point x="944.785" y="24" type="line"/>
    </contour>
  </outline>
</glyph>
<glyph name="j" format="1">
  <advance width="1153"/>
  <unicode hex="006A"/>
  <outline>
    <contour>
      <point x="921.271" y="163.944" type="curve" smooth="yes"/>
      <point x="921.271" y="-25.0674"/>
      <point x="829.093" y="-216.567"/>
      <point x="275.001" y="-253.781" type="curve"/>
      <point x="195.549" y="-253.781" type="line"/>
      <point x="99" y="10.8809" type="line"/>
      <point x="181.998" y="48.4775" type="line"/>
      <point x="370.29" y="123.828"/>
      <point x="384.728" y="119.148"/>
      <point x="384.728" y="163.458" type="curve"/>
      <point x="350.802" y="1069.76" type="line"/>
      <point x="102.262" y="1069.76" type="line"/>
      <point x="102.262" y="1337.95" type="line"/>
      <point x="1101.17" y="1337.95" type="line"/>
      <point x="1101.17" y="1050.53" type="line"/>
      <point x="903.211" y="1050.53" type="line"/>
      <point x="911.758" y="833.673"/>
      <point x="921.271" y="618.824"/>
      <point x="921.271" y="399.676" type="curve" smooth="yes"/>
      <point x="921.271" y="370.261"/>
      <point x="919.271" y="343.714"/>
      <point x="919.271" y="321.725" type="curve" smooth="yes"/>
      <point x="919.271" y="271.218"/>
      <point x="921.271" y="217.665"/>
    </contour>
  </outline>
</glyph>
<glyph name="k" format="1">
  <advance width="1321"/>
  <unicode hex="006B"/>
  <outline>
    <contour>
      <point x="1235.37" y="1256.24" type="line"/>
      <point x="1235.37" y="1212.8" type="line" smooth="yes"/>
      <point x="1235.37" y="1121.67"/>
      <point x="952.029" y="861.684"/>
      <point x="828.237" y="744.747" type="curve"/>
      <point x="1004.58" y="539.763"/>
      <point x="1171.4" y="338.705"/>
      <point x="1323.27" y="134.037" type="curve" smooth="yes"/>
      <point x="1353.81" y="92.8779" type="line"/>
      <point x="1097.83" y="-55.8047" type="line"/>
      <point x="1030.84" y="7.52637" type="line"/>
      <point x="890.11" y="125.34"/>
      <point x="667.775" y="352.06"/>
      <point x="522.096" y="530.85" type="curve"/>
      <point x="506.555" y="-36.7617" type="line"/>
      <point x="319.181" y="-30.8506" type="line"/>
      <point x="137" y="0.1875" type="line"/>
      <point x="159.41" y="662.592" type="line"/>
      <point x="194.691" y="1368" type="line"/>
      <point x="592.671" y="1368" type="line"/>
      <point x="567.879" y="966.361" type="line"/>
      <point x="706.879" y="1118.51"/>
      <point x="853.655" y="1279.02"/>
      <point x="907.113" y="1336.64" type="curve" smooth="yes"/>
      <point x="990.597" y="1428.11" type="line"/>
    </contour>
  </outline>
</glyph>
<glyph name="l" format="1">
  <advance width="842"/>
  <unicode hex="006C"/>
  <outline>
    <contour>
      <point x="778" y="306" type="line"/>
      <point x="778" y="-4" type="line"/>
      <point x="189.453" y="-3.58406" type="line"/>
      <point x="169.227" y="1342.44" type="line"/>
      <point x="288.269" y="1392.65" type="line"/>
      <point x="520.958" y="1392.96" type="line"/>
      <point x="520.464" y="305.757" type="line"/>
    </contour>
  </outline>
</glyph>
<glyph name="m" format="1">
  <advance width="1965"/>
  <unicode hex="006D"/>
  <outline>
    <contour>
      <point x="995.972" y="458.955" type="curve"/>
      <point x="1115.69" y="745.489"/>
      <point x="1286.61" y="1140.94"/>
      <point x="1427.64" y="1305.36" type="curve"/>
      <point x="1476.94" y="1363.66" type="line"/>
      <point x="1807" y="1276.66" type="line"/>
      <point x="1807" y="1208.38" type="line" smooth="yes"/>
      <point x="1807" y="972.539"/>
      <point x="1829" y="725.656"/>
      <point x="1829" y="486.305" type="curve" smooth="yes"/>
      <point x="1829" y="-28" type="line"/>
      <point x="1461.74" y="-28" type="line"/>
      <point x="1461.74" y="74" type="line" smooth="yes"/>
      <point x="1461.74" y="184.266"/>
      <point x="1469.39" y="283.354"/>
      <point x="1469.39" y="385" type="curve" smooth="yes"/>
      <point x="1469.39" y="476.464"/>
      <point x="1462.19" y="574.538"/>
      <point x="1459.5" y="671.655" type="curve"/>
      <point x="1371.79" y="460.263"/>
      <point x="1280.15" y="256.239"/>
      <point x="1202.03" y="143.922" type="curve"/>
      <point x="1168.48" y="94" type="line"/>
      <point x="962.259" y="94" type="line"/>
      <point x="803.417" y="168.549" type="line"/>
      <point x="725.98" y="319.199"/>
      <point x="621.386" y="556.032"/>
      <point x="520.424" y="780.532" type="curve"/>
      <point x="510.75" y="577.188"/>
      <point x="503.865" y="373.301"/>
      <point x="503.865" y="191" type="curve" smooth="yes"/>
      <point x="503.865" y="-32" type="line"/>
      <point x="248" y="-32" type="line" smooth="yes"/>
      <point x="230.006" y="-32"/>
      <point x="211.795" y="-27.8076"/>
      <point x="195.978" y="-19.001" type="curve" smooth="yes"/>
      <point x="129.695" y="15.3096"/>
      <point x="129.427" y="91.376"/>
      <point x="129.427" y="145.26" type="curve" smooth="yes"/>
      <point x="129.427" y="204.203"/>
      <point x="137" y="267.243"/>
      <point x="137" y="309.217" type="curve" smooth="yes"/>
      <point x="137" y="605.137"/>
      <point x="189" y="1045.34"/>
      <point x="189" y="1247.38" type="curve" smooth="yes"/>
      <point x="189" y="1331.84" type="line"/>
      <point x="283.02" y="1339.85" type="line" smooth="yes"/>
      <point x="340.402" y="1343.95"/>
      <point x="394.058" y="1346.88"/>
      <point x="456.416" y="1350.88" type="curve" smooth="yes"/>
      <point x="582.505" y="1358.45" type="line"/>
      <point x="582.505" y="1288.28" type="line"/>
      <point x="710.55" y="1146.56"/>
      <point x="880.093" y="750.966"/>
    </contour>
  </outline>
</glyph>
<glyph name="n" format="1">
  <advance width="1715"/>
  <unicode hex="006E"/>
  <outline>
    <contour>
      <point x="138" y="810.749" type="curve" smooth="yes"/>
      <point x="138" y="928.048"/>
      <point x="154" y="1038.74"/>
      <point x="154" y="1140.11" type="curve" smooth="yes"/>
      <point x="154" y="1285.12" type="line"/>
      <point x="468.566" y="1359.81" type="line"/>
      <point x="516.869" y="1325.58" type="line"/>
      <point x="715.598" y="1204.17"/>
      <point x="992.244" y="830.484"/>
      <point x="1194.96" y="556.404" type="curve"/>
      <point x="1200.49" y="755.531"/>
      <point x="1201.85" y="951.463"/>
      <point x="1201.85" y="1150.58" type="curve" smooth="yes"/>
      <point x="1201.85" y="1289.78" type="line"/>
      <point x="1601.49" y="1289.78" type="line"/>
      <point x="1535.9" y="11.6777" type="line"/>
      <point x="1164.24" y="-31.9561" type="line"/>
      <point x="1122.17" y="11.3418" type="line"/>
      <point x="978.666" y="156.389"/>
      <point x="704.985" y="585.661"/>
      <point x="500.23" y="905.632" type="curve"/>
      <point x="500.778" y="797.726"/>
      <point x="525.918" y="545.764"/>
      <point x="525.918" y="379" type="curve" smooth="yes"/>
      <point x="525.918" y="-86.374" type="line"/>
      <point x="296.083" y="-12.7715" type="line"/>
      <point x="143" y="49.7373" type="line"/>
      <point x="143" y="111.214" type="line" smooth="yes"/>
      <point x="143" y="343.454"/>
      <point x="138" y="576.326"/>
    </contour>
  </outline>
</glyph>
<glyph name="o" format="1">
  <advance width="1530"/>
  <unicode hex="006F"/>
  <outline>
    <contour>
      <point x="1032.86" y="815" type="curve" smooth="yes"/>
      <point x="1032.86" y="1022.06"/>
      <point x="870.13" y="1137.96"/>
      <point x="835.888" y="1144" type="curve"/>
      <point x="509.214" y="1143.58"/>
      <point x="476.728" y="1006.22"/>
      <point x="476.728" y="762" type="curve" smooth="yes"/>
      <point x="476.728" y="631.081"/>
      <point x="553.356" y="252"/>
      <point x="740.46" y="252" type="curve" smooth="yes"/>
      <point x="965.577" y="252"/>
      <point x="1022.54" y="508.355"/>
      <point x="1022.54" y="624" type="curve" smooth="yes"/>
      <point x="1022.54" y="679.703"/>
      <point x="1032.86" y="744.869"/>
    </contour>
    <contour>
      <point x="108" y="773.812" type="line" smooth="yes"/>
      <point x="108" y="1143.76"/>
      <point x="381.625" y="1361"/>
      <point x="766.833" y="1361" type="curve" smooth="yes"/>
      <point x="1140.37" y="1361"/>
      <point x="1397" y="1151.67"/>
      <point x="1397" y="780.336" type="curve" smooth="yes"/>
      <point x="1397" y="565.965" type="line" smooth="yes"/>
      <point x="1397" y="414.675"/>
      <point x="1375.53" y="-38"/>
      <point x="766.833" y="-38" type="curve" smooth="yes"/>
      <point x="147.904" y="-38"/>
      <point x="109" y="450.216"/>
      <point x="109" y="630.276" type="curve" smooth="yes"/>
      <point x="109" y="668.695"/>
      <point x="108" y="706.749"/>
      <point x="108" y="739.326" type="curve" smooth="yes"/>
    </contour>
  </outline>
</glyph>
<glyph name="p" format="1">
  <advance width="1019"/>
  <unicode hex="0070"/>
  <outline>
    <contour>
      <point x="508" y="1135" type="curve"/>
      <point x="505.003" y="822.71" type="line"/>
      <point x="715.98" y="860.443"/>
      <point x="737.099" y="921.629"/>
      <point x="737.099" y="923.457" type="curve" smooth="yes"/>
      <point x="737.099" y="989.27"/>
      <point x="689.634" y="1089.08"/>
    </contour>
    <contour>
      <point x="562.714" y="1336.04" type="line" smooth="yes"/>
      <point x="929.046" y="1336.04"/>
      <point x="1003" y="1134.12"/>
      <point x="1003" y="992.792" type="curve" smooth="yes"/>
      <point x="1003" y="819.095"/>
      <point x="879.643" y="643.606"/>
      <point x="561.263" y="562.951" type="curve"/>
      <point x="561.263" y="-39" type="line"/>
      <point x="147.241" y="-39" type="line"/>
      <point x="147.241" y="1336.04" type="line"/>
    </contour>
  </outline>
</glyph>
<glyph name="q" format="1">
  <advance width="1525"/>
  <unicode hex="0071"/>
  <outline>
    <contour>
      <point x="1396" y="792.901" type="curve" smooth="yes"/>
      <point x="1396" y="655.102"/>
      <point x="1375.64" y="139.169"/>
      <point x="1098.79" y="-32.1211" type="curve"/>
      <point x="1182.1" y="-398.358" type="line"/>
      <point x="797.732" y="-517.036" type="line"/>
      <point x="685.567" y="-82.6406" type="line"/>
      <point x="360.042" y="-41.4883"/>
      <point x="107" y="107.774"/>
      <point x="107" y="528.087" type="curve" smooth="yes"/>
      <point x="107" y="603.459"/>
      <point x="111" y="677.494"/>
      <point x="111" y="740.184" type="curve" smooth="yes"/>
      <point x="111" y="1117.09"/>
      <point x="395.813" y="1393.44"/>
      <point x="723.633" y="1393.44" type="curve" smooth="yes"/>
      <point x="1038.03" y="1393.44"/>
      <point x="1396" y="1132.03"/>
    </contour>
    <contour>
      <point x="684.199" y="86.1934" type="curve"/>
      <point x="975.246" y="49.3635"/>
      <point x="978.716" y="377.989"/>
      <point x="1038.23" y="704" type="curve"/>
      <point x="1038.23" y="981.059"/>
      <point x="934.616" y="1163.12"/>
      <point x="629.913" y="1164" type="curve" smooth="yes"/>
      <point x="552.617" y="1164"/>
      <point x="438.528" y="802.529"/>
      <point x="438.528" y="677" type="curve" smooth="yes"/>
      <point x="438.528" y="522.363"/>
      <point x="487.893" y="98.5498"/>
    </contour>
  </outline>
</glyph>
<glyph name="r" format="1">
  <advance width="1139"/>
  <unicode hex="0072"/>
  <outline>
    <contour>
      <point x="1064.14" y="1058.11" type="curve" smooth="yes"/>
      <point x="1064.14" y="873.428"/>
      <point x="985.533" y="763.93"/>
      <point x="799.106" y="689.146" type="curve"/>
      <point x="1163.36" y="206.003" type="line"/>
      <point x="1163.36" y="46.9395" type="line"/>
      <point x="912.852" y="-65.0576" type="line"/>
      <point x="574.099" y="528" type="line"/>
      <point x="478.282" y="528" type="line"/>
      <point x="518.283" y="-4" type="line"/>
      <point x="177.337" y="-4" type="line"/>
      <point x="122" y="1297.39" type="line"/>
      <point x="295.7" y="1365.26" type="line"/>
      <point x="589.043" y="1357.92"/>
      <point x="1064.14" y="1333.98"/>
    </contour>
    <contour>
      <point x="633.858" y="1072.76" type="curve" smooth="yes"/>
      <point x="633.858" y="1120.43"/>
      <point x="599.504" y="1153.2"/>
      <point x="486.159" y="1173.95" type="curve"/>
      <point x="488.103" y="1092.02"/>
      <point x="492.096" y="949.453"/>
      <point x="495.692" y="867.877" type="curve"/>
      <point x="621.489" y="911.179"/>
      <point x="633.692" y="1012.89"/>
      <point x="633.692" y="1067.01" type="curve" smooth="yes"/>
      <point x="633.877" y="1070.82"/>
      <point x="633.858" y="1070.65"/>
    </contour>
  </outline>
</glyph>
<glyph name="s" format="1">
  <advance width="965"/>
  <unicode hex="0073"/>
  <outline>
    <contour>
      <point x="671.633" y="1065.73" type="line" smooth="yes"/>
      <point x="658.885" y="1070.89"/>
      <point x="608.109" y="1082.46"/>
      <point x="588.235" y="1085.24" type="curve"/>
      <point x="570.203" y="1083.24"/>
      <point x="522.966" y="1057.1"/>
      <point x="522.966" y="1007.38" type="curve" smooth="yes"/>
      <point x="522.966" y="872.862"/>
      <point x="879.193" y="736.382"/>
      <point x="879.193" y="380.02" type="curve" smooth="yes"/>
      <point x="879.193" y="230.139"/>
      <point x="782.614" y="-28"/>
      <point x="375.154" y="-28" type="curve" smooth="yes"/>
      <point x="286.277" y="-28"/>
      <point x="225.479" y="-8.57324"/>
      <point x="161.328" y="21.9248" type="curve" smooth="yes"/>
      <point x="85" y="58.0801" type="line"/>
      <point x="149.213" y="299.645" type="line"/>
      <point x="236.743" y="289.697" type="line" smooth="yes"/>
      <point x="276.065" y="285.559"/>
      <point x="352.994" y="275"/>
      <point x="382.695" y="275" type="curve" smooth="yes"/>
      <point x="423.586" y="275"/>
      <point x="500.342" y="358.298"/>
      <point x="500.342" y="435.224" type="curve" smooth="yes"/>
      <point x="500.342" y="574.904"/>
      <point x="124.192" y="728.414"/>
      <point x="124.192" y="1042.24" type="curve" smooth="yes"/>
      <point x="124.192" y="1152.08"/>
      <point x="203.045" y="1381"/>
      <point x="536.541" y="1381" type="curve" smooth="yes"/>
      <point x="638.662" y="1381"/>
      <point x="734.091" y="1369.24"/>
      <point x="803.393" y="1315.34" type="curve"/>
      <point x="856.026" y="1277.71" type="line"/>
      <point x="782.978" y="1015.83" type="line"/>
    </contour>
  </outline>
</glyph>
<glyph name="t" format="1">
  <advance width="1355"/>
  <unicode hex="0074"/>
  <outline>
    <contour>
      <point x="451.233" y="8.84961" type="line"/>
      <point x="451.233" y="307.445" type="line"/>
      <point x="379.873" y="1060.85" type="line"/>
      <point x="337.021" y="1059.84" type="line"/>
      <point x="148" y="1064.95" type="line"/>
      <point x="149.56" y="1363.73" type="line"/>
      <point x="1206.56" y="1334.28" type="line"/>
      <point x="1206.56" y="1033" type="line"/>
      <point x="944.156" y="1033" type="line"/>
      <point x="986.139" y="8.84961" type="line"/>
    </contour>
  </outline>
</glyph>
<glyph name="u" format="1">
  <advance width="1432"/>
  <unicode hex="0075"/>
  <outline>
    <contour>
      <point x="522.309" y="1384.13" type="line"/>
      <point x="522.309" y="417.767" type="line" smooth="yes"/>
      <point x="522.309" y="319.533"/>
      <point x="531.902" y="310"/>
      <point x="635.686" y="310" type="curve" smooth="yes"/>
      <point x="917.083" y="310"/>
      <point x="932.122" y="454.441"/>
      <point x="932.122" y="951.503" type="curve" smooth="yes"/>
      <point x="932.122" y="1236.63" type="line"/>
      <point x="928.722" y="1448.03" type="line"/>
      <point x="1008.25" y="1426.6" type="line" smooth="yes"/>
      <point x="1032.04" y="1420.19"/>
      <point x="1056.99" y="1414.07"/>
      <point x="1080.21" y="1406.68" type="curve" smooth="yes"/>
      <point x="1158.18" y="1382.77" type="line"/>
      <point x="1287" y="1323.73" type="line"/>
      <point x="1287" y="1262.6" type="line" smooth="yes"/>
      <point x="1287" y="1183.92"/>
      <point x="1288" y="1103.02"/>
      <point x="1288" y="1024.53" type="curve" smooth="yes"/>
      <point x="1288" y="806.912" type="line" smooth="yes"/>
      <point x="1288" y="528.963"/>
      <point x="1281.26" y="-31"/>
      <point x="667.574" y="-31" type="curve" smooth="yes"/>
      <point x="171.829" y="-31"/>
      <point x="131" y="313.529"/>
      <point x="131" y="497.762" type="curve" smooth="yes"/>
      <point x="131" y="693.155"/>
      <point x="146" y="805.393"/>
      <point x="146" y="966.015" type="curve" smooth="yes"/>
      <point x="146" y="1053.52"/>
      <point x="145.021" y="1136.86"/>
      <point x="143" y="1218.68" type="curve"/>
      <point x="143" y="1343.53" type="line"/>
    </contour>
  </outline>
</glyph>
<glyph name="v" format="1">
  <advance width="1460"/>
  <unicode hex="0076"/>
  <outline>
    <contour>
      <point x="1012.29" y="1378" type="line"/>
      <point x="1165.03" y="1378" type="line" smooth="yes"/>
      <point x="1170" y="1378.28"/>
      <point x="1171.72" y="1378.34"/>
      <point x="1176.75" y="1378.34" type="curve" smooth="yes"/>
      <point x="1200.72" y="1378.34"/>
      <point x="1326.92" y="1371.75"/>
      <point x="1326.92" y="1258.03" type="curve" smooth="yes"/>
      <point x="1326.92" y="1061.77"/>
      <point x="1055.6" y="150.131"/>
      <point x="1012.6" y="75.7363" type="curve"/>
      <point x="981.653" y="19.333" type="line"/>
      <point x="524.953" y="3.47754" type="line"/>
      <point x="496.172" y="74.1045" type="line"/>
      <point x="401.524" y="282.005"/>
      <point x="264.202" y="862.741"/>
      <point x="148.256" y="1202.96" type="curve"/>
      <point x="121" y="1284.88" type="line"/>
      <point x="352.643" y="1366" type="line"/>
      <point x="464.143" y="1366" type="line"/>
      <point x="487.434" y="1290.13" type="line"/>
      <point x="497.45" y="1261.93"/>
      <point x="656.098" y="861.037"/>
      <point x="774.079" y="546.476" type="curve"/>
      <point x="852.644" y="797.094"/>
      <point x="917.931" y="1048.11"/>
      <point x="991.507" y="1298.82" type="curve"/>
    </contour>
  </outline>
</glyph>
<glyph name="w" format="1">
  <advance width="1675"/>
  <unicode hex="0077"/>
  <outline>
    <contour>
      <point x="339.061" y="1351.84" type="line"/>
      <point x="540.828" y="749.097" type="line"/>
      <point x="663.414" y="1207.71" type="line"/>
      <point x="991.193" y="1207.71" type="line"/>
      <point x="1015.24" y="1135.52" type="line" smooth="yes"/>
      <point x="1058.2" y="1008.5"/>
      <point x="1099.1" y="881.942"/>
      <point x="1138.54" y="756.637" type="curve"/>
      <point x="1224.23" y="1375.64" type="line"/>
      <point x="1586.14" y="1375.64" type="line"/>
      <point x="1412.47" y="-50.373" type="line"/>
      <point x="1055.28" y="-50.373" type="line"/>
      <point x="820.979" y="657.877" type="line"/>
      <point x="700.577" y="-51" type="line"/>
      <point x="307.521" y="-51" type="line"/>
      <point x="-22" y="1278.56" type="line"/>
    </contour>
  </outline>
</glyph>
<glyph name="x" format="1">
  <advance width="1004"/>
  <unicode hex="0078"/>
  <outline>
    <contour>
      <point x="515.732" y="1041.74" type="line"/>
      <point x="557.745" y="1350.07" type="line"/>
      <point x="974.641" y="1309.2" type="line"/>
      <point x="862.353" y="1012.92" type="line"/>
      <point x="833.765" y="959.698"/>
      <point x="759.56" y="735.215"/>
      <point x="750.982" y="659.591" type="curve"/>
      <point x="964.456" y="82.9814" type="line"/>
      <point x="625.034" y="-31.5049" type="line"/>
      <point x="488.849" y="314.549" type="line"/>
      <point x="393.769" y="-44.1864" type="line"/>
      <point x="148.932" y="80.0205" type="line"/>
      <point x="311.431" y="662.097" type="line"/>
      <point x="10.137" y="1258.23" type="line"/>
      <point x="351.57" y="1378.53" type="line"/>
    </contour>
  </outline>
</glyph>
<glyph name="y" format="1">
  <advance width="1171"/>
  <unicode hex="0079"/>
  <outline>
    <contour>
      <point x="688.817" y="-17.8672" type="line"/>
      <point x="458.848" y="-33.2471" type="line"/>
      <point x="467.753" y="563.246" type="line"/>
      <point x="392.588" y="693.482"/>
      <point x="163.754" y="1075.08"/>
      <point x="142.617" y="1115.63" type="curve"/>
      <point x="52" y="1255.82" type="line"/>
      <point x="379.478" y="1411.5" type="line"/>
      <point x="433.831" y="1319.63" type="line"/>
      <point x="506.031" y="1227.81"/>
      <point x="597.455" y="1097.65"/>
      <point x="675.526" y="982.143" type="curve"/>
      <point x="719.614" y="1094.47"/>
      <point x="770.006" y="1214.01"/>
      <point x="825.196" y="1301.03" type="curve"/>
      <point x="861.571" y="1374.04" type="line"/>
      <point x="1201.94" y="1318.81" type="line"/>
      <point x="1172.62" y="1221.6" type="line"/>
      <point x="1083.69" y="933.129"/>
      <point x="962.163" y="709.981"/>
      <point x="955.413" y="464.623" type="curve" smooth="yes"/>
      <point x="941.074" y="-3.82617" type="line"/>
    </contour>
  </outline>
</glyph>
<glyph name="z" format="1">
  <advance width="1029"/>
  <unicode hex="007A"/>
  <outline>
    <contour>
      <point x="218.157" y="1359" type="line"/>
      <point x="822.929" y="1359" type="line"/>
      <point x="964.683" y="1246.83" type="line"/>
      <point x="566.281" y="279.32" type="line"/>
      <point x="819.708" y="282.643" type="line"/>
      <point x="831.827" y="157.347" type="line"/>
      <point x="853.74" y="17.707" type="line"/>
      <point x="254.649" y="-5.74121" type="line"/>
      <point x="91" y="97.0732" type="line"/>
      <point x="507.947" y="1081.08" type="line"/>
      <point x="205.926" y="1072.37" type="line"/>
      <point x="218.157" y="1220.32" type="line"/>
    </contour>
  </outline>
</glyph>
<glyph name="braceleft" format="1">
  <advance width="787"/>
  <unicode hex="007B"/>
  <outline>
    <contour>
      <point x="788.37" y="25.3821" type="curve" smooth="yes"/>
      <point x="788.37" y="-98.1723"/>
      <point x="683.067" y="-130.29"/>
      <point x="628" y="-140.54" type="curve"/>
      <point x="628" y="-151" type="line"/>
      <point x="526" y="-151" type="line" smooth="yes"/>
      <point x="255.864" y="-151"/>
      <point x="161" y="13.4208"/>
      <point x="161" y="197" type="curve" smooth="yes"/>
      <point x="161" y="614.017" type="line"/>
      <point x="158.666" y="614.085"/>
      <point x="157.703" y="614.093"/>
      <point x="155.731" y="614.093" type="curve" smooth="yes"/>
      <point x="146.4" y="614.093"/>
      <point x="133.965" y="613.374"/>
      <point x="119.74" y="613.374" type="curve" smooth="yes"/>
      <point x="61.2348" y="613.374"/>
      <point x="-21" y="644.537"/>
      <point x="-21" y="765" type="curve" smooth="yes"/>
      <point x="-21" y="894.107"/>
      <point x="68.2177" y="921.796"/>
      <point x="126.362" y="921.796" type="curve" smooth="yes"/>
      <point x="136.222" y="921.796"/>
      <point x="145.031" y="921.524"/>
      <point x="152.272" y="921.524" type="curve" smooth="yes"/>
      <point x="154.953" y="921.524"/>
      <point x="158.571" y="921.598"/>
      <point x="159.842" y="921.642" type="curve"/>
      <point x="158.341" y="958.467"/>
      <point x="147" y="1050.7"/>
      <point x="147" y="1129" type="curve" smooth="yes"/>
      <point x="147" y="1163.33"/>
      <point x="148.34" y="1200.89"/>
      <point x="159.552" y="1237.56" type="curve"/>
      <point x="157.541" y="1252.53"/>
      <point x="157" y="1265.35"/>
      <point x="157" y="1279" type="curve" smooth="yes"/>
      <point x="157" y="1462.54"/>
      <point x="307.392" y="1596"/>
      <point x="526" y="1596" type="curve" smooth="yes"/>
      <point x="530.201" y="1596"/>
      <point x="538.114" y="1596.15"/>
      <point x="547.852" y="1596.15" type="curve" smooth="yes"/>
      <point x="555.069" y="1596.15" type="line" smooth="yes"/>
      <point x="610.868" y="1596.15"/>
      <point x="742.847" y="1593.98"/>
      <point x="798.163" y="1495.52" type="curve" smooth="yes"/>
      <point x="810.568" y="1473.96"/>
      <point x="814" y="1454.52"/>
      <point x="814" y="1434" type="curve" smooth="yes"/>
      <point x="814" y="1300.43"/>
      <point x="673.592" y="1286"/>
      <point x="637" y="1286" type="curve" smooth="yes"/>
      <point x="569.822" y="1286"/>
      <point x="520.611" y="1304.29"/>
      <point x="507.527" y="1304.96" type="curve"/>
      <point x="495.507" y="1292.16"/>
      <point x="481" y="1221.15"/>
      <point x="481" y="1156" type="curve" smooth="yes"/>
      <point x="481" y="1117.04"/>
      <point x="491" y="1030.48"/>
      <point x="491" y="946" type="curve" smooth="yes"/>
      <point x="491" y="890.766"/>
      <point x="487.314" y="829.028"/>
      <point x="463.32" y="770.793" type="curve"/>
      <point x="490.792" y="713.258"/>
      <point x="492" y="660.431"/>
      <point x="492" y="621" type="curve" smooth="yes"/>
      <point x="492" y="179" type="line" smooth="yes"/>
      <point x="492" y="161.416"/>
      <point x="492.762" y="147.547"/>
      <point x="493.744" y="141.687" type="curve"/>
      <point x="497.578" y="141.195"/>
      <point x="500.668" y="141"/>
      <point x="506" y="141" type="curve" smooth="yes"/>
      <point x="526.877" y="141"/>
      <point x="583.133" y="164"/>
      <point x="663" y="164" type="curve" smooth="yes"/>
      <point x="778.634" y="164"/>
      <point x="788.37" y="49.5553"/>
    </contour>
  </outline>
</glyph>
<glyph name="bar" format="1">
  <advance width="457"/>
  <unicode hex="007C"/>
  <outline>
    <contour>
      <point x="240" y="-182" type="curve" smooth="yes"/>
      <point x="72.5628" y="-182"/>
      <point x="70.2115" y="25.1909"/>
      <point x="70.2115" y="80.0132" type="curve" smooth="yes"/>
      <point x="70.2115" y="97.8551"/>
      <point x="70.9567" y="112.535"/>
      <point x="71" y="114.229" type="curve" smooth="yes"/>
      <point x="70.9752" y="579.371"/>
      <point x="53" y="1042.51"/>
      <point x="53" y="1510" type="curve" smooth="yes"/>
      <point x="53" y="1622.13"/>
      <point x="147.806" y="1686"/>
      <point x="247" y="1686" type="curve" smooth="yes"/>
      <point x="333.323" y="1686"/>
      <point x="404" y="1619.26"/>
      <point x="404" y="1533" type="curve" smooth="yes"/>
      <point x="404" y="1149.8"/>
      <point x="413" y="764.794"/>
      <point x="413" y="379" type="curve" smooth="yes"/>
      <point x="413" y="-29" type="line" smooth="yes"/>
      <point x="413" y="-138.616"/>
      <point x="306.849" y="-182"/>
    </contour>
  </outline>
</glyph>
<glyph name="braceright" format="1">
  <advance width="782"/>
  <unicode hex="007D"/>
  <outline>
    <contour>
      <point x="271" y="1597" type="curve" smooth="yes"/>
      <point x="538.167" y="1597"/>
      <point x="636" y="1432.06"/>
      <point x="636" y="1249" type="curve" smooth="yes"/>
      <point x="636" y="879.889" type="line"/>
      <point x="637.022" y="879.886" type="line" smooth="yes"/>
      <point x="645.754" y="879.886"/>
      <point x="658.18" y="880.77"/>
      <point x="672.765" y="880.77" type="curve" smooth="yes"/>
      <point x="730.693" y="880.77"/>
      <point x="805" y="845.909"/>
      <point x="805" y="731" type="curve" smooth="yes"/>
      <point x="805" y="608.769"/>
      <point x="726.992" y="574.995"/>
      <point x="668.344" y="574.995" type="curve" smooth="yes"/>
      <point x="656.385" y="574.995"/>
      <point x="646.089" y="575.528"/>
      <point x="638.423" y="575.528" type="curve" smooth="yes"/>
      <point x="637.066" y="575.525" type="line"/>
      <point x="638.011" y="533.59"/>
      <point x="647" y="421.751"/>
      <point x="647" y="330" type="curve" smooth="yes"/>
      <point x="647.005" y="319.059" type="line" smooth="yes"/>
      <point x="647.005" y="282.457"/>
      <point x="646.52" y="244.551"/>
      <point x="635.844" y="207.543" type="curve"/>
      <point x="637.346" y="191.785"/>
      <point x="638" y="180.07"/>
      <point x="638" y="166" type="curve" smooth="yes"/>
      <point x="638" y="-16.2247"/>
      <point x="489.836" y="-150"/>
      <point x="271" y="-150" type="curve" smooth="yes"/>
      <point x="266.799" y="-150"/>
      <point x="258.886" y="-150.149"/>
      <point x="249.148" y="-150.149" type="curve" smooth="yes"/>
      <point x="246.907" y="-150.149"/>
      <point x="244.488" y="-150.154"/>
      <point x="241.906" y="-150.154" type="curve" smooth="yes"/>
      <point x="186.092" y="-150.154"/>
      <point x="54.1478" y="-147.977"/>
      <point x="-1.16872" y="-49.5146" type="curve" smooth="yes"/>
      <point x="-13.5616" y="-27.971"/>
      <point x="-17" y="-8.51751"/>
      <point x="-17" y="12" type="curve" smooth="yes"/>
      <point x="-17" y="145.209"/>
      <point x="122.082" y="160"/>
      <point x="159" y="160" type="curve" smooth="yes"/>
      <point x="226.89" y="160"/>
      <point x="276.598" y="141.675"/>
      <point x="288.717" y="141.034" type="curve"/>
      <point x="300.46" y="152.868"/>
      <point x="316" y="223.4"/>
      <point x="316" y="289" type="curve" smooth="yes"/>
      <point x="316" y="333.2"/>
      <point x="303" y="435.195"/>
      <point x="303" y="534" type="curve" smooth="yes"/>
      <point x="303" y="595.642"/>
      <point x="306.277" y="663.792"/>
      <point x="332.686" y="726.781" type="curve"/>
      <point x="306.307" y="783.019"/>
      <point x="304" y="835"/>
      <point x="304" y="875" type="curve" smooth="yes"/>
      <point x="304" y="929.012"/>
      <point x="317" y="1027.36"/>
      <point x="317" y="1127" type="curve" smooth="yes"/>
      <point x="317" y="1235.9"/>
      <point x="296.528" y="1294.53"/>
      <point x="286.658" y="1305.9" type="curve"/>
      <point x="263.637" y="1304.49"/>
      <point x="209.157" y="1283"/>
      <point x="133" y="1283" type="curve" smooth="yes"/>
      <point x="19.3238" y="1283"/>
      <point x="8.52617" y="1394.33"/>
      <point x="8.52617" y="1420.2" type="curve" smooth="yes"/>
      <point x="8.52617" y="1426.11"/>
      <point x="8.92863" y="1432.28"/>
      <point x="9.01626" y="1433.46" type="curve" smooth="yes"/>
      <point x="11.9077" y="1592.74"/>
      <point x="198.862" y="1597.09"/>
      <point x="250.085" y="1597.09" type="curve" smooth="yes"/>
      <point x="257.546" y="1597.07" type="line" smooth="yes"/>
      <point x="263.79" y="1597.07"/>
      <point x="268.771" y="1597"/>
    </contour>
  </outline>
</glyph>
<glyph name="exclamdown" format="1">
  <advance width="460"/>
  <unicode hex="00A1"/>
  <outline>
    <contour>
      <point x="445" y="-2" type="curve" smooth="yes"/>
      <point x="445" y="-106.611"/>
      <point x="348.451" y="-154"/>
      <point x="278" y="-154" type="curve" smooth="yes"/>
      <point x="203.445" y="-154"/>
      <point x="63" y="-109.4"/>
      <point x="63" y="27" type="curve" smooth="yes"/>
      <point x="63" y="254.955"/>
      <point x="76" y="478.99"/>
      <point x="76" y="699" type="curve" smooth="yes"/>
      <point x="76" y="799.838"/>
      <point x="66" y="918.184"/>
      <point x="66" y="1038" type="curve" smooth="yes"/>
      <point x="66" y="1043.16"/>
      <point x="64" y="1070.15"/>
      <point x="64" y="1099" type="curve" smooth="yes"/>
      <point x="64" y="1104.78"/>
      <point x="63.6371" y="1116.32"/>
      <point x="63.6371" y="1130.16" type="curve" smooth="yes"/>
      <point x="63.6371" y="1165.77"/>
      <point x="64.8674" y="1261.05"/>
      <point x="118.108" y="1314.43" type="curve"/>
      <point x="54.8333" y="1342.94"/>
      <point x="2" y="1399.41"/>
      <point x="2" y="1481" type="curve" smooth="yes"/>
      <point x="2" y="1487" type="line" smooth="yes"/>
      <point x="2" y="1587.98"/>
      <point x="83.8143" y="1674"/>
      <point x="205" y="1674" type="curve" smooth="yes"/>
      <point x="276.574" y="1674"/>
      <point x="426" y="1643.34"/>
      <point x="426" y="1494" type="curve" smooth="yes"/>
      <point x="426" y="1420.25"/>
      <point x="384.424" y="1351.69"/>
      <point x="316.801" y="1316.89" type="curve"/>
      <point x="386.983" y="1255.66"/>
      <point x="392.154" y="1131.73"/>
      <point x="392.154" y="1088.47" type="curve" smooth="yes"/>
      <point x="392.154" y="1080.99"/>
      <point x="392" y="1075.92"/>
      <point x="392" y="1074" type="curve" smooth="yes"/>
      <point x="392" y="724.08"/>
      <point x="445" y="366.954"/>
    </contour>
  </outline>
</glyph>
<glyph name="cent" format="1">
  <advance width="929"/>
  <unicode hex="00A2"/>
  <outline>
    <contour>
      <point x="449.623" y="1558" type="line"/>
      <point x="535.534" y="1524.37"/>
      <point x="590" y="1465.6"/>
      <point x="590" y="1379" type="curve" smooth="yes"/>
      <point x="590" y="1347.48" type="line"/>
      <point x="602.175" y="1287.74"/>
      <point x="682.598" y="1381.74"/>
      <point x="818.648" y="1201.81" type="curve"/>
      <point x="843" y="1170.5" type="line"/>
      <point x="843" y="1135" type="line" smooth="yes"/>
      <point x="843" y="1047.68"/>
      <point x="767.653" y="982"/>
      <point x="684" y="982" type="curve" smooth="yes"/>
      <point x="668.885" y="982"/>
      <point x="651.441" y="984.399"/>
      <point x="639.912" y="987.116" type="curve"/>
      <point x="656.786" y="843.21"/>
      <point x="676.187" y="683.506"/>
      <point x="685.863" y="546.708" type="curve"/>
      <point x="694.986" y="556.828"/>
      <point x="702.628" y="565.809"/>
      <point x="711.959" y="576.815" type="curve" smooth="yes"/>
      <point x="742.113" y="613" type="line"/>
      <point x="790" y="613" type="line" smooth="yes"/>
      <point x="832.971" y="613"/>
      <point x="891.088" y="605.534"/>
      <point x="933.226" y="555.596" type="curve" smooth="yes"/>
      <point x="961.006" y="521.641"/>
      <point x="969" y="483.32"/>
      <point x="969" y="451" type="curve" smooth="yes"/>
      <point x="969" y="294.644"/>
      <point x="786.437" y="238.931"/>
      <point x="694.053" y="216.097" type="curve"/>
      <point x="695.092" y="161.047"/>
      <point x="712" y="108.231"/>
      <point x="712" y="28" type="curve" smooth="yes"/>
      <point x="712" y="-77.5457"/>
      <point x="613.542" y="-122"/>
      <point x="547" y="-122" type="curve" smooth="yes"/>
      <point x="502.905" y="-122" type="line"/>
      <point x="473.356" y="-90.4812" type="line"/>
      <point x="445.432" y="-62.4502"/>
      <point x="404" y="-14.8499"/>
      <point x="404" y="65" type="curve" smooth="yes"/>
      <point x="404" y="94.1935"/>
      <point x="393" y="147.802"/>
      <point x="393" y="202" type="curve" smooth="yes"/>
      <point x="393" y="210.947"/>
      <point x="392.257" y="221.876"/>
      <point x="391.217" y="232.445" type="curve"/>
      <point x="38.7907" y="340.765"/>
      <point x="15" y="565.481"/>
      <point x="15" y="777" type="curve" smooth="yes"/>
      <point x="15" y="924.49"/>
      <point x="17.6655" y="1169.07"/>
      <point x="242.444" y="1308.93" type="curve"/>
      <point x="239.111" y="1328.03"/>
      <point x="237" y="1346.12"/>
      <point x="237" y="1368" type="curve" smooth="yes"/>
      <point x="237" y="1427.28"/>
      <point x="275.53" y="1558"/>
      <point x="430" y="1558" type="curve" smooth="yes"/>
    </contour>
  </outline>
</glyph>
<glyph name="sterling" format="1">
  <advance width="998"/>
  <unicode hex="00A3"/>
  <outline>
    <contour>
      <point x="564.69" y="-68" type="line"/>
      <point x="519.216" y="-54.6906"/>
      <point x="453.977" y="-31.4693"/>
      <point x="405.983" y="-31.002" type="curve"/>
      <point x="382.137" y="-33.8877"/>
      <point x="235.346" y="-78.92"/>
      <point x="203.52" y="-92.1167" type="curve" smooth="yes"/>
      <point x="63" y="-150.332" type="line"/>
      <point x="63" y="-68.8618" type="line"/>
      <point x="28.9674" y="-49.5968"/>
      <point x="-12" y="-11.3276"/>
      <point x="-12" y="53" type="curve" smooth="yes"/>
      <point x="-12" y="270.116"/>
      <point x="236" y="302.625"/>
      <point x="236" y="382" type="curve" smooth="yes"/>
      <point x="236" y="501.564"/>
      <point x="40" y="716.343"/>
      <point x="40" y="918" type="curve" smooth="yes"/>
      <point x="40" y="955.714"/>
      <point x="55.4443" y="987.36"/>
      <point x="70.8516" y="1007.64" type="curve"/>
      <point x="62.2882" y="1074.21"/>
      <point x="43" y="1149.13"/>
      <point x="43" y="1238" type="curve" smooth="yes"/>
      <point x="43" y="1241.66"/>
      <point x="42.9444" y="1247.24"/>
      <point x="42.9444" y="1254.45" type="curve" smooth="yes"/>
      <point x="42.9444" y="1350.26"/>
      <point x="52.7527" y="1734"/>
      <point x="333" y="1734" type="curve" smooth="yes"/>
      <point x="418" y="1734" type="line" smooth="yes"/>
      <point x="440.707" y="1734"/>
      <point x="459.611" y="1729.95"/>
      <point x="477.578" y="1725.16" type="curve" smooth="yes"/>
      <point x="621.305" y="1684.09"/>
      <point x="737" y="1523.81"/>
      <point x="737" y="1403" type="curve" smooth="yes"/>
      <point x="737" y="1345.99" type="line"/>
      <point x="629.351" y="1257" type="line"/>
      <point x="593" y="1257" type="line" smooth="yes"/>
      <point x="491.651" y="1257"/>
      <point x="439.542" y="1314.35"/>
      <point x="410.688" y="1354.82" type="curve"/>
      <point x="392.792" y="1315.44"/>
      <point x="378.598" y="1278.65"/>
      <point x="375" y="1265.66" type="curve"/>
      <point x="375" y="1243" type="line" smooth="yes"/>
      <point x="375" y="1189.28"/>
      <point x="376.336" y="1133.99"/>
      <point x="381.421" y="1086.65" type="curve"/>
      <point x="436.617" y="1094.16"/>
      <point x="497.16" y="1104"/>
      <point x="565" y="1104" type="curve" smooth="yes"/>
      <point x="628.45" y="1104"/>
      <point x="734" y="1063.4"/>
      <point x="734" y="952" type="curve" smooth="yes"/>
      <point x="734" y="790.203"/>
      <point x="540.934" y="784.214"/>
      <point x="463.928" y="783.434" type="curve"/>
      <point x="507.56" y="664.5"/>
      <point x="566" y="529.622"/>
      <point x="566" y="378" type="curve" smooth="yes"/>
      <point x="566" y="332.047"/>
      <point x="556.479" y="288.775"/>
      <point x="545.281" y="253.514" type="curve"/>
      <point x="620.506" y="240.186"/>
      <point x="680.391" y="227"/>
      <point x="748" y="227" type="curve" smooth="yes"/>
      <point x="780.501" y="227"/>
      <point x="810.976" y="231.645"/>
      <point x="833.503" y="239.905" type="curve" smooth="yes"/>
      <point x="877.411" y="255.871" type="line"/>
      <point x="1034" y="169.035" type="line"/>
      <point x="1034" y="109" type="line" smooth="yes"/>
      <point x="1034" y="-61.4552"/>
      <point x="857.476" y="-75"/>
      <point x="795" y="-75" type="curve" smooth="yes"/>
      <point x="743.828" y="-75"/>
      <point x="700.197" y="-68"/>
      <point x="665" y="-68" type="curve" smooth="yes"/>
    </contour>
  </outline>
</glyph>
<glyph name="currency" format="1">
  <advance width="1579"/>
  <unicode hex="00A4"/>
  <outline>
    <contour>
      <point x="1196" y="816.235" type="line"/>
      <point x="1178.34" y="929.485"/>
      <point x="1079.58" y="1077.57"/>
      <point x="761.528" y="1078" type="curve"/>
      <point x="748.339" y="1076.77"/>
      <point x="667.618" y="1052.06"/>
      <point x="618.237" y="1032.42" type="curve"/>
      <point x="605.371" y="952.059"/>
      <point x="536.632" y="918.284"/>
      <point x="480.137" y="909.533" type="curve"/>
      <point x="457.311" y="865.721"/>
      <point x="425.281" y="763.215"/>
      <point x="417.524" y="714.383" type="curve"/>
      <point x="423.393" y="700.975"/>
      <point x="427" y="687.077"/>
      <point x="427" y="669" type="curve" smooth="yes"/>
      <point x="427" y="623.892"/>
      <point x="416.446" y="588.837"/>
      <point x="416" y="584.534" type="curve" smooth="yes"/>
      <point x="416.007" y="575.409"/>
      <point x="415.197" y="568.233"/>
      <point x="415.197" y="562.155" type="curve" smooth="yes"/>
      <point x="415.197" y="544.644"/>
      <point x="421.922" y="536.248"/>
      <point x="474.299" y="516.606" type="curve" smooth="yes"/>
      <point x="540" y="490.724" type="line"/>
      <point x="540" y="442.062" type="line"/>
      <point x="570.68" y="427.6"/>
      <point x="651.334" y="407"/>
      <point x="780" y="407" type="curve" smooth="yes"/>
      <point x="1141.08" y="407"/>
      <point x="1196" y="667.953"/>
      <point x="1196" y="779" type="curve" smooth="yes"/>
    </contour>
    <contour>
      <point x="1567" y="247" type="curve" smooth="yes"/>
      <point x="1567" y="142.22"/>
      <point x="1471.43" y="93"/>
      <point x="1400" y="93" type="curve" smooth="yes"/>
      <point x="1361.24" y="93"/>
      <point x="1278.03" y="96.0262"/>
      <point x="1226.49" y="163.206" type="curve"/>
      <point x="1066.87" y="122.568"/>
      <point x="868.019" y="103"/>
      <point x="699" y="103" type="curve" smooth="yes"/>
      <point x="562.228" y="103"/>
      <point x="433.14" y="128.416"/>
      <point x="332.133" y="164.32" type="curve"/>
      <point x="300.873" y="131.488"/>
      <point x="251.539" y="99"/>
      <point x="184" y="99" type="curve" smooth="yes"/>
      <point x="73.5928" y="99"/>
      <point x="-1" y="182.572"/>
      <point x="-1" y="276" type="curve" smooth="yes"/>
      <point x="-1" y="353.429"/>
      <point x="54.8267" y="399.24"/>
      <point x="86.2414" y="422.046" type="curve"/>
      <point x="69.0048" y="478.223"/>
      <point x="69" y="526.024"/>
      <point x="69" y="567" type="curve" smooth="yes"/>
      <point x="69" y="572.336"/>
      <point x="68.9956" y="577.97"/>
      <point x="68.9956" y="583.878" type="curve" smooth="yes"/>
      <point x="68.9956" y="695.198"/>
      <point x="70.5684" y="903.875"/>
      <point x="132.984" y="1053.44" type="curve"/>
      <point x="95.8996" y="1079.39"/>
      <point x="37" y="1126.59"/>
      <point x="37" y="1209" type="curve" smooth="yes"/>
      <point x="37" y="1319.87"/>
      <point x="142.561" y="1357"/>
      <point x="201" y="1357" type="curve" smooth="yes"/>
      <point x="279.197" y="1357"/>
      <point x="334.923" y="1320.04"/>
      <point x="371.25" y="1292.46" type="curve"/>
      <point x="441.513" y="1329.69"/>
      <point x="547.715" y="1387"/>
      <point x="657" y="1387" type="curve" smooth="yes"/>
      <point x="829.067" y="1387"/>
      <point x="997.178" y="1363.94"/>
      <point x="1145.97" y="1326.76" type="curve"/>
      <point x="1190.37" y="1365.49"/>
      <point x="1266.66" y="1453"/>
      <point x="1389" y="1453" type="curve" smooth="yes"/>
      <point x="1420.86" y="1453" type="line"/>
      <point x="1563.88" y="1354.51" type="line"/>
      <point x="1559.86" y="1296.16" type="line"/>
      <point x="1552.04" y="1201.26"/>
      <point x="1475.64" y="1139.09"/>
      <point x="1442.49" y="1109.83" type="curve"/>
      <point x="1462.5" y="1042.8"/>
      <point x="1554" y="924.888"/>
      <point x="1554" y="772" type="curve" smooth="yes"/>
      <point x="1554" y="614.914"/>
      <point x="1477.41" y="493.851"/>
      <point x="1468.15" y="415.05" type="curve"/>
      <point x="1498.32" y="392.356"/>
      <point x="1567" y="339.473"/>
    </contour>
  </outline>
</glyph>
<glyph name="yen" format="1">
  <advance width="1428"/>
  <unicode hex="00A5"/>
  <outline>
    <contour>
      <point x="325.637" y="1159.01" type="curve" smooth="yes"/>
      <point x="336" y="1159" type="line" smooth="yes"/>
      <point x="371.123" y="1159"/>
      <point x="418.758" y="1156.38"/>
      <point x="464.841" y="1154.96" type="curve"/>
      <point x="264.602" y="1317.45"/>
      <point x="-38" y="1558.71"/>
      <point x="-38" y="1737" type="curve" smooth="yes"/>
      <point x="-38" y="1870.96"/>
      <point x="107.404" y="1876"/>
      <point x="145" y="1876" type="curve" smooth="yes"/>
      <point x="328.728" y="1876"/>
      <point x="613.703" y="1554.87"/>
      <point x="769.972" y="1388.5" type="curve"/>
      <point x="843.997" y="1561.73"/>
      <point x="982.917" y="1934"/>
      <point x="1186" y="1934" type="curve" smooth="yes"/>
      <point x="1249.17" y="1934"/>
      <point x="1363" y="1895.84"/>
      <point x="1363" y="1778" type="curve" smooth="yes"/>
      <point x="1363" y="1745.67" type="line"/>
      <point x="1270.7" y="1548.27"/>
      <point x="1160.07" y="1358.78"/>
      <point x="1063.73" y="1165.56" type="curve"/>
      <point x="1108.74" y="1166.9"/>
      <point x="1151.42" y="1168"/>
      <point x="1185.98" y="1168" type="curve" smooth="yes"/>
      <point x="1193.18" y="1168" type="line" smooth="yes"/>
      <point x="1197.64" y="1168"/>
      <point x="1203.16" y="1168.06"/>
      <point x="1209.54" y="1168.06" type="curve" smooth="yes"/>
      <point x="1279.67" y="1168.06"/>
      <point x="1453" y="1161.53"/>
      <point x="1453" y="1005" type="curve" smooth="yes"/>
      <point x="1453" y="965.79"/>
      <point x="1435.65" y="934.03"/>
      <point x="1415.42" y="913.467" type="curve"/>
      <point x="1434.85" y="887.801"/>
      <point x="1447" y="856.74"/>
      <point x="1447" y="820" type="curve" smooth="yes"/>
      <point x="1447" y="688.372"/>
      <point x="1303.7" y="678"/>
      <point x="1272" y="678" type="curve" smooth="yes"/>
      <point x="1147.71" y="678"/>
      <point x="1136.59" y="677.997"/>
      <point x="980.807" y="675.714" type="curve"/>
      <point x="970.601" y="486.842"/>
      <point x="943" y="311.816"/>
      <point x="943" y="142" type="curve" smooth="yes"/>
      <point x="943" y="138.939"/>
      <point x="945" y="117.581"/>
      <point x="945" y="94" type="curve" smooth="yes"/>
      <point x="945" y="30.7229"/>
      <point x="912.701" y="-110"/>
      <point x="753" y="-110" type="curve" smooth="yes"/>
      <point x="750.836" y="-110"/>
      <point x="747.117" y="-110.038"/>
      <point x="742.561" y="-110.038" type="curve" smooth="yes"/>
      <point x="740.795" y="-110.038"/>
      <point x="738.479" y="-110.055"/>
      <point x="735.684" y="-110.055" type="curve" smooth="yes"/>
      <point x="691.019" y="-110.055"/>
      <point x="524" y="-105.763"/>
      <point x="524" y="40" type="curve" smooth="yes"/>
      <point x="524" y="82.8661" type="line"/>
      <point x="544.064" y="106.274" type="line"/>
      <point x="564.905" y="162.866"/>
      <point x="601.451" y="496.449"/>
      <point x="612.232" y="671" type="curve"/>
      <point x="274.654" y="671" type="line"/>
      <point x="178.157" y="672.302"/>
      <point x="92" y="741.253"/>
      <point x="92" y="838" type="curve" smooth="yes"/>
      <point x="92" y="881.928"/>
      <point x="114.266" y="921.22"/>
      <point x="144.82" y="945.562" type="curve"/>
      <point x="133.695" y="965.426"/>
      <point x="128" y="985.854"/>
      <point x="128" y="1010" type="curve" smooth="yes"/>
      <point x="128" y="1155.41"/>
      <point x="283.952" y="1159.01"/>
    </contour>
  </outline>
</glyph>
<glyph name="brokenbar" format="1">
  <advance width="442"/>
  <unicode hex="00A6"/>
  <outline>
    <contour>
      <point x="240" y="1686" type="curve" smooth="yes"/>
      <point x="391.29" y="1686"/>
      <point x="398.505" y="1508.09"/>
      <point x="398.505" y="1444.56" type="curve" smooth="yes"/>
      <point x="398.505" y="1425.17"/>
      <point x="398" y="1407.42"/>
      <point x="398" y="1393" type="curve" smooth="yes"/>
      <point x="398" y="877" type="line" smooth="yes"/>
      <point x="398" y="820.921"/>
      <point x="370.217" y="782.177"/>
      <point x="334.127" y="757.708" type="curve"/>
      <point x="376.189" y="723.361"/>
      <point x="398" y="671.252"/>
      <point x="398" y="621" type="curve" smooth="yes"/>
      <point x="398" y="-16" type="line" smooth="yes"/>
      <point x="398" y="-46.5201"/>
      <point x="392.11" y="-92.9046"/>
      <point x="355.168" y="-132.925" type="curve" smooth="yes"/>
      <point x="320.669" y="-168.992"/>
      <point x="275.299" y="-182"/>
      <point x="233" y="-182" type="curve" smooth="yes"/>
      <point x="163.421" y="-182"/>
      <point x="63" y="-135.913"/>
      <point x="63" y="-29" type="curve" smooth="yes"/>
      <point x="63" y="644" type="line" smooth="yes"/>
      <point x="63" y="691.166"/>
      <point x="85.156" y="735.017"/>
      <point x="120.888" y="763.574" type="curve"/>
      <point x="56.4468" y="826.489"/>
      <point x="55.2115" y="946.277"/>
      <point x="55.2115" y="986.013" type="curve" smooth="yes"/>
      <point x="55.2115" y="1003.86"/>
      <point x="55.9566" y="1018.53"/>
      <point x="56.0001" y="1020.23" type="curve" smooth="yes"/>
      <point x="55.9597" y="1180.56"/>
      <point x="46" y="1343.79"/>
      <point x="46" y="1510" type="curve" smooth="yes"/>
      <point x="46" y="1622.13"/>
      <point x="140.806" y="1686"/>
    </contour>
  </outline>
</glyph>
<glyph name="section" format="1">
  <advance width="802"/>
  <unicode hex="00A7"/>
  <outline>
    <contour>
      <point x="792.202" y="736" type="curve"/>
      <point x="806" y="736" type="line"/>
      <point x="806" y="634" type="line" smooth="yes"/>
      <point x="806" y="561.74"/>
      <point x="776.616" y="495.013"/>
      <point x="729.05" y="443.662" type="curve"/>
      <point x="763.281" y="385.461"/>
      <point x="787" y="320.85"/>
      <point x="787" y="246" type="curve" smooth="yes"/>
      <point x="787" y="80.7087"/>
      <point x="652.014" y="-101"/>
      <point x="364" y="-101" type="curve" smooth="yes"/>
      <point x="288.183" y="-101"/>
      <point x="81" y="-86.3106"/>
      <point x="81" y="82" type="curve" smooth="yes"/>
      <point x="81" y="217.279"/>
      <point x="227.486" y="223"/>
      <point x="256" y="223" type="curve" smooth="yes"/>
      <point x="289.723" y="223"/>
      <point x="324.919" y="218.096"/>
      <point x="356.201" y="211.334" type="curve"/>
      <point x="409.317" y="215.829"/>
      <point x="431.497" y="246.433"/>
      <point x="438.448" y="260.856" type="curve"/>
      <point x="423.482" y="317.57"/>
      <point x="3" y="483.892"/>
      <point x="3" y="820" type="curve" smooth="yes"/>
      <point x="3" y="900.897"/>
      <point x="34.3918" y="982.045"/>
      <point x="93.9668" y="1044.89" type="curve"/>
      <point x="61.5853" y="1119.34"/>
      <point x="46" y="1196.62"/>
      <point x="46" y="1275" type="curve" smooth="yes"/>
      <point x="46" y="1468.37"/>
      <point x="210.146" y="1545"/>
      <point x="446" y="1545" type="curve" smooth="yes"/>
      <point x="449.216" y="1545"/>
      <point x="462.979" y="1545.53"/>
      <point x="479.782" y="1545.53" type="curve" smooth="yes"/>
      <point x="483.287" y="1545.53" type="line" smooth="yes"/>
      <point x="538.978" y="1545.53"/>
      <point x="728" y="1543.88"/>
      <point x="728" y="1392" type="curve" smooth="yes"/>
      <point x="728" y="1231.58"/>
      <point x="465.065" y="1231.08"/>
      <point x="385.464" y="1228.43" type="curve"/>
      <point x="452.645" y="1132.16"/>
      <point x="727.872" y="1004.53"/>
    </contour>
    <contour>
      <point x="455.262" y="681.192" type="curve"/>
      <point x="434.585" y="709.228"/>
      <point x="391.523" y="748.118"/>
      <point x="339.947" y="787.834" type="curve"/>
      <point x="350.855" y="766.885"/>
      <point x="392.939" y="725.321"/>
    </contour>
  </outline>
</glyph>
<glyph name="dieresis" format="1">
  <advance width="992"/>
  <unicode hex="00A8"/>
  <outline>
    <contour>
      <point x="581" y="1023" type="curve" smooth="yes"/>
      <point x="581" y="1139.19"/>
      <point x="690.081" y="1200"/>
      <point x="778" y="1200" type="curve" smooth="yes"/>
      <point x="869.382" y="1200"/>
      <point x="968" y="1132.53"/>
      <point x="968" y="1025" type="curve" smooth="yes"/>
      <point x="968" y="895.149"/>
      <point x="839.377" y="852"/>
      <point x="766" y="852" type="curve" smooth="yes"/>
      <point x="675.447" y="852"/>
      <point x="581" y="918.137"/>
    </contour>
    <contour>
      <point x="214" y="852" type="curve" smooth="yes"/>
      <point x="115.426" y="852"/>
      <point x="35" y="924.46"/>
      <point x="35" y="1021" type="curve" smooth="yes"/>
      <point x="35" y="1132.77"/>
      <point x="135.312" y="1197"/>
      <point x="228" y="1197" type="curve" smooth="yes"/>
      <point x="306.138" y="1197"/>
      <point x="422" y="1147.03"/>
      <point x="422" y="1026" type="curve" smooth="yes"/>
      <point x="422" y="889.27"/>
      <point x="280.332" y="852"/>
    </contour>
  </outline>
</glyph>
<glyph name="copyright" format="1">
  <advance width="2377"/>
  <unicode hex="00A9"/>
  <outline>
    <contour>
      <point x="2375" y="750.731" type="line"/>
      <point x="2324.51" y="358.357"/>
      <point x="2166.2" y="-122"/>
      <point x="1075" y="-122" type="curve" smooth="yes"/>
      <point x="1074" y="-122" type="line" smooth="yes"/>
      <point x="92.6192" y="-122"/>
      <point x="19" y="361.472"/>
      <point x="19" y="795" type="curve" smooth="yes"/>
      <point x="19" y="924" type="line" smooth="yes"/>
      <point x="19" y="1212.4"/>
      <point x="97.2961" y="1914"/>
      <point x="918" y="1914" type="curve" smooth="yes"/>
      <point x="2190.56" y="1914"/>
      <point x="2375" y="1139.81"/>
      <point x="2375" y="757" type="curve" smooth="yes"/>
    </contour>
    <contour>
      <point x="1610" y="542" type="curve" smooth="yes"/>
      <point x="1707.81" y="542"/>
      <point x="1825" y="501.331"/>
      <point x="1825" y="372" type="curve" smooth="yes"/>
      <point x="1825" y="361.357"/>
      <point x="1824.01" y="351.169"/>
      <point x="1822.1" y="341.416" type="curve"/>
      <point x="1903.25" y="387.713"/>
      <point x="1967.36" y="442.244"/>
      <point x="2022" y="502.379" type="curve"/>
      <point x="2022" y="922.832" type="line"/>
      <point x="2009.12" y="1020.48"/>
      <point x="1936.48" y="1164.61"/>
      <point x="1802.8" y="1295.77" type="curve"/>
      <point x="1803.59" y="1288.99"/>
      <point x="1804" y="1282.06"/>
      <point x="1804" y="1275" type="curve" smooth="yes"/>
      <point x="1804" y="1125.7"/>
      <point x="1626.69" y="1121"/>
      <point x="1571" y="1121" type="curve" smooth="yes"/>
      <point x="1246.43" y="1121"/>
      <point x="1241.77" y="1285"/>
      <point x="1091" y="1285" type="curve" smooth="yes"/>
      <point x="896.038" y="1285"/>
      <point x="734" y="1061.25"/>
      <point x="734" y="815" type="curve" smooth="yes"/>
      <point x="734" y="620.87"/>
      <point x="878.617" y="434"/>
      <point x="1148" y="434" type="curve" smooth="yes"/>
      <point x="1149" y="434" type="line" smooth="yes"/>
      <point x="1341.47" y="434"/>
      <point x="1378.74" y="542"/>
    </contour>
    <contour>
      <point x="1192.56" y="1595.04" type="curve"/>
      <point x="1126.98" y="1605.37"/>
      <point x="1057.47" y="1611"/>
      <point x="984.002" y="1611" type="curve" smooth="yes"/>
      <point x="452.317" y="1611"/>
      <point x="376" y="1149.9"/>
      <point x="376" y="940" type="curve" smooth="yes"/>
      <point x="376" y="881.822"/>
      <point x="374" y="820.917"/>
      <point x="374" y="760" type="curve" smooth="yes"/>
      <point x="374" y="523.759"/>
      <point x="387.546" y="296.885"/>
      <point x="707.556" y="215.057" type="curve"/>
      <point x="423.721" y="356.4"/>
      <point x="377" y="629.713"/>
      <point x="377" y="813" type="curve" smooth="yes"/>
      <point x="377" y="825" type="line" smooth="yes"/>
      <point x="377" y="1020.86"/>
      <point x="389.073" y="1601"/>
      <point x="1066" y="1601" type="curve" smooth="yes"/>
      <point x="1102.92" y="1601"/>
      <point x="1146.03" y="1599.13"/>
    </contour>
  </outline>
</glyph>
<glyph name="ordfeminine" format="1">
  <advance width="1179"/>
  <unicode hex="00AA"/>
  <outline>
    <contour>
      <point x="581.935" y="978.151" type="curve"/>
      <point x="614.961" y="974.928"/>
      <point x="644.386" y="975.479"/>
      <point x="667.7" y="974.347" type="curve"/>
      <point x="624.877" y="1057.67" type="line"/>
      <point x="610.078" y="1029.66"/>
      <point x="595.687" y="1003.06"/>
    </contour>
    <contour>
      <point x="588.933" y="1465" type="line"/>
      <point x="636.21" y="1465.15"/>
      <point x="622.594" y="1466.18"/>
      <point x="647.332" y="1477" type="curve"/>
      <point x="669" y="1477" type="line" smooth="yes"/>
      <point x="716.773" y="1477"/>
      <point x="807.271" y="1469.27"/>
      <point x="845.458" y="1381.76" type="curve"/>
      <point x="1090.05" y="693.288" type="line"/>
      <point x="1104.07" y="632.199"/>
      <point x="1116" y="582.984"/>
      <point x="1116" y="539" type="curve" smooth="yes"/>
      <point x="1116" y="512.266"/>
      <point x="1110.41" y="478.663"/>
      <point x="1090.58" y="448.357" type="curve"/>
      <point x="1099.04" y="429.14"/>
      <point x="1102" y="412.929"/>
      <point x="1102" y="393" type="curve" smooth="yes"/>
      <point x="1102" y="377.826"/>
      <point x="1096.91" y="363.22"/>
      <point x="1089.6" y="352.07" type="curve" smooth="yes"/>
      <point x="1037.88" y="273.109"/>
      <point x="851.955" y="266.123"/>
      <point x="681.867" y="266.123" type="curve" smooth="yes"/>
      <point x="645.297" y="266.123"/>
      <point x="609.459" y="266.446"/>
      <point x="575.844" y="266.446" type="curve" smooth="yes"/>
      <point x="427.475" y="266.446"/>
      <point x="298.44" y="272.518"/>
      <point x="286.166" y="273.001" type="curve" smooth="yes"/>
      <point x="252.079" y="273.225"/>
      <point x="120.44" y="284.631"/>
      <point x="118.997" y="409.38" type="curve"/>
      <point x="44.9629" y="440.216"/>
      <point x="46" y="521.546"/>
      <point x="46" y="539" type="curve" smooth="yes"/>
      <point x="46" y="574.89" type="line"/>
      <point x="53.387" y="584.124" type="line"/>
      <point x="75.0516" y="695.861"/>
      <point x="158.359" y="1166.76"/>
      <point x="457.386" y="1440.46" type="curve"/>
      <point x="487.701" y="1468.75" type="line"/>
    </contour>
    <contour>
      <point x="513.195" y="712.931" type="line"/>
      <point x="497.692" y="715.515"/>
      <point x="475.864" y="717.829"/>
      <point x="433.246" y="720.998" type="curve"/>
      <point x="357.947" y="606.069" type="line"/>
      <point x="348.585" y="580.287"/>
      <point x="337.46" y="551.542"/>
      <point x="321.724" y="521.456" type="curve"/>
      <point x="418.801" y="533.002"/>
      <point x="540.941" y="536.131"/>
      <point x="651.817" y="536.131" type="curve" smooth="yes"/>
      <point x="710.316" y="536.131"/>
      <point x="767.382" y="535.182"/>
      <point x="812.266" y="534.099" type="curve"/>
      <point x="812.054" y="538.187"/>
      <point x="812" y="540.58"/>
      <point x="812" y="544" type="curve" smooth="yes"/>
      <point x="812" y="591" type="line" smooth="yes"/>
      <point x="812" y="596.738"/>
      <point x="812.023" y="602.274"/>
      <point x="812.023" y="607.584" type="curve" smooth="yes"/>
      <point x="812.023" y="622.15"/>
      <point x="813.015" y="635.178"/>
      <point x="813.015" y="646.703" type="curve" smooth="yes"/>
      <point x="813.015" y="692.7"/>
      <point x="797.211" y="714.75"/>
      <point x="639.453" y="715.001" type="curve"/>
    </contour>
  </outline>
</glyph>
<glyph name="guillemotleft" format="1">
  <advance width="954"/>
  <unicode hex="00AB"/>
  <outline>
    <contour>
      <point x="574.324" y="720.08" type="curve"/>
      <point x="648.831" y="590.802"/>
      <point x="931.307" y="165.512"/>
      <point x="977" y="102.557" type="curve"/>
      <point x="977" y="33" type="line" smooth="yes"/>
      <point x="977" y="11.9773"/>
      <point x="969.483" y="-124"/>
      <point x="838" y="-124" type="curve" smooth="yes"/>
      <point x="812.311" y="-124"/>
      <point x="787.394" y="-115.546"/>
      <point x="767.254" y="-105.417" type="curve"/>
      <point x="716.383" y="-160.048"/>
      <point x="645.331" y="-161.001"/>
      <point x="619.609" y="-161.001" type="curve" smooth="yes"/>
      <point x="617" y="-161" type="line" smooth="yes"/>
      <point x="437.616" y="-161"/>
      <point x="-10" y="559.148"/>
      <point x="-10" y="697" type="curve" smooth="yes"/>
      <point x="-10" y="841.582"/>
      <point x="276.722" y="1362.22"/>
      <point x="409" y="1522.93" type="curve"/>
      <point x="409" y="1573.52" type="line"/>
      <point x="493.051" y="1584.98" type="line"/>
      <point x="501.635" y="1587.57"/>
      <point x="515.964" y="1591"/>
      <point x="535" y="1591" type="curve" smooth="yes"/>
      <point x="570.05" y="1591"/>
      <point x="637.425" y="1583.78"/>
      <point x="683.234" y="1534.52" type="curve"/>
      <point x="699.831" y="1543.07"/>
      <point x="717.453" y="1549"/>
      <point x="738" y="1549" type="curve" smooth="yes"/>
      <point x="744.176" y="1549"/>
      <point x="750.471" y="1548.35"/>
      <point x="753.347" y="1548" type="curve" smooth="yes"/>
      <point x="775.006" y="1548" type="line"/>
      <point x="918.349" y="1462.85" type="line"/>
      <point x="906.3" y="1394.57" type="line"/>
      <point x="865.899" y="1145.48"/>
      <point x="604.392" y="839.043"/>
    </contour>
  </outline>
</glyph>
<glyph name="logicalnot" format="1">
  <advance width="1687"/>
  <unicode hex="00AC"/>
  <outline>
    <contour>
      <point x="1656.28" y="547.143" type="curve"/>
      <point x="1642.19" y="481.808"/>
      <point x="1608.34" y="373"/>
      <point x="1479" y="373" type="curve" smooth="yes"/>
      <point x="1313.49" y="373"/>
      <point x="1295" y="537.184"/>
      <point x="1295" y="592" type="curve" smooth="yes"/>
      <point x="1295" y="605.124"/>
      <point x="1295.58" y="619.027"/>
      <point x="1296.21" y="629.651" type="curve"/>
      <point x="1277.84" y="630.545"/>
      <point x="1257.3" y="631"/>
      <point x="1230" y="631" type="curve" smooth="yes"/>
      <point x="909.861" y="631"/>
      <point x="456.334" y="609"/>
      <point x="205" y="609" type="curve" smooth="yes"/>
      <point x="133.881" y="609"/>
      <point x="37" y="657.571"/>
      <point x="37" y="763" type="curve" smooth="yes"/>
      <point x="37" y="932.773"/>
      <point x="248.989" y="937.232"/>
      <point x="353.305" y="937.232" type="curve" smooth="yes"/>
      <point x="369.608" y="937.219" type="line" smooth="yes"/>
      <point x="389.089" y="937.219"/>
      <point x="406.956" y="937"/>
      <point x="422" y="937" type="curve" smooth="yes"/>
      <point x="569.142" y="937"/>
      <point x="732.69" y="930"/>
      <point x="786" y="930" type="curve" smooth="yes"/>
      <point x="1010.17" y="930"/>
      <point x="1251.81" y="950"/>
      <point x="1456" y="950" type="curve" smooth="yes"/>
      <point x="1518.18" y="950"/>
      <point x="1645" y="914.817"/>
      <point x="1645" y="790" type="curve" smooth="yes"/>
      <point x="1645" y="753.587"/>
      <point x="1634.3" y="719.448"/>
      <point x="1620.42" y="692.547" type="curve"/>
      <point x="1623.25" y="635.814"/>
      <point x="1637.48" y="591.011"/>
    </contour>
  </outline>
</glyph>
<glyph name="uni00AD" format="1">
  <advance width="855"/>
  <unicode hex="00AD"/>
  <outline>
    <contour>
      <point x="823" y="739" type="curve" smooth="yes"/>
      <point x="823" y="560.304"/>
      <point x="513.578" y="552.498"/>
      <point x="363.601" y="552.498" type="curve" smooth="yes"/>
      <point x="349.244" y="552.498"/>
      <point x="336.348" y="552.569"/>
      <point x="325.324" y="552.569" type="curve" smooth="yes"/>
      <point x="276.163" y="552.569"/>
      <point x="238.468" y="554"/>
      <point x="233" y="554" type="curve" smooth="yes"/>
      <point x="173.602" y="554"/>
      <point x="44" y="586.916"/>
      <point x="44" y="715" type="curve" smooth="yes"/>
      <point x="44" y="893.149"/>
      <point x="354.146" y="901.389"/>
      <point x="504.163" y="901.389" type="curve" smooth="yes"/>
      <point x="519.455" y="901.389"/>
      <point x="533.084" y="901.303"/>
      <point x="544.55" y="901.303" type="curve" smooth="yes"/>
      <point x="591.438" y="901.303"/>
      <point x="627.134" y="900"/>
      <point x="632" y="900" type="curve" smooth="yes"/>
      <point x="687.259" y="900"/>
      <point x="823" y="871.459"/>
    </contour>
  </outline>
</glyph>
<glyph name="registered" format="1">
  <advance width="2088"/>
  <unicode hex="00AE"/>
  <outline>
    <contour>
      <point x="1024" y="-292" type="curve" smooth="yes"/>
      <point x="201.39" y="-292"/>
      <point x="146.987" y="375.826"/>
      <point x="29" y="749.132" type="curve"/>
      <point x="29" y="765" type="line" smooth="yes"/>
      <point x="29" y="808.261"/>
      <point x="28" y="864.5"/>
      <point x="28" y="930" type="curve" smooth="yes"/>
      <point x="28" y="1309.99"/>
      <point x="90.5542" y="2040"/>
      <point x="1053" y="2040" type="curve" smooth="yes"/>
      <point x="2009.29" y="2040"/>
      <point x="2082" y="1222.03"/>
      <point x="2082" y="807" type="curve" smooth="yes"/>
      <point x="2082" y="469.747"/>
      <point x="2063.37" y="-292"/>
    </contour>
    <contour>
      <point x="388" y="954" type="curve" smooth="yes"/>
      <point x="388" y="953" type="line" smooth="yes"/>
      <point x="388" y="741.457"/>
      <point x="448.156" y="498.019"/>
      <point x="551.775" y="305.828" type="curve"/>
      <point x="545.708" y="340.743"/>
      <point x="540" y="380.882"/>
      <point x="540" y="425" type="curve" smooth="yes"/>
      <point x="540" y="1453" type="line" smooth="yes"/>
      <point x="540" y="1482.42"/>
      <point x="542.838" y="1508.94"/>
      <point x="548.274" y="1532.82" type="curve"/>
      <point x="399.746" y="1364.03"/>
      <point x="388" y="1122.31"/>
    </contour>
    <contour>
      <point x="899.549" y="760.516" type="curve"/>
      <point x="904.885" y="590.162"/>
      <point x="948" y="407.686"/>
      <point x="948" y="209" type="curve" smooth="yes"/>
      <point x="948" y="107" type="line"/>
      <point x="694.068" y="107" type="line"/>
      <point x="719.637" y="80.8124"/>
      <point x="746.522" y="57.6256"/>
      <point x="774.609" y="38" type="curve"/>
      <point x="931" y="38" type="line"/>
      <point x="931" y="20.9359" type="line"/>
      <point x="1258.32" y="37.0314"/>
      <point x="1451.9" y="116.427"/>
      <point x="1566.23" y="223.114" type="curve"/>
      <point x="1338.13" y="103.858" type="line"/>
      <point x="1284.64" y="149.419" type="line"/>
      <point x="1105.47" y="306.663"/>
      <point x="983.952" y="601.574"/>
    </contour>
    <contour>
      <point x="965" y="1422" type="curve" smooth="yes"/>
      <point x="910.347" y="1422"/>
      <point x="877.271" y="1418.16"/>
      <point x="862.823" y="1414.55" type="curve"/>
      <point x="862.93" y="1411.55"/>
      <point x="863" y="1409.24"/>
      <point x="863" y="1406" type="curve" smooth="yes"/>
      <point x="863" y="1378.5"/>
      <point x="873" y="1323.53"/>
      <point x="873" y="1262" type="curve" smooth="yes"/>
      <point x="873" y="1212.27"/>
      <point x="873.771" y="1163.51"/>
      <point x="878.736" y="1121.85" type="curve"/>
      <point x="1058.2" y="1172.11"/>
      <point x="1091" y="1234.33"/>
      <point x="1091" y="1271" type="curve" smooth="yes"/>
      <point x="1091" y="1280.05" type="line"/>
      <point x="1091.01" y="1292.66" type="line" smooth="yes"/>
      <point x="1091.01" y="1301.17"/>
      <point x="1091.13" y="1309.42"/>
      <point x="1091.13" y="1317.37" type="curve" smooth="yes"/>
      <point x="1091.13" y="1378.94"/>
      <point x="1084.31" y="1422"/>
    </contour>
    <contour>
      <point x="1636.15" y="304.95" type="line"/>
      <point x="1721.55" y="432.094"/>
      <point x="1730" y="580.87"/>
      <point x="1730" y="706" type="curve" smooth="yes"/>
      <point x="1730" y="1017.08"/>
      <point x="1695.94" y="1317.52"/>
      <point x="1484.98" y="1593.69" type="curve"/>
      <point x="1476.31" y="1605.83" type="line"/>
      <point x="1383.25" y="1656.26"/>
      <point x="1176.69" y="1730"/>
      <point x="1087" y="1730" type="curve" smooth="yes"/>
      <point x="1081.8" y="1730"/>
      <point x="1076.63" y="1729.97"/>
      <point x="1071.5" y="1729.91" type="curve"/>
      <point x="1454.22" y="1689.72"/>
      <point x="1549" y="1458.39"/>
      <point x="1549" y="1269" type="curve" smooth="yes"/>
      <point x="1549" y="1043.81"/>
      <point x="1376.99" y="954.283"/>
      <point x="1280.5" y="915.981" type="curve"/>
      <point x="1364.29" y="756.333"/>
      <point x="1558" y="457.194"/>
      <point x="1608.38" y="359.274" type="curve" smooth="yes"/>
    </contour>
  </outline>
</glyph>
<glyph name="macron" format="1">
  <advance width="879"/>
  <unicode hex="00AF"/>
  <outline>
    <contour>
      <point x="825.956" y="709.351" type="line"/>
      <point x="736.968" y="602" type="line"/>
      <point x="100.999" y="602" type="line"/>
      <point x="47.1575" y="741.698" type="line"/>
      <point x="61.3019" y="902" type="line"/>
      <point x="837.01" y="902" type="line"/>
    </contour>
  </outline>
</glyph>
<glyph name="degree" format="1">
  <advance width="1255"/>
  <unicode hex="00B0"/>
  <outline>
    <contour>
      <point x="585" y="799" type="curve" smooth="yes"/>
      <point x="584" y="799" type="line" smooth="yes"/>
      <point x="372.269" y="799"/>
      <point x="346.992" y="728.367"/>
      <point x="340.588" y="687.13" type="curve"/>
      <point x="376.021" y="661.024"/>
      <point x="472.638" y="617"/>
      <point x="584" y="617" type="curve" smooth="yes"/>
      <point x="868.966" y="617"/>
      <point x="926.646" y="701.419"/>
      <point x="937.034" y="723.18" type="curve"/>
      <point x="919.622" y="742.384"/>
      <point x="841.92" y="799"/>
    </contour>
    <contour>
      <point x="49.3571" y="629" type="curve"/>
      <point x="36" y="629" type="line"/>
      <point x="36" y="731" type="line" smooth="yes"/>
      <point x="36" y="957.219"/>
      <point x="258.654" y="1072"/>
      <point x="566" y="1072" type="curve" smooth="yes"/>
      <point x="1065.43" y="1072"/>
      <point x="1233" y="909.484"/>
      <point x="1233" y="733" type="curve" smooth="yes"/>
      <point x="1233" y="581.621"/>
      <point x="1101.19" y="336"/>
      <point x="568" y="336" type="curve" smooth="yes"/>
      <point x="238.267" y="336"/>
      <point x="89.9747" y="477.377"/>
    </contour>
  </outline>
</glyph>
<glyph name="plusminus" format="1">
  <advance width="978"/>
  <unicode hex="00B1"/>
  <outline>
    <contour>
      <point x="678" y="389" type="curve" smooth="yes"/>
      <point x="678" y="374.648"/>
      <point x="675.626" y="360.144"/>
      <point x="672.162" y="348" type="curve"/>
      <point x="740" y="348" type="line" smooth="yes"/>
      <point x="743.669" y="348"/>
      <point x="755.234" y="348.508"/>
      <point x="769.087" y="348.508" type="curve" smooth="yes"/>
      <point x="817.247" y="348.508"/>
      <point x="971" y="340.175"/>
      <point x="971" y="192" type="curve" smooth="yes"/>
      <point x="971" y="57.9541"/>
      <point x="831.773" y="43"/>
      <point x="793" y="43" type="curve" smooth="yes"/>
      <point x="609.831" y="43"/>
      <point x="421.802" y="33"/>
      <point x="232" y="33" type="curve" smooth="yes"/>
      <point x="176.594" y="33"/>
      <point x="23" y="50.0081"/>
      <point x="23" y="200" type="curve" smooth="yes"/>
      <point x="23" y="303.438"/>
      <point x="117.077" y="348"/>
      <point x="185" y="348" type="curve" smooth="yes"/>
      <point x="306.015" y="348" type="line"/>
      <point x="302.422" y="361.185"/>
      <point x="301" y="371.9"/>
      <point x="301" y="385" type="curve" smooth="yes"/>
      <point x="301" y="421.633"/>
      <point x="303.155" y="459.127"/>
      <point x="304.998" y="490.221" type="curve"/>
      <point x="281.934" y="488.906"/>
      <point x="259.421" y="488"/>
      <point x="238" y="488" type="curve" smooth="yes"/>
      <point x="233.124" y="487.998" type="line" smooth="yes"/>
      <point x="187.562" y="487.998"/>
      <point x="97.3776" y="489.41"/>
      <point x="47.0757" y="568.458" type="curve" smooth="yes"/>
      <point x="29.707" y="595.302"/>
      <point x="23" y="626.219"/>
      <point x="23" y="655" type="curve" smooth="yes"/>
      <point x="23" y="750.35"/>
      <point x="103.34" y="810"/>
      <point x="185" y="810" type="curve" smooth="yes"/>
      <point x="222.709" y="810"/>
      <point x="257.875" y="807.188"/>
      <point x="288.752" y="805.188" type="curve"/>
      <point x="287.097" y="821.258"/>
      <point x="286" y="837.105"/>
      <point x="286" y="855" type="curve" smooth="yes"/>
      <point x="286" y="896.992"/>
      <point x="299.904" y="1070"/>
      <point x="473" y="1070" type="curve" smooth="yes"/>
      <point x="545.561" y="1070"/>
      <point x="653" y="1023.24"/>
      <point x="653" y="909" type="curve" smooth="yes"/>
      <point x="653" y="878" type="line" smooth="yes"/>
      <point x="653" y="860.102"/>
      <point x="652" y="836.825"/>
      <point x="652" y="812" type="curve" smooth="yes"/>
      <point x="652" y="810.666"/>
      <point x="652.013" y="808.014"/>
      <point x="652.015" y="807.619" type="curve"/>
      <point x="676.577" y="809.418"/>
      <point x="702.32" y="811"/>
      <point x="731" y="811" type="curve" smooth="yes"/>
      <point x="738.601" y="811.011" type="line" smooth="yes"/>
      <point x="793.833" y="811.011"/>
      <point x="971" y="807.046"/>
      <point x="971" y="647" type="curve" smooth="yes"/>
      <point x="971" y="532.874"/>
      <point x="862.496" y="489"/>
      <point x="793" y="489" type="curve" smooth="yes"/>
      <point x="741.291" y="489"/>
      <point x="697.11" y="496.12"/>
      <point x="662.931" y="498.81" type="curve"/>
      <point x="669.88" y="469.035"/>
      <point x="678" y="432.717"/>
    </contour>
  </outline>
</glyph>
<glyph name="twosuperior" format="1">
  <advance width="761"/>
  <unicode hex="00B2"/>
  <outline>
    <contour>
      <point x="-24" y="72.0395" type="line"/>
      <point x="-13.9892" y="92.0612"/>
      <point x="423" y="899.661"/>
      <point x="423" y="1236" type="curve" smooth="yes"/>
      <point x="423" y="1259.22"/>
      <point x="420.667" y="1290.47"/>
      <point x="416.363" y="1317.34" type="curve"/>
      <point x="388.882" y="1271.84"/>
      <point x="338.295" y="1225"/>
      <point x="260" y="1225" type="curve" smooth="yes"/>
      <point x="217.684" y="1225"/>
      <point x="173.08" y="1237.79"/>
      <point x="138.571" y="1272.3" type="curve" smooth="yes"/>
      <point x="102.145" y="1310.25"/>
      <point x="93" y="1355.21"/>
      <point x="93" y="1390" type="curve" smooth="yes"/>
      <point x="93" y="1477.62"/>
      <point x="136.726" y="1612.78"/>
      <point x="265" y="1667.52" type="curve"/>
      <point x="265" y="1689" type="line"/>
      <point x="367" y="1689" type="line" smooth="yes"/>
      <point x="748.225" y="1689"/>
      <point x="755" y="1343.63"/>
      <point x="755" y="1201" type="curve" smooth="yes"/>
      <point x="755" y="810.365"/>
      <point x="554.06" y="478.211"/>
      <point x="415.442" y="204.903" type="curve"/>
      <point x="460.169" y="207.616"/>
      <point x="502.468" y="209"/>
      <point x="547" y="209" type="curve" smooth="yes"/>
      <point x="556.682" y="209" type="line"/>
      <point x="615.507" y="198.107"/>
      <point x="714" y="165.626"/>
      <point x="714" y="61" type="curve" smooth="yes"/>
      <point x="714" y="-2.16148"/>
      <point x="676.58" y="-43.493"/>
      <point x="655.052" y="-66.0459" type="curve" smooth="yes"/>
      <point x="625.095" y="-98" type="line"/>
      <point x="581" y="-98" type="line" smooth="yes"/>
      <point x="455.954" y="-98"/>
      <point x="320.6" y="-117"/>
      <point x="176" y="-117" type="curve" smooth="yes"/>
      <point x="122.859" y="-117"/>
      <point x="-24" y="-93.3361"/>
      <point x="-24" y="47" type="curve" smooth="yes"/>
    </contour>
  </outline>
</glyph>
<glyph name="threesuperior" format="1">
  <advance width="787"/>
  <unicode hex="00B3"/>
  <outline>
    <contour>
      <point x="-33.6588" y="1430.32" type="curve"/>
      <point x="30.3449" y="1553.67"/>
      <point x="137.5" y="1675"/>
      <point x="331" y="1675" type="curve" smooth="yes"/>
      <point x="667.124" y="1675"/>
      <point x="700" y="1277.02"/>
      <point x="700" y="1124" type="curve" smooth="yes"/>
      <point x="700" y="1042.9"/>
      <point x="661.459" y="982.344"/>
      <point x="627.151" y="941.055" type="curve"/>
      <point x="781.819" y="775.261"/>
      <point x="803" y="492.779"/>
      <point x="803" y="361" type="curve" smooth="yes"/>
      <point x="803" y="223.044"/>
      <point x="784.104" y="-122"/>
      <point x="425" y="-122" type="curve" smooth="yes"/>
      <point x="374.38" y="-122"/>
      <point x="127" y="-118.192"/>
      <point x="127" y="76" type="curve" smooth="yes"/>
      <point x="127" y="191" type="line"/>
      <point x="278.825" y="191" type="line"/>
      <point x="314.591" y="187.026"/>
      <point x="362.159" y="191.482"/>
      <point x="421.372" y="168.687" type="curve"/>
      <point x="451.516" y="176.247"/>
      <point x="465" y="208.163"/>
      <point x="465" y="294" type="curve" smooth="yes"/>
      <point x="465" y="471.084"/>
      <point x="457.515" y="631.468"/>
      <point x="359.689" y="747.669" type="curve"/>
      <point x="321.92" y="752.258"/>
      <point x="296.26" y="762.138"/>
      <point x="277.286" y="768.479" type="curve" smooth="yes"/>
      <point x="207" y="790.569" type="line"/>
      <point x="207" y="889" type="line" smooth="yes"/>
      <point x="207" y="1061.21"/>
      <point x="363" y="1105.29"/>
      <point x="363" y="1150" type="curve" smooth="yes"/>
      <point x="363" y="1196.26"/>
      <point x="348.496" y="1287.23"/>
      <point x="328.941" y="1341.57" type="curve"/>
      <point x="300.709" y="1296.64"/>
      <point x="246.68" y="1258"/>
      <point x="151" y="1258" type="curve" smooth="yes"/>
      <point x="34.9971" y="1258"/>
      <point x="-15.1466" y="1342.39"/>
    </contour>
  </outline>
</glyph>
<glyph name="acute" format="1">
  <advance width="587"/>
  <unicode hex="00B4"/>
  <outline>
    <contour>
      <point x="718.476" y="1524.57" type="line"/>
      <point x="162.025" y="1164.94" type="line"/>
      <point x="-121.164" y="1334.55" type="line"/>
      <point x="412.343" y="1692.64" type="line"/>
    </contour>
  </outline>
</glyph>
<glyph name="mu" format="1">
  <advance width="1140"/>
  <unicode hex="00B5"/>
  <unicode hex="03bc"/>
  <outline>
    <contour>
      <point x="-110" y="1013" type="curve" smooth="yes"/>
      <point x="-110" y="1116.45"/>
      <point x="-122.043" y="1203.25"/>
      <point x="-143" y="1277.97" type="curve"/>
      <point x="-143" y="1559" type="line"/>
      <point x="61" y="1559" type="line" smooth="yes"/>
      <point x="264.669" y="1559"/>
      <point x="403" y="1399.39"/>
      <point x="403" y="1232" type="curve" smooth="yes"/>
      <point x="403" y="258.971" type="line"/>
      <point x="410.45" y="253.68"/>
      <point x="433.529" y="242.304"/>
      <point x="481.873" y="237.445" type="curve"/>
      <point x="518.876" y="317.202"/>
      <point x="571" y="510.589"/>
      <point x="571" y="559" type="curve" smooth="yes"/>
      <point x="571" y="823.844"/>
      <point x="604.568" y="1076.47"/>
      <point x="604.996" y="1302.89" type="curve" smooth="yes"/>
      <point x="604.129" y="1311.74"/>
      <point x="603" y="1323.89"/>
      <point x="603" y="1341" type="curve" smooth="yes"/>
      <point x="603" y="1362.41"/>
      <point x="603.932" y="1419.6"/>
      <point x="641.021" y="1477.88" type="curve" smooth="yes"/>
      <point x="710.899" y="1587.18"/>
      <point x="829.594" y="1593"/>
      <point x="880" y="1593" type="curve" smooth="yes"/>
      <point x="1138.99" y="1593"/>
      <point x="1166" y="1344.06"/>
      <point x="1166" y="1290" type="curve" smooth="yes"/>
      <point x="1166" y="1193.38"/>
      <point x="1148" y="1108.07"/>
      <point x="1148" y="1084" type="curve" smooth="yes"/>
      <point x="1148" y="1011.12"/>
      <point x="1137.44" y="947.46"/>
      <point x="1136.14" y="921.56" type="curve"/>
      <point x="1137.51" y="910.845"/>
      <point x="1139" y="896.735"/>
      <point x="1139" y="878" type="curve" smooth="yes"/>
      <point x="1139" y="849.714" type="line"/>
      <point x="1131.5" y="823.464" type="line"/>
      <point x="1122.08" y="755.238"/>
      <point x="1200.72" y="-229.15"/>
      <point x="485.417" y="-235" type="curve" smooth="yes"/>
      <point x="472.194" y="-235"/>
      <point x="458.767" y="-234.764"/>
      <point x="447.648" y="-234.409" type="curve"/>
      <point x="413.758" y="-369.11"/>
      <point x="288.462" y="-452"/>
      <point x="148" y="-452" type="curve" smooth="yes"/>
      <point x="87.0613" y="-452"/>
      <point x="1.00867" y="-433.309"/>
      <point x="-61.1468" y="-357.342" type="curve" smooth="yes"/>
      <point x="-97.4137" y="-312.439"/>
      <point x="-116" y="-257.808"/>
      <point x="-116" y="-202" type="curve" smooth="yes"/>
      <point x="-116" y="99" type="line" smooth="yes"/>
      <point x="-116" y="204.901"/>
      <point x="-125" y="346.502"/>
      <point x="-125" y="475" type="curve" smooth="yes"/>
      <point x="-125" y="484" type="line" smooth="yes"/>
      <point x="-125" y="708.392"/>
      <point x="-110" y="836.681"/>
    </contour>
  </outline>
</glyph>
<glyph name="paragraph" format="1">
  <advance width="1301"/>
  <unicode hex="00B6"/>
  <outline>
    <contour>
      <point x="602.028" y="997.688" type="line"/>
      <point x="294.512" y="1011.78"/>
      <point x="130.76" y="1110.41"/>
      <point x="-14" y="1356.09" type="curve"/>
      <point x="-14" y="1385" type="line" smooth="yes"/>
      <point x="-14" y="1829.02"/>
      <point x="362.905" y="1979"/>
      <point x="821" y="1979" type="curve" smooth="yes"/>
      <point x="1332" y="1979" type="line"/>
      <point x="1332" y="1733.41" type="line"/>
      <point x="1247" y="1681.41" type="line"/>
      <point x="1247" y="-12.3463" type="line"/>
      <point x="1086.24" y="-142.352" type="line"/>
      <point x="901.791" y="-39.277" type="line"/>
      <point x="897.041" y="-98" type="line"/>
      <point x="537.929" y="-98" type="line"/>
    </contour>
    <contour>
      <point x="337" y="1455" type="curve" smooth="yes"/>
      <point x="337" y="1337.4"/>
      <point x="387.903" y="1308.25"/>
      <point x="578" y="1299.56" type="curve"/>
      <point x="578" y="1638" type="line"/>
      <point x="569" y="1638" type="line" smooth="yes"/>
      <point x="426.86" y="1638"/>
      <point x="337" y="1524.02"/>
    </contour>
  </outline>
</glyph>
<glyph name="periodcentered" format="1">
  <advance width="481"/>
  <unicode hex="00B7"/>
  <outline>
    <contour>
      <point x="46" y="706" type="curve" smooth="yes"/>
      <point x="46" y="824.384"/>
      <point x="158.048" y="887"/>
      <point x="248" y="887" type="curve" smooth="yes"/>
      <point x="339.913" y="887"/>
      <point x="445" y="820.786"/>
      <point x="445" y="708" type="curve" smooth="yes"/>
      <point x="445" y="575.093"/>
      <point x="317.227" y="531"/>
      <point x="238" y="531" type="curve" smooth="yes"/>
      <point x="146.972" y="531"/>
      <point x="46" y="595.73"/>
    </contour>
  </outline>
</glyph>
<glyph name="cedilla" format="1">
  <advance width="609"/>
  <unicode hex="00B8"/>
  <outline>
    <contour>
      <point x="280" y="-607" type="curve" smooth="yes"/>
      <point x="197.087" y="-607"/>
      <point x="117.926" y="-565.257"/>
      <point x="50.2128" y="-495.323" type="curve" smooth="yes"/>
      <point x="-29.931" y="-411.172" type="line"/>
      <point x="150.304" y="-279" type="line"/>
      <point x="154.39" y="-279" type="line"/>
      <point x="136.739" y="-265.274"/>
      <point x="118.741" y="-253.262"/>
      <point x="107.068" y="-247.036" type="curve" smooth="yes"/>
      <point x="38.8137" y="-210.902" type="line"/>
      <point x="108.051" y="102" type="line"/>
      <point x="368" y="102" type="line"/>
      <point x="368" y="-29.8378" type="line"/>
      <point x="487.481" y="-105.938"/>
      <point x="559" y="-229.173"/>
      <point x="559" y="-351" type="curve" smooth="yes"/>
      <point x="559" y="-491.463"/>
      <point x="450.797" y="-607"/>
    </contour>
  </outline>
</glyph>
<glyph name="onesuperior" format="1">
  <advance width="789"/>
  <unicode hex="00B9"/>
  <outline>
    <contour>
      <point x="488.701" y="-108.946" type="curve" smooth="yes"/>
      <point x="462.883" y="-108.946"/>
      <point x="436.191" y="-110"/>
      <point x="418" y="-110" type="curve" smooth="yes"/>
      <point x="381.145" y="-110"/>
      <point x="371.742" y="-111"/>
      <point x="338" y="-111" type="curve" smooth="yes"/>
      <point x="336.284" y="-111"/>
      <point x="334.014" y="-111.019"/>
      <point x="331.263" y="-111.019" type="curve" smooth="yes"/>
      <point x="288.306" y="-111.019"/>
      <point x="128" y="-106.402"/>
      <point x="128" y="47" type="curve" smooth="yes"/>
      <point x="128" y="198.912" type="line"/>
      <point x="235.829" y="192.921" type="line" smooth="yes"/>
      <point x="245.172" y="192.402"/>
      <point x="264.497" y="191.039"/>
      <point x="280.25" y="190.045" type="curve"/>
      <point x="271.912" y="555.706"/>
      <point x="200" y="933.311"/>
      <point x="200" y="1308" type="curve" smooth="yes"/>
      <point x="200" y="1336.04"/>
      <point x="203.219" y="1360.41"/>
      <point x="203.873" y="1376.7" type="curve"/>
      <point x="190.51" y="1376.11"/>
      <point x="172.998" y="1375"/>
      <point x="152" y="1375" type="curve" smooth="yes"/>
      <point x="126.334" y="1375"/>
      <point x="-25" y="1378.31"/>
      <point x="-25" y="1521" type="curve" smooth="yes"/>
      <point x="-25" y="1674.27"/>
      <point x="162.021" y="1679.28"/>
      <point x="228.545" y="1679.28" type="curve" smooth="yes"/>
      <point x="260.998" y="1679.28"/>
      <point x="288.584" y="1677.12"/>
      <point x="292.26" y="1677" type="curve" smooth="yes"/>
      <point x="298.559" y="1677.01"/>
      <point x="304.649" y="1677.16"/>
      <point x="313.165" y="1677.16" type="curve" smooth="yes"/>
      <point x="355.358" y="1677.16"/>
      <point x="437.677" y="1673.89"/>
      <point x="491.275" y="1600.97" type="curve" smooth="yes"/>
      <point x="521.1" y="1561.2" type="line"/>
      <point x="508.339" y="1517.45" type="line"/>
      <point x="509.776" y="1506.44"/>
      <point x="514" y="1483.88"/>
      <point x="514" y="1455" type="curve" smooth="yes"/>
      <point x="514" y="1352"/>
      <point x="555" y="1226.08"/>
      <point x="555" y="1079" type="curve" smooth="yes"/>
      <point x="555" y="798.706"/>
      <point x="602.424" y="505.06"/>
      <point x="611.806" y="205" type="curve"/>
      <point x="630.362" y="204.984"/>
      <point x="649.96" y="204.977"/>
      <point x="673.495" y="201.446" type="curve" smooth="yes"/>
      <point x="707.66" y="196.422"/>
      <point x="823" y="170.759"/>
      <point x="823" y="52" type="curve" smooth="yes"/>
      <point x="823" y="-93.6384"/>
      <point x="650.915" y="-110.466"/>
      <point x="551.727" y="-110.466" type="curve" smooth="yes"/>
      <point x="521.918" y="-110.466"/>
      <point x="498.692" y="-108.946"/>
    </contour>
  </outline>
</glyph>
<glyph name="ordmasculine" format="1">
  <advance width="1270"/>
  <unicode hex="00BA"/>
  <outline>
    <contour>
      <point x="116" y="466" type="curve" smooth="yes"/>
      <point x="116" y="528.122"/>
      <point x="180.668" y="549.11"/>
      <point x="219.987" y="559.567" type="curve"/>
      <point x="129.109" y="639.349"/>
      <point x="91" y="752.43"/>
      <point x="91" y="887" type="curve" smooth="yes"/>
      <point x="91" y="994.858"/>
      <point x="93.7768" y="1435"/>
      <point x="569" y="1435" type="curve" smooth="yes"/>
      <point x="1130.92" y="1435"/>
      <point x="1216" y="1122.46"/>
      <point x="1216" y="825" type="curve" smooth="yes"/>
      <point x="1216" y="734.112"/>
      <point x="1167.7" y="635.609"/>
      <point x="1074.27" y="560.45" type="curve"/>
      <point x="1110.63" y="539.905"/>
      <point x="1140" y="502.197"/>
      <point x="1140" y="449" type="curve" smooth="yes"/>
      <point x="1140" y="434.394"/>
      <point x="1135.19" y="420.316"/>
      <point x="1128.29" y="409.529" type="curve" smooth="yes"/>
      <point x="1077.07" y="329.486"/>
      <point x="881.716" y="322.061"/>
      <point x="700.682" y="322.061" type="curve" smooth="yes"/>
      <point x="659.446" y="322.061"/>
      <point x="618.952" y="322.446"/>
      <point x="581.075" y="322.446" type="curve" smooth="yes"/>
      <point x="422.865" y="322.446"/>
      <point x="285.807" y="328.501"/>
      <point x="273.094" y="329.001" type="curve" smooth="yes"/>
      <point x="238.63" y="329.321"/>
      <point x="116" y="345.254"/>
    </contour>
    <contour>
      <point x="927" y="905.305" type="line"/>
      <point x="913.907" y="1099.35"/>
      <point x="866.987" y="1192"/>
      <point x="592" y="1192" type="curve" smooth="yes"/>
      <point x="460.413" y="1192"/>
      <point x="380" y="1132.19"/>
      <point x="380" y="954" type="curve" smooth="yes"/>
      <point x="380" y="768.078"/>
      <point x="451.449" y="700"/>
      <point x="646" y="700" type="curve" smooth="yes"/>
      <point x="890.065" y="700"/>
      <point x="927" y="759.897"/>
      <point x="927" y="842" type="curve" smooth="yes"/>
    </contour>
  </outline>
</glyph>
<glyph name="guillemotright" format="1">
  <advance width="988"/>
  <unicode hex="00BB"/>
  <outline>
    <contour>
      <point x="-20.5552" y="79.2226" type="curve"/>
      <point x="28.0625" y="148.978"/>
      <point x="337.132" y="594.397"/>
      <point x="415.115" y="722.706" type="curve"/>
      <point x="387.729" y="858.567"/>
      <point x="85.2709" y="1145.89"/>
      <point x="82" y="1409.68" type="curve"/>
      <point x="82" y="1468.97" type="line"/>
      <point x="345" y="1625.79" type="line"/>
      <point x="345" y="1558.47" type="line"/>
      <point x="380.928" y="1581.74"/>
      <point x="421.476" y="1591"/>
      <point x="459" y="1591" type="curve" smooth="yes"/>
      <point x="478.263" y="1591"/>
      <point x="494.503" y="1586.84"/>
      <point x="501.86" y="1584.25" type="curve"/>
      <point x="514.736" y="1581.73"/>
      <point x="525.673" y="1579.87"/>
      <point x="539.686" y="1576.87" type="curve" smooth="yes"/>
      <point x="580" y="1568.23" type="line"/>
      <point x="580" y="1525.7" type="line"/>
      <point x="720.177" y="1363.68"/>
      <point x="1004" y="845.849"/>
      <point x="1004" y="699" type="curve" smooth="yes"/>
      <point x="1004" y="561.159"/>
      <point x="556.425" y="-159"/>
      <point x="378" y="-159" type="curve" smooth="yes"/>
      <point x="356.401" y="-159"/>
      <point x="296.424" y="-158.881"/>
      <point x="245.062" y="-121" type="curve"/>
      <point x="208.13" y="-121" type="line" smooth="yes"/>
      <point x="203.575" y="-121.213"/>
      <point x="179.865" y="-125"/>
      <point x="153" y="-125" type="curve" smooth="yes"/>
      <point x="9.13849" y="-125"/>
      <point x="-17.8949" y="2.07227"/>
    </contour>
  </outline>
</glyph>
<glyph name="onequarter" format="1">
  <advance width="2729"/>
  <unicode hex="00BC"/>
  <outline>
    <contour>
      <point x="2422" y="85.5676" type="line"/>
      <point x="2429.11" y="103.855"/>
      <point x="2431" y="103.369"/>
      <point x="2431" y="141" type="curve" smooth="yes"/>
      <point x="2431" y="182.769"/>
      <point x="2415.54" y="243.682"/>
      <point x="2412.44" y="318.357" type="curve"/>
      <point x="2401.38" y="322.432"/>
      <point x="2388.92" y="326.318"/>
      <point x="2372.89" y="330.457" type="curve" smooth="yes"/>
      <point x="2296" y="348.668" type="line"/>
      <point x="2296" y="378" type="line"/>
      <point x="2211" y="378" type="line" smooth="yes"/>
      <point x="2146.61" y="378"/>
      <point x="2091.42" y="402.101"/>
      <point x="2052.6" y="426.356" type="curve"/>
      <point x="2004" y="454.707" type="line"/>
      <point x="2004" y="513" type="line" smooth="yes"/>
      <point x="2004" y="537.57"/>
      <point x="2005.89" y="566.132"/>
      <point x="2011.9" y="594.968" type="curve"/>
      <point x="2004.65" y="636.09"/>
      <point x="2004" y="672.162"/>
      <point x="2004" y="707" type="curve" smooth="yes"/>
      <point x="2004" y="862.782"/>
      <point x="2044" y="1012.44"/>
      <point x="2044" y="1125" type="curve" smooth="yes"/>
      <point x="2044" y="1504" type="line" smooth="yes"/>
      <point x="2043.97" y="1509.05" type="line" smooth="yes"/>
      <point x="2043.97" y="1522.55"/>
      <point x="2045.33" y="1553.51"/>
      <point x="2065.16" y="1584.68" type="curve" smooth="yes"/>
      <point x="2101.37" y="1639.86"/>
      <point x="2160.87" y="1646"/>
      <point x="2197" y="1646" type="curve" smooth="yes"/>
      <point x="2238.67" y="1646"/>
      <point x="2401" y="1630.57"/>
      <point x="2401" y="1493" type="curve" smooth="yes"/>
      <point x="2401" y="1419.48"/>
      <point x="2382" y="1360.37"/>
      <point x="2382" y="1334" type="curve" smooth="yes"/>
      <point x="2382" y="1321.63"/>
      <point x="2383.96" y="1315.57"/>
      <point x="2387.43" y="1307.85" type="curve"/>
      <point x="2400" y="1309.52"/>
      <point x="2408.3" y="1310"/>
      <point x="2419" y="1310" type="curve" smooth="yes"/>
      <point x="2449.09" y="1310" type="line"/>
      <point x="2576" y="1227.72" type="line"/>
      <point x="2576" y="1073" type="line" smooth="yes"/>
      <point x="2576" y="946.248"/>
      <point x="2577.81" y="821.828"/>
      <point x="2593.02" y="703.899" type="curve"/>
      <point x="2629.26" y="702.981"/>
      <point x="2765" y="692.152"/>
      <point x="2765" y="558" type="curve" smooth="yes"/>
      <point x="2765" y="467.362"/>
      <point x="2696.86" y="426.566"/>
      <point x="2647.37" y="413.967" type="curve"/>
      <point x="2690.85" y="314.452"/>
      <point x="2742.89" y="215.128"/>
      <point x="2765.18" y="173.866" type="curve"/>
      <point x="2762.68" y="158.869"/>
      <point x="2759.74" y="142.367"/>
      <point x="2757.33" y="126.569" type="curve"/>
      <point x="2761.34" y="121.26"/>
      <point x="2765.13" y="115.768"/>
      <point x="2769" y="110.344" type="curve"/>
      <point x="2769" y="40" type="line" smooth="yes"/>
      <point x="2769" y="-3.84176"/>
      <point x="2743.27" y="-139"/>
      <point x="2604" y="-139" type="curve" smooth="yes"/>
      <point x="2454.12" y="-139"/>
      <point x="2422" y="6.99322"/>
      <point x="2422" y="60" type="curve" smooth="yes"/>
    </contour>
    <contour>
      <point x="1078.05" y="-130" type="line"/>
      <point x="1058.6" y="-124.598"/>
      <point x="957.213" y="-114.369"/>
      <point x="911.64" y="-40.2004" type="curve"/>
      <point x="837.368" y="-107.383"/>
      <point x="680.178" y="-109.686"/>
      <point x="583.823" y="-109.686" type="curve" smooth="yes"/>
      <point x="576.732" y="-109.686"/>
      <point x="569.97" y="-109.673"/>
      <point x="563.595" y="-109.673" type="curve" smooth="yes"/>
      <point x="499.649" y="-109.673"/>
      <point x="443.425" y="-107"/>
      <point x="417" y="-107" type="curve" smooth="yes"/>
      <point x="380.167" y="-107"/>
      <point x="371.772" y="-108"/>
      <point x="338" y="-108" type="curve" smooth="yes"/>
      <point x="336.275" y="-108"/>
      <point x="334.038" y="-108.017"/>
      <point x="331.354" y="-108.017" type="curve" smooth="yes"/>
      <point x="287.992" y="-108.017"/>
      <point x="128" y="-103.542"/>
      <point x="128" y="50" type="curve" smooth="yes"/>
      <point x="128" y="201.912" type="line"/>
      <point x="235.829" y="195.921" type="line" smooth="yes"/>
      <point x="244.755" y="195.426"/>
      <point x="263.553" y="194.106"/>
      <point x="278.247" y="193.165" type="curve"/>
      <point x="269.918" y="558.437"/>
      <point x="198" y="935.45"/>
      <point x="198" y="1311" type="curve" smooth="yes"/>
      <point x="198" y="1339.04"/>
      <point x="201.219" y="1363.41"/>
      <point x="201.873" y="1379.7" type="curve"/>
      <point x="188.51" y="1379.11"/>
      <point x="170.998" y="1378"/>
      <point x="150" y="1378" type="curve" smooth="yes"/>
      <point x="124.334" y="1378"/>
      <point x="-27" y="1381.31"/>
      <point x="-27" y="1524" type="curve" smooth="yes"/>
      <point x="-27" y="1677.27"/>
      <point x="160.021" y="1682.28"/>
      <point x="226.545" y="1682.28" type="curve" smooth="yes"/>
      <point x="258.998" y="1682.28"/>
      <point x="286.584" y="1680.12"/>
      <point x="290.26" y="1680" type="curve" smooth="yes"/>
      <point x="296.559" y="1680.01"/>
      <point x="302.649" y="1680.16"/>
      <point x="311.165" y="1680.16" type="curve" smooth="yes"/>
      <point x="353.358" y="1680.16"/>
      <point x="435.677" y="1676.89"/>
      <point x="489.275" y="1603.97" type="curve" smooth="yes"/>
      <point x="519.1" y="1564.2" type="line"/>
      <point x="506.339" y="1520.45" type="line"/>
      <point x="507.776" y="1509.44"/>
      <point x="512" y="1486.88"/>
      <point x="512" y="1458" type="curve" smooth="yes"/>
      <point x="512" y="1355"/>
      <point x="553" y="1229.08"/>
      <point x="553" y="1082" type="curve" smooth="yes"/>
      <point x="553" y="801.454"/>
      <point x="600.813" y="507.327"/>
      <point x="609.806" y="208" type="curve"/>
      <point x="669" y="208" type="line" smooth="yes"/>
      <point x="711.941" y="208"/>
      <point x="765.911" y="207.375"/>
      <point x="818.148" y="195.767" type="curve" smooth="yes"/>
      <point x="835.955" y="191.746"/>
      <point x="885.488" y="180.099"/>
      <point x="919.297" y="144.208" type="curve"/>
      <point x="1033.53" y="517.808"/>
      <point x="1482.39" y="1658"/>
      <point x="1809" y="1658" type="curve" smooth="yes"/>
      <point x="1850.14" y="1658"/>
      <point x="2026" y="1655.77"/>
      <point x="2026" y="1506" type="curve" smooth="yes"/>
      <point x="2026" y="1321.82"/>
      <point x="1521.09" y="-130"/>
      <point x="1092" y="-130" type="curve" smooth="yes"/>
    </contour>
  </outline>
</glyph>
